Fanwood Text Italic.ufo
<glyph name="exclam" format="1">
  <advance width="220"/>
  <unicode hex="0021"/>
  <outline>
    <contour>
      <point x="62" y="21"/>
      <point x="85" y="-11"/>
      <point x="115" y="-11" type="curve" smooth="yes"/>
      <point x="127" y="-11"/>
      <point x="158" y="6"/>
      <point x="158" y="43" type="curve" smooth="yes"/>
      <point x="158" y="65"/>
      <point x="131" y="93"/>
      <point x="111" y="93" type="curve" smooth="yes"/>
      <point x="90" y="93"/>
      <point x="62" y="66"/>
      <point x="62" y="38" type="curve" smooth="yes"/>
    </contour>
    <contour>
      <point x="99" y="144"/>
      <point x="105" y="143"/>
      <point x="111" y="143" type="curve" smooth="yes"/>
      <point x="119" y="143" type="line" smooth="yes"/>
      <point x="123" y="143"/>
      <point x="129" y="143"/>
      <point x="130" y="150" type="curve" smooth="yes"/>
      <point x="176" y="437"/>
      <point x="207" y="587"/>
      <point x="216" y="627" type="curve" smooth="yes"/>
      <point x="217" y="632"/>
      <point x="218" y="635"/>
      <point x="218" y="640" type="curve" smooth="yes"/>
      <point x="218" y="653"/>
      <point x="210" y="660"/>
      <point x="190" y="660" type="curve" smooth="yes"/>
      <point x="185" y="660" type="line" smooth="yes"/>
      <point x="172" y="660"/>
      <point x="154" y="655"/>
      <point x="153" y="635" type="curve" smooth="yes"/>
      <point x="148" y="574"/>
      <point x="141" y="508"/>
      <point x="119" y="333" type="curve" smooth="yes"/>
      <point x="107" y="237"/>
      <point x="99" y="155"/>
      <point x="99" y="150" type="curve" smooth="yes"/>
    </contour>
  </outline>
</glyph>
<glyph name="numbersign" format="1">
  <advance width="442"/>
  <unicode hex="0023"/>
  <outline>
    <contour>
      <point x="27" y="169" type="line" smooth="yes"/>
      <point x="27" y="160"/>
      <point x="28" y="152"/>
      <point x="42" y="152" type="curve" smooth="yes"/>
      <point x="100" y="152" type="line" smooth="yes"/>
      <point x="109" y="152"/>
      <point x="110" y="152"/>
      <point x="109" y="144" type="curve" smooth="yes"/>
      <point x="105" y="115"/>
      <point x="88" y="10"/>
      <point x="88" y="3" type="curve" smooth="yes"/>
      <point x="88" y="-9"/>
      <point x="93" y="-13"/>
      <point x="109" y="-13" type="curve" smooth="yes"/>
      <point x="129" y="-13"/>
      <point x="130" y="-10"/>
      <point x="134" y="-3" type="curve"/>
      <point x="136" y="0"/>
      <point x="135" y="-2"/>
      <point x="155" y="144" type="curve" smooth="yes"/>
      <point x="156" y="151"/>
      <point x="156" y="152"/>
      <point x="164" y="152" type="curve" smooth="yes"/>
      <point x="248" y="152" type="line" smooth="yes"/>
      <point x="256" y="152"/>
      <point x="255" y="151"/>
      <point x="254" y="144" type="curve" smooth="yes"/>
      <point x="249" y="112"/>
      <point x="233" y="10"/>
      <point x="233" y="-2" type="curve" smooth="yes"/>
      <point x="233" y="-12"/>
      <point x="239" y="-13"/>
      <point x="253" y="-13" type="curve" smooth="yes"/>
      <point x="276" y="-13"/>
      <point x="277" y="-9"/>
      <point x="279" y="2" type="curve"/>
      <point x="299" y="145" type="line" smooth="yes"/>
      <point x="300" y="151"/>
      <point x="300" y="152"/>
      <point x="307" y="152" type="curve" smooth="yes"/>
      <point x="398" y="152" type="line" smooth="yes"/>
      <point x="411" y="152"/>
      <point x="415" y="155"/>
      <point x="415" y="169" type="curve" smooth="yes"/>
      <point x="415" y="184"/>
      <point x="413" y="189"/>
      <point x="401" y="189" type="curve" smooth="yes"/>
      <point x="313" y="189" type="line" smooth="yes"/>
      <point x="304" y="189"/>
      <point x="305" y="190"/>
      <point x="306" y="198" type="curve" smooth="yes"/>
      <point x="323" y="311" type="line" smooth="yes"/>
      <point x="324" y="319"/>
      <point x="324" y="320"/>
      <point x="334" y="320" type="curve" smooth="yes"/>
      <point x="399" y="320" type="line" smooth="yes"/>
      <point x="407" y="320"/>
      <point x="415" y="321"/>
      <point x="415" y="337" type="curve" smooth="yes"/>
      <point x="415" y="353"/>
      <point x="411" y="356"/>
      <point x="397" y="356" type="curve" smooth="yes"/>
      <point x="338" y="356" type="line" smooth="yes"/>
      <point x="332" y="356"/>
      <point x="332" y="357"/>
      <point x="333" y="364" type="curve" smooth="yes"/>
      <point x="337" y="393"/>
      <point x="356" y="513"/>
      <point x="356" y="522" type="curve" smooth="yes"/>
      <point x="356" y="535"/>
      <point x="344" y="535"/>
      <point x="329" y="535" type="curve" smooth="yes"/>
      <point x="315" y="535"/>
      <point x="313" y="528"/>
      <point x="312" y="526" type="curve"/>
      <point x="310" y="518"/>
      <point x="307" y="497"/>
      <point x="287" y="366" type="curve" smooth="yes"/>
      <point x="285" y="355"/>
      <point x="288" y="356"/>
      <point x="277" y="356" type="curve" smooth="yes"/>
      <point x="195" y="356" type="line" smooth="yes"/>
      <point x="187" y="356"/>
      <point x="188" y="357"/>
      <point x="189" y="366" type="curve"/>
      <point x="194" y="398"/>
      <point x="213" y="515"/>
      <point x="213" y="521" type="curve" smooth="yes"/>
      <point x="213" y="535"/>
      <point x="202" y="535"/>
      <point x="191" y="535" type="curve" smooth="yes"/>
      <point x="170" y="535"/>
      <point x="171" y="533"/>
      <point x="167" y="526" type="curve" smooth="yes"/>
      <point x="164" y="521"/>
      <point x="167" y="523"/>
      <point x="144" y="366" type="curve" smooth="yes"/>
      <point x="143" y="357"/>
      <point x="144" y="356"/>
      <point x="132" y="356" type="curve" smooth="yes"/>
      <point x="37" y="356" type="line" smooth="yes"/>
      <point x="28" y="356"/>
      <point x="27" y="349"/>
      <point x="27" y="342" type="curve" smooth="yes"/>
      <point x="27" y="336" type="line" smooth="yes"/>
      <point x="27" y="325"/>
      <point x="31" y="320"/>
      <point x="37" y="320" type="curve" smooth="yes"/>
      <point x="127" y="320" type="line" smooth="yes"/>
      <point x="134" y="320"/>
      <point x="134" y="318"/>
      <point x="133" y="311" type="curve" smooth="yes"/>
      <point x="131" y="293"/>
      <point x="124" y="237"/>
      <point x="119" y="199" type="curve" smooth="yes"/>
      <point x="118" y="191"/>
      <point x="119" y="189"/>
      <point x="110" y="189" type="curve" smooth="yes"/>
      <point x="41" y="189" type="line" smooth="yes"/>
      <point x="31" y="189"/>
      <point x="27" y="185"/>
      <point x="27" y="173" type="curve" smooth="yes"/>
    </contour>
    <contour>
      <point x="165" y="218"/>
      <point x="175" y="278"/>
      <point x="180" y="314" type="curve" smooth="yes"/>
      <point x="181" y="321"/>
      <point x="182" y="322"/>
      <point x="191" y="322" type="curve" smooth="yes"/>
      <point x="272" y="322" type="line" smooth="yes"/>
      <point x="281" y="322"/>
      <point x="281" y="321"/>
      <point x="279" y="310" type="curve" smooth="yes"/>
      <point x="276" y="293"/>
      <point x="271" y="258"/>
      <point x="262" y="199" type="curve" smooth="yes"/>
      <point x="261" y="191"/>
      <point x="260" y="191"/>
      <point x="252" y="191" type="curve" smooth="yes"/>
      <point x="170" y="191" type="line" smooth="yes"/>
      <point x="160" y="191"/>
      <point x="161" y="191"/>
      <point x="162" y="199" type="curve" smooth="yes"/>
    </contour>
  </outline>
</glyph>
<glyph name="dollar" format="1">
  <advance width="500"/>
  <unicode hex="0024"/>
  <outline>
    <contour>
      <point x="47" y="92"/>
      <point x="94" y="23"/>
      <point x="180" y="5" type="curve" smooth="yes"/>
      <point x="193" y="2"/>
      <point x="194" y="3"/>
      <point x="194" y="-4" type="curve" smooth="yes"/>
      <point x="194" y="-7"/>
      <point x="194" y="-9"/>
      <point x="193" y="-13" type="curve"/>
      <point x="175" y="-134" type="line" smooth="yes"/>
      <point x="174" y="-140"/>
      <point x="176" y="-145"/>
      <point x="180" y="-145" type="curve" smooth="yes"/>
      <point x="199" y="-145" type="line" smooth="yes"/>
      <point x="204" y="-145"/>
      <point x="207" y="-143"/>
      <point x="208" y="-137" type="curve"/>
      <point x="222" y="-14" type="line"/>
      <point x="223" y="-8"/>
      <point x="223" y="-2"/>
      <point x="231" y="-2" type="curve" smooth="yes"/>
      <point x="338" y="-2"/>
      <point x="419" y="53"/>
      <point x="419" y="145" type="curve" smooth="yes"/>
      <point x="419" y="251"/>
      <point x="340" y="294"/>
      <point x="272" y="338" type="curve"/>
      <point x="268" y="341"/>
      <point x="269" y="349"/>
      <point x="270" y="355" type="curve"/>
      <point x="302" y="600" type="line"/>
      <point x="302" y="603"/>
      <point x="305" y="603"/>
      <point x="311" y="602" type="curve" smooth="yes"/>
      <point x="341" y="597"/>
      <point x="360" y="578"/>
      <point x="372" y="562" type="curve"/>
      <point x="380" y="550"/>
      <point x="382" y="521"/>
      <point x="387" y="499" type="curve"/>
      <point x="390" y="483"/>
      <point x="406" y="468"/>
      <point x="420" y="468" type="curve" smooth="yes"/>
      <point x="431" y="468"/>
      <point x="441" y="478"/>
      <point x="441" y="496" type="curve" smooth="yes"/>
      <point x="441" y="529"/>
      <point x="402" y="612"/>
      <point x="310" y="627" type="curve"/>
      <point x="306" y="628"/>
      <point x="306" y="628"/>
      <point x="307" y="636" type="curve" smooth="yes"/>
      <point x="312" y="673" type="line" smooth="yes"/>
      <point x="313" y="682"/>
      <point x="312" y="685"/>
      <point x="306" y="685" type="curve" smooth="yes"/>
      <point x="292" y="685" type="line" smooth="yes"/>
      <point x="287" y="685"/>
      <point x="284" y="682"/>
      <point x="283" y="673" type="curve" smooth="yes"/>
      <point x="278" y="637" type="line" smooth="yes"/>
      <point x="277" y="631"/>
      <point x="273" y="630"/>
      <point x="268" y="630" type="curve" smooth="yes"/>
      <point x="179" y="630"/>
      <point x="85" y="576"/>
      <point x="85" y="470" type="curve" smooth="yes"/>
      <point x="85" y="378"/>
      <point x="158" y="334"/>
      <point x="226" y="292" type="curve"/>
      <point x="235" y="287"/>
      <point x="234" y="285"/>
      <point x="232" y="270" type="curve" smooth="yes"/>
      <point x="200" y="36" type="line" smooth="yes"/>
      <point x="199" y="28"/>
      <point x="198" y="27"/>
      <point x="192" y="28" type="curve"/>
      <point x="184" y="29"/>
      <point x="175" y="33"/>
      <point x="168" y="36" type="curve"/>
      <point x="148" y="47"/>
      <point x="131" y="69"/>
      <point x="118" y="92" type="curve" smooth="yes"/>
      <point x="102" y="121"/>
      <point x="92" y="157"/>
      <point x="83" y="157" type="curve" smooth="yes"/>
      <point x="72" y="157"/>
      <point x="47" y="143"/>
      <point x="47" y="128" type="curve" smooth="yes"/>
    </contour>
    <contour>
      <point x="144" y="557"/>
      <point x="210" y="603"/>
      <point x="269" y="605" type="curve" smooth="yes"/>
      <point x="272" y="605"/>
      <point x="273" y="605"/>
      <point x="273" y="601" type="curve"/>
      <point x="242" y="368" type="line" smooth="yes"/>
      <point x="241" y="359"/>
      <point x="239" y="357"/>
      <point x="231" y="361" type="curve"/>
      <point x="188" y="385"/>
      <point x="144" y="436"/>
      <point x="144" y="485" type="curve" smooth="yes"/>
    </contour>
    <contour>
      <point x="230" y="32"/>
      <point x="250" y="189"/>
      <point x="260" y="266" type="curve"/>
      <point x="261" y="271"/>
      <point x="261" y="271"/>
      <point x="265" y="269" type="curve" smooth="yes"/>
      <point x="314" y="245"/>
      <point x="357" y="196"/>
      <point x="357" y="145" type="curve" smooth="yes"/>
      <point x="357" y="69"/>
      <point x="308" y="24"/>
      <point x="245" y="22" type="curve" smooth="yes"/>
      <point x="234" y="22"/>
      <point x="230" y="21"/>
      <point x="230" y="28" type="curve" smooth="yes"/>
    </contour>
  </outline>
</glyph>
<glyph name="ampersand" format="1">
  <advance width="693"/>
  <unicode hex="0026"/>
  <outline>
    <contour>
      <point x="32" y="82"/>
      <point x="113" y="-11"/>
      <point x="256" y="-11" type="curve" smooth="yes"/>
      <point x="461" y="-11"/>
      <point x="534" y="175"/>
      <point x="534" y="277" type="curve" smooth="yes"/>
      <point x="534" y="286"/>
      <point x="533" y="301"/>
      <point x="533" y="308" type="curve" smooth="yes"/>
      <point x="533" y="314"/>
      <point x="536" y="313"/>
      <point x="542" y="312" type="curve"/>
      <point x="551" y="310"/>
      <point x="570" y="309"/>
      <point x="580" y="309" type="curve" smooth="yes"/>
      <point x="608" y="309"/>
      <point x="657" y="328"/>
      <point x="679" y="364" type="curve" smooth="yes"/>
      <point x="689" y="381"/>
      <point x="696" y="405"/>
      <point x="696" y="431" type="curve" smooth="yes"/>
      <point x="696" y="467"/>
      <point x="675" y="523"/>
      <point x="615" y="523" type="curve" smooth="yes"/>
      <point x="598" y="523"/>
      <point x="575" y="509"/>
      <point x="575" y="485" type="curve" smooth="yes"/>
      <point x="575" y="479"/>
      <point x="578" y="475"/>
      <point x="589" y="475" type="curve" smooth="yes"/>
      <point x="628" y="475"/>
      <point x="670" y="466"/>
      <point x="670" y="415" type="curve" smooth="yes"/>
      <point x="670" y="384"/>
      <point x="649" y="362"/>
      <point x="617" y="362" type="curve" smooth="yes"/>
      <point x="544" y="362"/>
      <point x="472" y="409"/>
      <point x="422" y="409" type="curve" smooth="yes"/>
      <point x="352" y="409"/>
      <point x="285" y="366"/>
      <point x="285" y="283" type="curve" smooth="yes"/>
      <point x="285" y="265"/>
      <point x="298" y="225"/>
      <point x="342" y="211" type="curve" smooth="yes"/>
      <point x="349" y="209"/>
      <point x="359" y="207"/>
      <point x="368" y="207" type="curve" smooth="yes"/>
      <point x="383" y="207"/>
      <point x="402" y="220"/>
      <point x="402" y="233" type="curve" smooth="yes"/>
      <point x="402" y="240"/>
      <point x="396" y="243"/>
      <point x="384" y="245" type="curve" smooth="yes"/>
      <point x="352" y="251"/>
      <point x="313" y="255"/>
      <point x="313" y="300" type="curve" smooth="yes"/>
      <point x="313" y="335"/>
      <point x="338" y="354"/>
      <point x="375" y="354" type="curve" smooth="yes"/>
      <point x="410" y="354"/>
      <point x="461" y="336"/>
      <point x="488" y="326" type="curve" smooth="yes"/>
      <point x="493" y="324"/>
      <point x="498" y="287"/>
      <point x="498" y="265" type="curve" smooth="yes"/>
      <point x="498" y="104"/>
      <point x="377" y="56"/>
      <point x="294" y="56" type="curve" smooth="yes"/>
      <point x="182" y="56"/>
      <point x="92" y="127"/>
      <point x="92" y="242" type="curve" smooth="yes"/>
      <point x="92" y="322"/>
      <point x="140" y="344"/>
      <point x="146" y="345" type="curve"/>
      <point x="148" y="344"/>
      <point x="169" y="331"/>
      <point x="186" y="331" type="curve" smooth="yes"/>
      <point x="204" y="331"/>
      <point x="250" y="351"/>
      <point x="250" y="377" type="curve" smooth="yes"/>
      <point x="250" y="386"/>
      <point x="242" y="392"/>
      <point x="228" y="392" type="curve" smooth="yes"/>
      <point x="209" y="392"/>
      <point x="198" y="387"/>
      <point x="173" y="387" type="curve" smooth="yes"/>
      <point x="144" y="387"/>
      <point x="117" y="427"/>
      <point x="117" y="474" type="curve" smooth="yes"/>
      <point x="117" y="531"/>
      <point x="166" y="583"/>
      <point x="222" y="583" type="curve" smooth="yes"/>
      <point x="260" y="583"/>
      <point x="288" y="572"/>
      <point x="317" y="541" type="curve"/>
      <point x="322" y="535"/>
      <point x="330" y="520"/>
      <point x="342" y="532" type="curve" smooth="yes"/>
      <point x="353" y="543"/>
      <point x="364" y="563"/>
      <point x="364" y="586" type="curve" smooth="yes"/>
      <point x="364" y="610"/>
      <point x="344" y="622"/>
      <point x="325" y="630" type="curve" smooth="yes"/>
      <point x="299" y="641"/>
      <point x="276" y="646"/>
      <point x="246" y="646" type="curve" smooth="yes"/>
      <point x="139" y="646"/>
      <point x="80" y="564"/>
      <point x="80" y="476" type="curve" smooth="yes"/>
      <point x="80" y="404"/>
      <point x="121" y="375"/>
      <point x="125" y="368" type="curve"/>
      <point x="119" y="359"/>
      <point x="32" y="311"/>
      <point x="32" y="201" type="curve" smooth="yes"/>
    </contour>
  </outline>
</glyph>
<glyph name="parenleft" format="1">
  <advance width="279"/>
  <unicode hex="0028"/>
  <outline>
    <contour>
      <point x="37" y="55"/>
      <point x="204" y="-143"/>
      <point x="219" y="-143" type="curve" smooth="yes"/>
      <point x="232" y="-143"/>
      <point x="238" y="-135"/>
      <point x="238" y="-126" type="curve" smooth="yes"/>
      <point x="238" y="-107"/>
      <point x="100" y="14"/>
      <point x="100" y="297" type="curve" smooth="yes"/>
      <point x="100" y="546"/>
      <point x="242" y="667"/>
      <point x="242" y="676" type="curve" smooth="yes"/>
      <point x="242" y="685"/>
      <point x="231" y="692"/>
      <point x="223" y="692" type="curve" smooth="yes"/>
      <point x="217" y="692"/>
      <point x="37" y="548"/>
      <point x="37" y="285" type="curve" smooth="yes"/>
    </contour>
  </outline>
</glyph>
<glyph name="parenright" format="1">
  <advance width="279"/>
  <unicode hex="0029"/>
  <outline>
    <contour>
      <point x="37" y="-136"/>
      <point x="48" y="-143"/>
      <point x="56" y="-143" type="curve" smooth="yes"/>
      <point x="62" y="-143"/>
      <point x="242" y="1"/>
      <point x="242" y="264" type="curve" smooth="yes"/>
      <point x="242" y="494"/>
      <point x="75" y="692"/>
      <point x="60" y="692" type="curve" smooth="yes"/>
      <point x="47" y="692"/>
      <point x="41" y="684"/>
      <point x="41" y="675" type="curve" smooth="yes"/>
      <point x="41" y="656"/>
      <point x="179" y="535"/>
      <point x="179" y="252" type="curve" smooth="yes"/>
      <point x="179" y="3"/>
      <point x="37" y="-118"/>
      <point x="37" y="-127" type="curve" smooth="yes"/>
    </contour>
  </outline>
</glyph>
<glyph name="plus" format="1">
  <advance width="527"/>
  <unicode hex="002B"/>
  <outline>
    <contour>
      <point x="28" y="195"/>
      <point x="29" y="185"/>
      <point x="48" y="185" type="curve" smooth="yes"/>
      <point x="217" y="185" type="line" smooth="yes"/>
      <point x="234" y="185"/>
      <point x="238" y="186"/>
      <point x="238" y="170" type="curve" smooth="yes"/>
      <point x="238" y="-4" type="line" smooth="yes"/>
      <point x="238" y="-24"/>
      <point x="246" y="-25"/>
      <point x="266" y="-25" type="curve" smooth="yes"/>
      <point x="277" y="-25"/>
      <point x="289" y="-24"/>
      <point x="289" y="-5" type="curve" smooth="yes"/>
      <point x="289" y="170" type="line" smooth="yes"/>
      <point x="289" y="182"/>
      <point x="288" y="185"/>
      <point x="303" y="185" type="curve" smooth="yes"/>
      <point x="475" y="185" type="line" smooth="yes"/>
      <point x="498" y="185"/>
      <point x="499" y="194"/>
      <point x="499" y="211" type="curve" smooth="yes"/>
      <point x="499" y="225"/>
      <point x="498" y="235"/>
      <point x="480" y="235" type="curve" smooth="yes"/>
      <point x="303" y="235" type="line" smooth="yes"/>
      <point x="290" y="235"/>
      <point x="289" y="245"/>
      <point x="289" y="259" type="curve" smooth="yes"/>
      <point x="289" y="422" type="line" smooth="yes"/>
      <point x="289" y="444"/>
      <point x="276" y="445"/>
      <point x="262" y="445" type="curve" smooth="yes"/>
      <point x="248" y="445"/>
      <point x="238" y="444"/>
      <point x="238" y="427" type="curve" smooth="yes"/>
      <point x="238" y="251" type="line" smooth="yes"/>
      <point x="238" y="241"/>
      <point x="237" y="235"/>
      <point x="219" y="235" type="curve" smooth="yes"/>
      <point x="49" y="235" type="line" smooth="yes"/>
      <point x="29" y="235"/>
      <point x="28" y="225"/>
      <point x="28" y="212" type="curve" smooth="yes"/>
    </contour>
  </outline>
</glyph>
<glyph name="comma" format="1">
  <advance width="195"/>
  <unicode hex="002C"/>
  <outline>
    <contour>
      <point x="4" y="-134"/>
      <point x="16" y="-151"/>
      <point x="24" y="-151" type="curve" smooth="yes"/>
      <point x="32" y="-151"/>
      <point x="158" y="-49"/>
      <point x="158" y="16" type="curve" smooth="yes"/>
      <point x="158" y="67"/>
      <point x="112" y="99"/>
      <point x="98" y="99" type="curve" smooth="yes"/>
      <point x="81" y="99"/>
      <point x="41" y="79"/>
      <point x="41" y="68" type="curve" smooth="yes"/>
      <point x="41" y="61"/>
      <point x="66" y="41"/>
      <point x="81" y="22" type="curve" smooth="yes"/>
      <point x="91" y="9"/>
      <point x="95" y="-1"/>
      <point x="95" y="-11" type="curve" smooth="yes"/>
      <point x="95" y="-40"/>
      <point x="65" y="-71"/>
      <point x="48" y="-88" type="curve" smooth="yes"/>
      <point x="27" y="-108"/>
      <point x="4" y="-123"/>
      <point x="4" y="-126" type="curve" smooth="yes"/>
    </contour>
  </outline>
</glyph>
<glyph name="period" format="1">
  <advance width="210"/>
  <unicode hex="002E"/>
  <outline>
    <contour>
      <point x="57" y="21"/>
      <point x="80" y="-11"/>
      <point x="110" y="-11" type="curve" smooth="yes"/>
      <point x="122" y="-11"/>
      <point x="153" y="6"/>
      <point x="153" y="43" type="curve" smooth="yes"/>
      <point x="153" y="65"/>
      <point x="126" y="93"/>
      <point x="106" y="93" type="curve" smooth="yes"/>
      <point x="85" y="93"/>
      <point x="57" y="66"/>
      <point x="57" y="38" type="curve" smooth="yes"/>
    </contour>
  </outline>
</glyph>
<glyph name="slash" format="1">
  <advance width="406"/>
  <unicode hex="002F"/>
  <outline>
    <contour>
      <point x="5" y="-236"/>
      <point x="23" y="-236"/>
      <point x="34" y="-236" type="curve" smooth="yes"/>
      <point x="61" y="-236"/>
      <point x="60" y="-234"/>
      <point x="71" y="-203" type="curve" smooth="yes"/>
      <point x="385" y="648" type="line" smooth="yes"/>
      <point x="391" y="663"/>
      <point x="400" y="691"/>
      <point x="400" y="696" type="curve" smooth="yes"/>
      <point x="400" y="703"/>
      <point x="394" y="707"/>
      <point x="375" y="707" type="curve" smooth="yes"/>
      <point x="348" y="707"/>
      <point x="348" y="704"/>
      <point x="343" y="688" type="curve"/>
      <point x="26" y="-162" type="line" smooth="yes"/>
      <point x="17" y="-185"/>
      <point x="5" y="-220"/>
      <point x="5" y="-224" type="curve" smooth="yes"/>
    </contour>
  </outline>
</glyph>
<glyph name="zero" format="1">
  <advance width="500"/>
  <unicode hex="0030"/>
  <outline>
    <contour>
      <point x="59" y="58"/>
      <point x="140" y="-8"/>
      <point x="240" y="-8" type="curve" smooth="yes"/>
      <point x="352" y="-8"/>
      <point x="442" y="83"/>
      <point x="442" y="198" type="curve" smooth="yes"/>
      <point x="442" y="292"/>
      <point x="374" y="369"/>
      <point x="264" y="369" type="curve" smooth="yes"/>
      <point x="146" y="369"/>
      <point x="59" y="281"/>
      <point x="59" y="164" type="curve" smooth="yes"/>
    </contour>
    <contour>
      <point x="110" y="238"/>
      <point x="179" y="333"/>
      <point x="264" y="333" type="curve" smooth="yes"/>
      <point x="334" y="333"/>
      <point x="388" y="286"/>
      <point x="388" y="207" type="curve" smooth="yes"/>
      <point x="388" y="102"/>
      <point x="308" y="30"/>
      <point x="231" y="30" type="curve" smooth="yes"/>
      <point x="161" y="30"/>
      <point x="110" y="73"/>
      <point x="110" y="156" type="curve" smooth="yes"/>
    </contour>
  </outline>
</glyph>
<glyph name="one" format="1">
  <advance width="500"/>
  <unicode hex="0031"/>
  <outline>
    <contour>
      <point x="127" y="1"/>
      <point x="128" y="-5"/>
      <point x="139" y="-5" type="curve" smooth="yes"/>
      <point x="151" y="-5"/>
      <point x="200" y="-3"/>
      <point x="234" y="-3" type="curve" smooth="yes"/>
      <point x="275" y="-3"/>
      <point x="313" y="-5"/>
      <point x="332" y="-5" type="curve" smooth="yes"/>
      <point x="343" y="-5"/>
      <point x="344" y="3"/>
      <point x="344" y="12" type="curve" smooth="yes"/>
      <point x="344" y="21"/>
      <point x="344" y="28"/>
      <point x="332" y="28" type="curve" smooth="yes"/>
      <point x="279" y="28" type="line" smooth="yes"/>
      <point x="270" y="28"/>
      <point x="268" y="30"/>
      <point x="269" y="37" type="curve" smooth="yes"/>
      <point x="283" y="141"/>
      <point x="303" y="266"/>
      <point x="315" y="345" type="curve"/>
      <point x="317" y="355"/>
      <point x="315" y="355"/>
      <point x="325" y="355" type="curve" smooth="yes"/>
      <point x="366" y="355" type="line" smooth="yes"/>
      <point x="380" y="355"/>
      <point x="381" y="361"/>
      <point x="381" y="371" type="curve" smooth="yes"/>
      <point x="381" y="382"/>
      <point x="381" y="388"/>
      <point x="369" y="388" type="curve" smooth="yes"/>
      <point x="350" y="388"/>
      <point x="302" y="386"/>
      <point x="277" y="386" type="curve" smooth="yes"/>
      <point x="252" y="386"/>
      <point x="201" y="388"/>
      <point x="182" y="388" type="curve" smooth="yes"/>
      <point x="171" y="388"/>
      <point x="170" y="380"/>
      <point x="170" y="371" type="curve" smooth="yes"/>
      <point x="170" y="362"/>
      <point x="170" y="355"/>
      <point x="182" y="355" type="curve" smooth="yes"/>
      <point x="237" y="355" type="line" smooth="yes"/>
      <point x="244" y="355"/>
      <point x="243" y="352"/>
      <point x="242" y="344" type="curve"/>
      <point x="242" y="342"/>
      <point x="212" y="140"/>
      <point x="192" y="38" type="curve" smooth="yes"/>
      <point x="190" y="27"/>
      <point x="193" y="28"/>
      <point x="184" y="28" type="curve" smooth="yes"/>
      <point x="142" y="28" type="line" smooth="yes"/>
      <point x="128" y="28"/>
      <point x="127" y="22"/>
      <point x="127" y="12" type="curve" smooth="yes"/>
    </contour>
  </outline>
</glyph>
<glyph name="two" format="1">
  <advance width="500"/>
  <unicode hex="0032"/>
  <outline>
    <contour>
      <point x="51" y="3"/>
      <point x="57" y="-3"/>
      <point x="69" y="-3" type="curve" smooth="yes"/>
      <point x="395" y="-3" type="line" smooth="yes"/>
      <point x="402" y="-3"/>
      <point x="405" y="-1"/>
      <point x="407" y="5" type="curve"/>
      <point x="422" y="44"/>
      <point x="450" y="93"/>
      <point x="450" y="100" type="curve" smooth="yes"/>
      <point x="450" y="103"/>
      <point x="432" y="110"/>
      <point x="427" y="110" type="curve" smooth="yes"/>
      <point x="423" y="110"/>
      <point x="400" y="61"/>
      <point x="394" y="61" type="curve" smooth="yes"/>
      <point x="145" y="61" type="line"/>
      <point x="149" y="64"/>
      <point x="157" y="69"/>
      <point x="169" y="76" type="curve" smooth="yes"/>
      <point x="229" y="111"/>
      <point x="367" y="192"/>
      <point x="367" y="280" type="curve" smooth="yes"/>
      <point x="367" y="353"/>
      <point x="323" y="397"/>
      <point x="239" y="397" type="curve" smooth="yes"/>
      <point x="148" y="397"/>
      <point x="69" y="302"/>
      <point x="69" y="294" type="curve" smooth="yes"/>
      <point x="69" y="285"/>
      <point x="84" y="275"/>
      <point x="90" y="275" type="curve" smooth="yes"/>
      <point x="96" y="275"/>
      <point x="146" y="356"/>
      <point x="211" y="356" type="curve" smooth="yes"/>
      <point x="263" y="356"/>
      <point x="292" y="316"/>
      <point x="292" y="266" type="curve" smooth="yes"/>
      <point x="292" y="220"/>
      <point x="256" y="178"/>
      <point x="220" y="146" type="curve" smooth="yes"/>
      <point x="165" y="97"/>
      <point x="95" y="59"/>
      <point x="64" y="30" type="curve"/>
      <point x="59" y="26"/>
      <point x="51" y="19"/>
      <point x="51" y="11" type="curve" smooth="yes"/>
    </contour>
  </outline>
</glyph>
<glyph name="three" format="1">
  <advance width="500"/>
  <unicode hex="0033"/>
  <outline>
    <contour>
      <point x="53" y="-165"/>
      <point x="96" y="-217"/>
      <point x="195" y="-217" type="curve" smooth="yes"/>
      <point x="305" y="-217"/>
      <point x="418" y="-130"/>
      <point x="418" y="-21" type="curve" smooth="yes"/>
      <point x="418" y="107"/>
      <point x="296" y="125"/>
      <point x="268" y="131" type="curve"/>
      <point x="289" y="143"/>
      <point x="388" y="193"/>
      <point x="388" y="281" type="curve" smooth="yes"/>
      <point x="388" y="353"/>
      <point x="335" y="390"/>
      <point x="263" y="390" type="curve" smooth="yes"/>
      <point x="199" y="390"/>
      <point x="118" y="352"/>
      <point x="118" y="340" type="curve" smooth="yes"/>
      <point x="118" y="335"/>
      <point x="128" y="320"/>
      <point x="132" y="320" type="curve" smooth="yes"/>
      <point x="141" y="320"/>
      <point x="179" y="356"/>
      <point x="244" y="356" type="curve" smooth="yes"/>
      <point x="293" y="356"/>
      <point x="324" y="322"/>
      <point x="324" y="272" type="curve" smooth="yes"/>
      <point x="324" y="184"/>
      <point x="253" y="136"/>
      <point x="154" y="108" type="curve" smooth="yes"/>
      <point x="138" y="103"/>
      <point x="133" y="101"/>
      <point x="133" y="84" type="curve" smooth="yes"/>
      <point x="133" y="72"/>
      <point x="139" y="70"/>
      <point x="152" y="70" type="curve" smooth="yes"/>
      <point x="157" y="70"/>
      <point x="187" y="73"/>
      <point x="208" y="73" type="curve" smooth="yes"/>
      <point x="291" y="73"/>
      <point x="346" y="41"/>
      <point x="346" y="-35" type="curve" smooth="yes"/>
      <point x="346" y="-111"/>
      <point x="276" y="-186"/>
      <point x="205" y="-186" type="curve" smooth="yes"/>
      <point x="166" y="-186"/>
      <point x="138" y="-156"/>
      <point x="127" y="-143" type="curve"/>
      <point x="117" y="-132"/>
      <point x="101" y="-131"/>
      <point x="91" y="-131" type="curve" smooth="yes"/>
      <point x="83" y="-131"/>
      <point x="53" y="-131"/>
      <point x="53" y="-146" type="curve" smooth="yes"/>
    </contour>
  </outline>
</glyph>
<glyph name="four" format="1">
  <advance width="500"/>
  <unicode hex="0034"/>
  <outline>
    <contour>
      <point x="43" y="-3"/>
      <point x="57" y="-3"/>
      <point x="64" y="-3" type="curve" smooth="yes"/>
      <point x="262" y="-3" type="line" smooth="yes"/>
      <point x="271" y="-3"/>
      <point x="271" y="-4"/>
      <point x="270" y="-10" type="curve" smooth="yes"/>
      <point x="259" y="-69"/>
      <point x="235" y="-193"/>
      <point x="235" y="-197" type="curve" smooth="yes"/>
      <point x="235" y="-211"/>
      <point x="245" y="-215"/>
      <point x="252" y="-215" type="curve" smooth="yes"/>
      <point x="254" y="-215"/>
      <point x="296" y="-207"/>
      <point x="296" y="-207" type="curve"/>
      <point x="306" y="-205"/>
      <point x="311" y="-205"/>
      <point x="313" y="-192" type="curve"/>
      <point x="313" y="-189"/>
      <point x="330" y="-69"/>
      <point x="337" y="-8" type="curve"/>
      <point x="338" y="-3"/>
      <point x="336" y="-3"/>
      <point x="344" y="-3" type="curve" smooth="yes"/>
      <point x="443" y="-3" type="line" smooth="yes"/>
      <point x="455" y="-3"/>
      <point x="458" y="-1"/>
      <point x="458" y="10" type="curve" smooth="yes"/>
      <point x="458" y="44" type="line" smooth="yes"/>
      <point x="458" y="55"/>
      <point x="455" y="57"/>
      <point x="448" y="57" type="curve" smooth="yes"/>
      <point x="361" y="57" type="line" smooth="yes"/>
      <point x="350" y="57"/>
      <point x="351" y="62"/>
      <point x="353" y="72" type="curve" smooth="yes"/>
      <point x="403" y="368" type="line"/>
      <point x="404" y="372"/>
      <point x="404" y="375"/>
      <point x="404" y="378" type="curve" smooth="yes"/>
      <point x="404" y="390"/>
      <point x="399" y="395"/>
      <point x="390" y="395" type="curve" smooth="yes"/>
      <point x="374" y="395"/>
      <point x="293" y="309"/>
      <point x="285" y="300" type="curve"/>
      <point x="228" y="241"/>
      <point x="175" y="189"/>
      <point x="122" y="126" type="curve" smooth="yes"/>
      <point x="112" y="114"/>
      <point x="97" y="101"/>
      <point x="87" y="88" type="curve" smooth="yes"/>
      <point x="64" y="58"/>
      <point x="43" y="25"/>
      <point x="43" y="8" type="curve" smooth="yes"/>
    </contour>
    <contour>
      <point x="108" y="68"/>
      <point x="113" y="75"/>
      <point x="121" y="83" type="curve" smooth="yes"/>
      <point x="318" y="293" type="line" smooth="yes"/>
      <point x="320" y="295"/>
      <point x="323" y="297"/>
      <point x="324" y="297" type="curve" smooth="yes"/>
      <point x="325" y="297"/>
      <point x="326" y="295"/>
      <point x="325" y="291" type="curve"/>
      <point x="290" y="74" type="line" smooth="yes"/>
      <point x="287" y="58"/>
      <point x="285" y="57"/>
      <point x="274" y="57" type="curve" smooth="yes"/>
      <point x="127" y="57" type="line" smooth="yes"/>
      <point x="113" y="57"/>
      <point x="108" y="60"/>
      <point x="108" y="64" type="curve" smooth="yes"/>
    </contour>
  </outline>
</glyph>
<glyph name="five" format="1">
  <advance width="500"/>
  <unicode hex="0035"/>
  <outline>
    <contour>
      <point x="55" y="-208"/>
      <point x="59" y="-215"/>
      <point x="66" y="-215" type="curve" smooth="yes"/>
      <point x="186" y="-215"/>
      <point x="358" y="-133"/>
      <point x="358" y="9" type="curve" smooth="yes"/>
      <point x="358" y="147"/>
      <point x="165" y="213"/>
      <point x="165" y="223" type="curve" smooth="yes"/>
      <point x="165" y="228"/>
      <point x="183" y="281"/>
      <point x="199" y="314" type="curve" smooth="yes"/>
      <point x="202" y="320"/>
      <point x="214" y="320"/>
      <point x="224" y="319" type="curve" smooth="yes"/>
      <point x="303" y="309"/>
      <point x="372" y="297"/>
      <point x="386" y="297" type="curve" smooth="yes"/>
      <point x="403" y="297"/>
      <point x="404" y="305"/>
      <point x="409" y="318" type="curve" smooth="yes"/>
      <point x="418" y="342"/>
      <point x="434" y="383"/>
      <point x="434" y="387" type="curve" smooth="yes"/>
      <point x="434" y="395"/>
      <point x="416" y="398"/>
      <point x="410" y="398" type="curve" smooth="yes"/>
      <point x="407" y="398"/>
      <point x="401" y="382"/>
      <point x="396" y="372" type="curve" smooth="yes"/>
      <point x="392" y="364"/>
      <point x="390" y="366"/>
      <point x="373" y="366" type="curve" smooth="yes"/>
      <point x="361" y="366"/>
      <point x="212" y="381"/>
      <point x="203" y="381" type="curve" smooth="yes"/>
      <point x="197" y="381"/>
      <point x="190" y="381"/>
      <point x="187" y="373" type="curve"/>
      <point x="162" y="293"/>
      <point x="120" y="196"/>
      <point x="120" y="180" type="curve" smooth="yes"/>
      <point x="120" y="148"/>
      <point x="290" y="104"/>
      <point x="290" y="-5" type="curve" smooth="yes"/>
      <point x="290" y="-133"/>
      <point x="168" y="-178"/>
      <point x="65" y="-186" type="curve"/>
      <point x="58" y="-186"/>
      <point x="55" y="-191"/>
      <point x="55" y="-199" type="curve" smooth="yes"/>
    </contour>
  </outline>
</glyph>
<glyph name="six" format="1">
  <advance width="500"/>
  <unicode hex="0036"/>
  <outline>
    <contour>
      <point x="52" y="30"/>
      <point x="143" y="-8"/>
      <point x="222" y="-8" type="curve" smooth="yes"/>
      <point x="331" y="-8"/>
      <point x="426" y="67"/>
      <point x="426" y="191" type="curve" smooth="yes"/>
      <point x="426" y="305"/>
      <point x="356" y="367"/>
      <point x="251" y="367" type="curve" smooth="yes"/>
      <point x="215" y="367"/>
      <point x="188" y="360"/>
      <point x="162" y="356" type="curve"/>
      <point x="163" y="363"/>
      <point x="170" y="375"/>
      <point x="176" y="388" type="curve"/>
      <point x="199" y="433"/>
      <point x="251" y="503"/>
      <point x="310" y="560" type="curve" smooth="yes"/>
      <point x="348" y="597"/>
      <point x="389" y="619"/>
      <point x="439" y="639" type="curve"/>
      <point x="441" y="640"/>
      <point x="449" y="642"/>
      <point x="449" y="648" type="curve" smooth="yes"/>
      <point x="449" y="656"/>
      <point x="446" y="670"/>
      <point x="436" y="670" type="curve" smooth="yes"/>
      <point x="418" y="670"/>
      <point x="329" y="634"/>
      <point x="247" y="563" type="curve" smooth="yes"/>
      <point x="151" y="479"/>
      <point x="52" y="343"/>
      <point x="52" y="187" type="curve" smooth="yes"/>
    </contour>
    <contour>
      <point x="119" y="217"/>
      <point x="128" y="286"/>
      <point x="153" y="320" type="curve"/>
      <point x="159" y="329"/>
      <point x="212" y="340"/>
      <point x="234" y="340" type="curve" smooth="yes"/>
      <point x="329" y="340"/>
      <point x="351" y="271"/>
      <point x="351" y="197" type="curve" smooth="yes"/>
      <point x="351" y="109"/>
      <point x="304" y="27"/>
      <point x="233" y="27" type="curve" smooth="yes"/>
      <point x="142" y="27"/>
      <point x="119" y="122"/>
      <point x="119" y="173" type="curve" smooth="yes"/>
    </contour>
  </outline>
</glyph>
<glyph name="seven" format="1">
  <advance width="500"/>
  <unicode hex="0037"/>
  <outline>
    <contour>
      <point x="62" y="276"/>
      <point x="75" y="274"/>
      <point x="82" y="274" type="curve" smooth="yes"/>
      <point x="92" y="274"/>
      <point x="93" y="281"/>
      <point x="95" y="285" type="curve"/>
      <point x="108" y="325" type="line"/>
      <point x="114" y="329"/>
      <point x="161" y="332"/>
      <point x="190" y="332" type="curve" smooth="yes"/>
      <point x="383" y="332" type="line" smooth="yes"/>
      <point x="393" y="332"/>
      <point x="394" y="330"/>
      <point x="394" y="327" type="curve" smooth="yes"/>
      <point x="394" y="325"/>
      <point x="392" y="321"/>
      <point x="389" y="316" type="curve" smooth="yes"/>
      <point x="320" y="204"/>
      <point x="87" y="-125"/>
      <point x="87" y="-190" type="curve" smooth="yes"/>
      <point x="87" y="-204"/>
      <point x="107" y="-213"/>
      <point x="121" y="-213" type="curve" smooth="yes"/>
      <point x="129" y="-213"/>
      <point x="132" y="-207"/>
      <point x="136" y="-196" type="curve" smooth="yes"/>
      <point x="163" y="-123"/>
      <point x="207" y="-47"/>
      <point x="245" y="18" type="curve" smooth="yes"/>
      <point x="293" y="100"/>
      <point x="460" y="367"/>
      <point x="460" y="384" type="curve" smooth="yes"/>
      <point x="460" y="395"/>
      <point x="451" y="396"/>
      <point x="444" y="396" type="curve" smooth="yes"/>
      <point x="176" y="396" type="line" smooth="yes"/>
      <point x="153" y="396"/>
      <point x="135" y="396"/>
      <point x="128" y="397" type="curve"/>
      <point x="128" y="403"/>
      <point x="130" y="409"/>
      <point x="130" y="415" type="curve" smooth="yes"/>
      <point x="130" y="426"/>
      <point x="118" y="427"/>
      <point x="110" y="427" type="curve" smooth="yes"/>
      <point x="100" y="427"/>
      <point x="97" y="418"/>
      <point x="95" y="404" type="curve" smooth="yes"/>
      <point x="84" y="342"/>
      <point x="62" y="298"/>
      <point x="62" y="286" type="curve" smooth="yes"/>
    </contour>
  </outline>
</glyph>
<glyph name="eight" format="1">
  <advance width="500"/>
  <unicode hex="0038"/>
  <outline>
    <contour>
      <point x="67" y="37"/>
      <point x="130" y="-6"/>
      <point x="218" y="-6" type="curve" smooth="yes"/>
      <point x="320" y="-6"/>
      <point x="403" y="58"/>
      <point x="403" y="150" type="curve" smooth="yes"/>
      <point x="403" y="254"/>
      <point x="304" y="331"/>
      <point x="292" y="344" type="curve"/>
      <point x="304" y="357"/>
      <point x="423" y="427"/>
      <point x="423" y="527" type="curve" smooth="yes"/>
      <point x="423" y="615"/>
      <point x="365" y="664"/>
      <point x="283" y="664" type="curve" smooth="yes"/>
      <point x="180" y="664"/>
      <point x="108" y="596"/>
      <point x="108" y="500" type="curve" smooth="yes"/>
      <point x="108" y="411"/>
      <point x="195" y="342"/>
      <point x="207" y="329" type="curve"/>
      <point x="193" y="316"/>
      <point x="67" y="246"/>
      <point x="67" y="130" type="curve" smooth="yes"/>
    </contour>
    <contour>
      <point x="127" y="240"/>
      <point x="212" y="308"/>
      <point x="225" y="312" type="curve"/>
      <point x="237" y="306"/>
      <point x="338" y="215"/>
      <point x="338" y="140" type="curve" smooth="yes"/>
      <point x="338" y="80"/>
      <point x="291" y="25"/>
      <point x="227" y="25" type="curve" smooth="yes"/>
      <point x="176" y="25"/>
      <point x="127" y="70"/>
      <point x="127" y="145" type="curve" smooth="yes"/>
    </contour>
    <contour>
      <point x="167" y="581"/>
      <point x="202" y="635"/>
      <point x="269" y="635" type="curve" smooth="yes"/>
      <point x="330" y="635"/>
      <point x="368" y="587"/>
      <point x="368" y="525" type="curve" smooth="yes"/>
      <point x="368" y="438"/>
      <point x="284" y="366"/>
      <point x="271" y="362" type="curve"/>
      <point x="260" y="367"/>
      <point x="167" y="458"/>
      <point x="167" y="534" type="curve" smooth="yes"/>
    </contour>
  </outline>
</glyph>
<glyph name="nine" format="1">
  <advance width="500"/>
  <unicode hex="0039"/>
  <outline>
    <contour>
      <point x="39" y="-192"/>
      <point x="41" y="-208"/>
      <point x="51" y="-208" type="curve" smooth="yes"/>
      <point x="60" y="-208"/>
      <point x="197" y="-168"/>
      <point x="307" y="-75" type="curve" smooth="yes"/>
      <point x="386" y="-9"/>
      <point x="448" y="94"/>
      <point x="448" y="203" type="curve" smooth="yes"/>
      <point x="448" y="316"/>
      <point x="393" y="397"/>
      <point x="296" y="397" type="curve" smooth="yes"/>
      <point x="187" y="397"/>
      <point x="85" y="316"/>
      <point x="85" y="192" type="curve" smooth="yes"/>
      <point x="85" y="90"/>
      <point x="141" y="22"/>
      <point x="226" y="22" type="curve" smooth="yes"/>
      <point x="251" y="22"/>
      <point x="279" y="28"/>
      <point x="301" y="35" type="curve" smooth="yes"/>
      <point x="308" y="37"/>
      <point x="318" y="42"/>
      <point x="325" y="44" type="curve"/>
      <point x="323" y="39"/>
      <point x="317" y="28"/>
      <point x="307" y="16" type="curve" smooth="yes"/>
      <point x="244" y="-60"/>
      <point x="161" y="-138"/>
      <point x="73" y="-169" type="curve" smooth="yes"/>
      <point x="55" y="-175"/>
      <point x="39" y="-178"/>
      <point x="39" y="-185" type="curve" smooth="yes"/>
    </contour>
    <contour>
      <point x="150" y="262"/>
      <point x="204" y="365"/>
      <point x="295" y="365" type="curve" smooth="yes"/>
      <point x="346" y="365"/>
      <point x="384" y="322"/>
      <point x="384" y="240" type="curve" smooth="yes"/>
      <point x="384" y="165"/>
      <point x="359" y="82"/>
      <point x="326" y="68" type="curve" smooth="yes"/>
      <point x="305" y="59"/>
      <point x="284" y="55"/>
      <point x="253" y="55" type="curve" smooth="yes"/>
      <point x="181" y="55"/>
      <point x="150" y="105"/>
      <point x="150" y="173" type="curve" smooth="yes"/>
    </contour>
  </outline>
</glyph>
<glyph name="colon" format="1">
  <advance width="209"/>
  <unicode hex="003A"/>
  <outline>
    <contour>
      <point x="57" y="21"/>
      <point x="80" y="-11"/>
      <point x="110" y="-11" type="curve" smooth="yes"/>
      <point x="122" y="-11"/>
      <point x="153" y="6"/>
      <point x="153" y="43" type="curve" smooth="yes"/>
      <point x="153" y="65"/>
      <point x="126" y="93"/>
      <point x="106" y="93" type="curve" smooth="yes"/>
      <point x="85" y="93"/>
      <point x="57" y="66"/>
      <point x="57" y="38" type="curve" smooth="yes"/>
    </contour>
    <contour>
      <point x="86" y="296"/>
      <point x="109" y="264"/>
      <point x="139" y="264" type="curve" smooth="yes"/>
      <point x="151" y="264"/>
      <point x="182" y="281"/>
      <point x="182" y="318" type="curve" smooth="yes"/>
      <point x="182" y="340"/>
      <point x="155" y="368"/>
      <point x="135" y="368" type="curve" smooth="yes"/>
      <point x="114" y="368"/>
      <point x="86" y="341"/>
      <point x="86" y="313" type="curve" smooth="yes"/>
    </contour>
  </outline>
</glyph>
<glyph name="semicolon" format="1">
  <advance width="195"/>
  <unicode hex="003B"/>
  <outline>
    <contour>
      <point x="4" y="-134"/>
      <point x="16" y="-151"/>
      <point x="24" y="-151" type="curve" smooth="yes"/>
      <point x="32" y="-151"/>
      <point x="158" y="-49"/>
      <point x="158" y="16" type="curve" smooth="yes"/>
      <point x="158" y="67"/>
      <point x="112" y="99"/>
      <point x="98" y="99" type="curve" smooth="yes"/>
      <point x="81" y="99"/>
      <point x="41" y="79"/>
      <point x="41" y="68" type="curve" smooth="yes"/>
      <point x="41" y="61"/>
      <point x="66" y="41"/>
      <point x="81" y="22" type="curve" smooth="yes"/>
      <point x="91" y="9"/>
      <point x="95" y="-1"/>
      <point x="95" y="-11" type="curve" smooth="yes"/>
      <point x="95" y="-40"/>
      <point x="65" y="-71"/>
      <point x="48" y="-88" type="curve" smooth="yes"/>
      <point x="27" y="-108"/>
      <point x="4" y="-123"/>
      <point x="4" y="-126" type="curve" smooth="yes"/>
    </contour>
    <contour>
      <point x="77" y="296"/>
      <point x="100" y="264"/>
      <point x="130" y="264" type="curve" smooth="yes"/>
      <point x="142" y="264"/>
      <point x="173" y="281"/>
      <point x="173" y="318" type="curve" smooth="yes"/>
      <point x="173" y="340"/>
      <point x="146" y="368"/>
      <point x="126" y="368" type="curve" smooth="yes"/>
      <point x="105" y="368"/>
      <point x="77" y="341"/>
      <point x="77" y="313" type="curve" smooth="yes"/>
    </contour>
  </outline>
</glyph>
<glyph name="less" format="1">
  <advance width="527"/>
  <unicode hex="003C"/>
  <outline>
    <contour>
      <point x="38" y="197"/>
      <point x="39" y="190"/>
      <point x="54" y="185" type="curve" smooth="yes"/>
      <point x="459" y="38"/>
      <point x="455" y="38"/>
      <point x="463" y="38" type="curve" smooth="yes"/>
      <point x="483" y="38"/>
      <point x="490" y="56"/>
      <point x="490" y="65" type="curve" smooth="yes"/>
      <point x="490" y="74"/>
      <point x="484" y="79"/>
      <point x="477" y="81" type="curve"/>
      <point x="157" y="193" type="line" smooth="yes"/>
      <point x="140" y="199"/>
      <point x="121" y="204"/>
      <point x="117" y="208" type="curve"/>
      <point x="121" y="212"/>
      <point x="140" y="220"/>
      <point x="157" y="226" type="curve" smooth="yes"/>
      <point x="472" y="337" type="line" smooth="yes"/>
      <point x="480" y="340"/>
      <point x="490" y="345"/>
      <point x="490" y="356" type="curve" smooth="yes"/>
      <point x="490" y="378"/>
      <point x="478" y="384"/>
      <point x="468" y="384" type="curve" smooth="yes"/>
      <point x="460" y="384"/>
      <point x="462" y="382"/>
      <point x="55" y="234" type="curve" smooth="yes"/>
      <point x="39" y="228"/>
      <point x="38" y="221"/>
      <point x="38" y="211" type="curve" smooth="yes"/>
    </contour>
  </outline>
</glyph>
<glyph name="greater" format="1">
  <advance width="527"/>
  <unicode hex="003E"/>
  <outline>
    <contour>
      <point x="38" y="56"/>
      <point x="44" y="38"/>
      <point x="64" y="38" type="curve" smooth="yes"/>
      <point x="72" y="38"/>
      <point x="68" y="38"/>
      <point x="473" y="185" type="curve" smooth="yes"/>
      <point x="488" y="190"/>
      <point x="490" y="197"/>
      <point x="490" y="211" type="curve" smooth="yes"/>
      <point x="490" y="222"/>
      <point x="488" y="228"/>
      <point x="472" y="234" type="curve" smooth="yes"/>
      <point x="65" y="382"/>
      <point x="67" y="384"/>
      <point x="59" y="384" type="curve" smooth="yes"/>
      <point x="48" y="384"/>
      <point x="38" y="378"/>
      <point x="38" y="356" type="curve" smooth="yes"/>
      <point x="38" y="345"/>
      <point x="47" y="340"/>
      <point x="55" y="337" type="curve" smooth="yes"/>
      <point x="371" y="226" type="line" smooth="yes"/>
      <point x="387" y="220"/>
      <point x="406" y="213"/>
      <point x="411" y="208" type="curve"/>
      <point x="408" y="205"/>
      <point x="389" y="199"/>
      <point x="371" y="193" type="curve" smooth="yes"/>
      <point x="50" y="81" type="line"/>
      <point x="43" y="79"/>
      <point x="38" y="73"/>
      <point x="38" y="65" type="curve" smooth="yes"/>
    </contour>
  </outline>
</glyph>
<glyph name="question" format="1">
  <advance width="374"/>
  <unicode hex="003F"/>
  <outline>
    <contour>
      <point x="77" y="21"/>
      <point x="100" y="-11"/>
      <point x="130" y="-11" type="curve" smooth="yes"/>
      <point x="142" y="-11"/>
      <point x="173" y="6"/>
      <point x="173" y="43" type="curve" smooth="yes"/>
      <point x="173" y="65"/>
      <point x="146" y="93"/>
      <point x="126" y="93" type="curve" smooth="yes"/>
      <point x="105" y="93"/>
      <point x="77" y="66"/>
      <point x="77" y="38" type="curve" smooth="yes"/>
    </contour>
    <contour>
      <point x="81" y="165"/>
      <point x="124" y="123"/>
      <point x="132" y="123" type="curve" smooth="yes"/>
      <point x="137" y="123"/>
      <point x="149" y="135"/>
      <point x="149" y="139" type="curve" smooth="yes"/>
      <point x="149" y="144"/>
      <point x="121" y="167"/>
      <point x="121" y="192" type="curve" smooth="yes"/>
      <point x="121" y="218"/>
      <point x="167" y="256"/>
      <point x="187" y="276" type="curve" smooth="yes"/>
      <point x="223" y="312"/>
      <point x="251" y="337"/>
      <point x="292" y="383" type="curve" smooth="yes"/>
      <point x="322" y="417"/>
      <point x="342" y="434"/>
      <point x="342" y="501" type="curve" smooth="yes"/>
      <point x="342" y="554"/>
      <point x="314" y="611"/>
      <point x="269" y="641" type="curve" smooth="yes"/>
      <point x="255" y="650"/>
      <point x="232" y="660"/>
      <point x="177" y="660" type="curve" smooth="yes"/>
      <point x="160" y="660"/>
      <point x="131" y="658"/>
      <point x="113" y="655" type="curve" smooth="yes"/>
      <point x="99" y="653"/>
      <point x="92" y="652"/>
      <point x="92" y="636" type="curve" smooth="yes"/>
      <point x="92" y="626" type="line" smooth="yes"/>
      <point x="92" y="611"/>
      <point x="93" y="594"/>
      <point x="107" y="594" type="curve" smooth="yes"/>
      <point x="116" y="594"/>
      <point x="165" y="597"/>
      <point x="187" y="597" type="curve" smooth="yes"/>
      <point x="223" y="597"/>
      <point x="253" y="596"/>
      <point x="274" y="583" type="curve" smooth="yes"/>
      <point x="292" y="572"/>
      <point x="310" y="543"/>
      <point x="310" y="515" type="curve" smooth="yes"/>
      <point x="310" y="462"/>
      <point x="215" y="385"/>
      <point x="147" y="317" type="curve" smooth="yes"/>
      <point x="110" y="280"/>
      <point x="81" y="246"/>
      <point x="81" y="206" type="curve" smooth="yes"/>
    </contour>
  </outline>
</glyph>
<glyph name="at" format="1">
  <advance width="795"/>
  <unicode hex="0040"/>
  <outline>
    <contour>
      <point x="47" y="-10"/>
      <point x="195" y="-116"/>
      <point x="353" y="-116" type="curve" smooth="yes"/>
      <point x="484" y="-116"/>
      <point x="607" y="-66"/>
      <point x="691" y="25" type="curve"/>
      <point x="695" y="29"/>
      <point x="697" y="32"/>
      <point x="697" y="36" type="curve" smooth="yes"/>
      <point x="697" y="40"/>
      <point x="690" y="56"/>
      <point x="679" y="56" type="curve" smooth="yes"/>
      <point x="674" y="56"/>
      <point x="665" y="47"/>
      <point x="664" y="46" type="curve"/>
      <point x="580" y="-32"/>
      <point x="492" y="-81"/>
      <point x="356" y="-81" type="curve" smooth="yes"/>
      <point x="215" y="-81"/>
      <point x="87" y="19"/>
      <point x="87" y="181" type="curve" smooth="yes"/>
      <point x="87" y="399"/>
      <point x="268" y="557"/>
      <point x="471" y="557" type="curve" smooth="yes"/>
      <point x="610" y="557"/>
      <point x="712" y="490"/>
      <point x="712" y="337" type="curve" smooth="yes"/>
      <point x="712" y="279"/>
      <point x="686" y="221"/>
      <point x="645" y="180" type="curve" smooth="yes"/>
      <point x="585" y="120"/>
      <point x="513" y="87"/>
      <point x="459" y="87" type="curve" smooth="yes"/>
      <point x="442" y="87"/>
      <point x="442" y="98"/>
      <point x="442" y="115" type="curve" smooth="yes"/>
      <point x="442" y="147"/>
      <point x="526" y="336"/>
      <point x="552" y="392" type="curve"/>
      <point x="554" y="397"/>
      <point x="555" y="403"/>
      <point x="555" y="407" type="curve" smooth="yes"/>
      <point x="555" y="420"/>
      <point x="540" y="423"/>
      <point x="527" y="423" type="curve" smooth="yes"/>
      <point x="512" y="423"/>
      <point x="507" y="418"/>
      <point x="497" y="406" type="curve" smooth="yes"/>
      <point x="490" y="397"/>
      <point x="487" y="393"/>
      <point x="485" y="392" type="curve"/>
      <point x="483" y="392"/>
      <point x="468" y="398"/>
      <point x="454" y="398" type="curve" smooth="yes"/>
      <point x="309" y="398"/>
      <point x="201" y="206"/>
      <point x="201" y="139" type="curve" smooth="yes"/>
      <point x="201" y="96"/>
      <point x="220" y="53"/>
      <point x="262" y="53" type="curve" smooth="yes"/>
      <point x="309" y="53"/>
      <point x="357" y="96"/>
      <point x="375" y="114" type="curve"/>
      <point x="373" y="103"/>
      <point x="371" y="86"/>
      <point x="371" y="76" type="curve" smooth="yes"/>
      <point x="371" y="57"/>
      <point x="391" y="51"/>
      <point x="409" y="51" type="curve" smooth="yes"/>
      <point x="557" y="51"/>
      <point x="748" y="150"/>
      <point x="748" y="344" type="curve" smooth="yes"/>
      <point x="748" y="526"/>
      <point x="611" y="591"/>
      <point x="468" y="591" type="curve" smooth="yes"/>
      <point x="259" y="591"/>
      <point x="47" y="417"/>
      <point x="47" y="187" type="curve" smooth="yes"/>
    </contour>
    <contour>
      <point x="274" y="255"/>
      <point x="381" y="371"/>
      <point x="428" y="371" type="curve" smooth="yes"/>
      <point x="442" y="371"/>
      <point x="457" y="362"/>
      <point x="457" y="350" type="curve" smooth="yes"/>
      <point x="457" y="323"/>
      <point x="378" y="104"/>
      <point x="313" y="104" type="curve" smooth="yes"/>
      <point x="289" y="104"/>
      <point x="274" y="125"/>
      <point x="274" y="147" type="curve" smooth="yes"/>
    </contour>
  </outline>
</glyph>
<glyph name="A" format="1">
  <advance width="688"/>
  <unicode hex="0041"/>
  <outline>
    <contour>
      <point x="17" y="-2"/>
      <point x="19" y="-6"/>
      <point x="33" y="-6" type="curve" smooth="yes"/>
      <point x="45" y="-6"/>
      <point x="77" y="-3"/>
      <point x="107" y="-3" type="curve" smooth="yes"/>
      <point x="152" y="-3"/>
      <point x="186" y="-6"/>
      <point x="209" y="-6" type="curve" smooth="yes"/>
      <point x="221" y="-6"/>
      <point x="223" y="-1"/>
      <point x="223" y="14" type="curve" smooth="yes"/>
      <point x="223" y="26"/>
      <point x="221" y="30"/>
      <point x="209" y="30" type="curve" smooth="yes"/>
      <point x="143" y="30" type="line"/>
      <point x="150" y="54"/>
      <point x="240" y="220"/>
      <point x="264" y="265" type="curve" smooth="yes"/>
      <point x="271" y="278"/>
      <point x="272" y="278"/>
      <point x="284" y="278" type="curve" smooth="yes"/>
      <point x="477" y="278" type="line" smooth="yes"/>
      <point x="486" y="278"/>
      <point x="486" y="277"/>
      <point x="488" y="262" type="curve"/>
      <point x="491" y="229"/>
      <point x="516" y="78"/>
      <point x="516" y="38" type="curve" smooth="yes"/>
      <point x="516" y="30" type="line"/>
      <point x="460" y="30" type="line" smooth="yes"/>
      <point x="444" y="30"/>
      <point x="439" y="29"/>
      <point x="439" y="15" type="curve" smooth="yes"/>
      <point x="439" y="-2"/>
      <point x="441" y="-6"/>
      <point x="455" y="-6" type="curve" smooth="yes"/>
      <point x="478" y="-6"/>
      <point x="537" y="-3"/>
      <point x="567" y="-3" type="curve" smooth="yes"/>
      <point x="597" y="-3"/>
      <point x="642" y="-6"/>
      <point x="657" y="-6" type="curve" smooth="yes"/>
      <point x="669" y="-6"/>
      <point x="671" y="-1"/>
      <point x="671" y="14" type="curve" smooth="yes"/>
      <point x="671" y="26"/>
      <point x="669" y="30"/>
      <point x="657" y="30" type="curve" smooth="yes"/>
      <point x="616" y="30" type="line"/>
      <point x="601" y="60"/>
      <point x="521" y="556"/>
      <point x="502" y="669" type="curve"/>
      <point x="501" y="678"/>
      <point x="500" y="690"/>
      <point x="486" y="690" type="curve" smooth="yes"/>
      <point x="477" y="690"/>
      <point x="472" y="682"/>
      <point x="468" y="674" type="curve" smooth="yes"/>
      <point x="451" y="642"/>
      <point x="432" y="632"/>
      <point x="418" y="612" type="curve" smooth="yes"/>
      <point x="338" y="494"/>
      <point x="90" y="54"/>
      <point x="70" y="30" type="curve"/>
      <point x="38" y="30" type="line" smooth="yes"/>
      <point x="22" y="30"/>
      <point x="17" y="29"/>
      <point x="17" y="15" type="curve" smooth="yes"/>
    </contour>
    <contour>
      <point x="287" y="312"/>
      <point x="290" y="318"/>
      <point x="294" y="325" type="curve" smooth="yes"/>
      <point x="310" y="353"/>
      <point x="434" y="573"/>
      <point x="435" y="573" type="curve" smooth="yes"/>
      <point x="438" y="573"/>
      <point x="479" y="323"/>
      <point x="479" y="310" type="curve" smooth="yes"/>
      <point x="479" y="309"/>
      <point x="479" y="308"/>
      <point x="469" y="308" type="curve" smooth="yes"/>
      <point x="302" y="308" type="line" smooth="yes"/>
      <point x="289" y="308"/>
      <point x="287" y="310"/>
      <point x="287" y="311" type="curve" smooth="yes"/>
    </contour>
  </outline>
</glyph>
<glyph name="F" format="1">
  <advance width="541"/>
  <unicode hex="0046"/>
  <outline>
    <contour>
      <point x="17" y="-2"/>
      <point x="18" y="-6"/>
      <point x="32" y="-6" type="curve" smooth="yes"/>
      <point x="55" y="-6"/>
      <point x="107" y="-3"/>
      <point x="137" y="-3" type="curve" smooth="yes"/>
      <point x="167" y="-3"/>
      <point x="216" y="-6"/>
      <point x="239" y="-6" type="curve" smooth="yes"/>
      <point x="251" y="-6"/>
      <point x="251" y="-1"/>
      <point x="251" y="14" type="curve" smooth="yes"/>
      <point x="251" y="26"/>
      <point x="251" y="30"/>
      <point x="239" y="30" type="curve" smooth="yes"/>
      <point x="172" y="30" type="line" smooth="yes"/>
      <point x="167" y="30"/>
      <point x="166" y="32"/>
      <point x="167" y="36" type="curve"/>
      <point x="172" y="80"/>
      <point x="203" y="298"/>
      <point x="206" y="314" type="curve"/>
      <point x="208" y="322"/>
      <point x="208" y="322"/>
      <point x="223" y="322" type="curve" smooth="yes"/>
      <point x="366" y="322" type="line" smooth="yes"/>
      <point x="409" y="322"/>
      <point x="413" y="318"/>
      <point x="413" y="311" type="curve" smooth="yes"/>
      <point x="413" y="308"/>
      <point x="406" y="266"/>
      <point x="404" y="253" type="curve"/>
      <point x="403" y="243"/>
      <point x="416" y="243"/>
      <point x="424" y="243" type="curve" smooth="yes"/>
      <point x="431" y="243"/>
      <point x="439" y="245"/>
      <point x="440" y="252" type="curve" smooth="yes"/>
      <point x="442" y="265"/>
      <point x="446" y="299"/>
      <point x="452" y="331" type="curve" smooth="yes"/>
      <point x="459" y="369"/>
      <point x="466" y="399"/>
      <point x="466" y="409" type="curve" smooth="yes"/>
      <point x="466" y="417"/>
      <point x="456" y="418"/>
      <point x="450" y="418" type="curve" smooth="yes"/>
      <point x="443" y="418"/>
      <point x="432" y="418"/>
      <point x="431" y="409" type="curve"/>
      <point x="423" y="366" type="line" smooth="yes"/>
      <point x="421" y="357"/>
      <point x="399" y="355"/>
      <point x="379" y="355" type="curve" smooth="yes"/>
      <point x="223" y="355" type="line" smooth="yes"/>
      <point x="210" y="355"/>
      <point x="211" y="355"/>
      <point x="211" y="359" type="curve" smooth="yes"/>
      <point x="211" y="361"/>
      <point x="211" y="364"/>
      <point x="212" y="368" type="curve"/>
      <point x="217" y="403"/>
      <point x="245" y="611"/>
      <point x="252" y="635" type="curve"/>
      <point x="352" y="635"/>
      <point x="466" y="632"/>
      <point x="484" y="629" type="curve"/>
      <point x="483" y="617"/>
      <point x="479" y="563"/>
      <point x="479" y="558" type="curve" smooth="yes"/>
      <point x="479" y="547"/>
      <point x="478" y="541"/>
      <point x="496" y="541" type="curve" smooth="yes"/>
      <point x="512" y="541"/>
      <point x="515" y="544"/>
      <point x="515" y="554" type="curve" smooth="yes"/>
      <point x="517" y="623"/>
      <point x="524" y="671"/>
      <point x="524" y="679" type="curve" smooth="yes"/>
      <point x="524" y="693"/>
      <point x="520" y="693"/>
      <point x="504" y="693" type="curve" smooth="yes"/>
      <point x="495" y="693"/>
      <point x="490" y="692"/>
      <point x="488" y="678" type="curve" smooth="yes"/>
      <point x="487" y="669"/>
      <point x="490" y="668"/>
      <point x="422" y="668" type="curve" smooth="yes"/>
      <point x="379" y="668"/>
      <point x="266" y="665"/>
      <point x="213" y="665" type="curve" smooth="yes"/>
      <point x="178" y="665"/>
      <point x="106" y="668"/>
      <point x="99" y="668" type="curve" smooth="yes"/>
      <point x="90" y="668"/>
      <point x="84" y="664"/>
      <point x="84" y="651" type="curve" smooth="yes"/>
      <point x="84" y="634"/>
      <point x="94" y="633"/>
      <point x="106" y="633" type="curve" smooth="yes"/>
      <point x="160" y="633" type="line"/>
      <point x="160" y="633"/>
      <point x="161" y="630"/>
      <point x="161" y="626" type="curve" smooth="yes"/>
      <point x="161" y="550"/>
      <point x="84" y="70"/>
      <point x="78" y="30" type="curve"/>
      <point x="36" y="30" type="line" smooth="yes"/>
      <point x="20" y="30"/>
      <point x="17" y="29"/>
      <point x="17" y="15" type="curve" smooth="yes"/>
    </contour>
  </outline>
</glyph>
<glyph name="H" format="1">
  <advance width="795"/>
  <unicode hex="0048"/>
  <outline>
    <contour>
      <point x="17" y="0"/>
      <point x="18" y="-6"/>
      <point x="32" y="-6" type="curve" smooth="yes"/>
      <point x="55" y="-6"/>
      <point x="106" y="-3"/>
      <point x="136" y="-3" type="curve" smooth="yes"/>
      <point x="166" y="-3"/>
      <point x="226" y="-6"/>
      <point x="249" y="-6" type="curve" smooth="yes"/>
      <point x="261" y="-6"/>
      <point x="263" y="-1"/>
      <point x="263" y="14" type="curve" smooth="yes"/>
      <point x="263" y="26"/>
      <point x="261" y="30"/>
      <point x="249" y="30" type="curve" smooth="yes"/>
      <point x="190" y="30" type="line" smooth="yes"/>
      <point x="187" y="30"/>
      <point x="185" y="32"/>
      <point x="185" y="40" type="curve" smooth="yes"/>
      <point x="185" y="65"/>
      <point x="200" y="185"/>
      <point x="217" y="310" type="curve" smooth="yes"/>
      <point x="219" y="323"/>
      <point x="220" y="323"/>
      <point x="231" y="323" type="curve" smooth="yes"/>
      <point x="569" y="323" type="line" smooth="yes"/>
      <point x="578" y="323"/>
      <point x="578" y="321"/>
      <point x="577" y="314" type="curve" smooth="yes"/>
      <point x="558" y="179"/>
      <point x="540" y="48"/>
      <point x="534" y="30" type="curve"/>
      <point x="483" y="30" type="line" smooth="yes"/>
      <point x="467" y="30"/>
      <point x="462" y="29"/>
      <point x="462" y="15" type="curve" smooth="yes"/>
      <point x="462" y="-2"/>
      <point x="465" y="-6"/>
      <point x="479" y="-6" type="curve" smooth="yes"/>
      <point x="502" y="-6"/>
      <point x="544" y="-3"/>
      <point x="574" y="-3" type="curve" smooth="yes"/>
      <point x="604" y="-3"/>
      <point x="665" y="-6"/>
      <point x="688" y="-6" type="curve" smooth="yes"/>
      <point x="700" y="-6"/>
      <point x="702" y="-1"/>
      <point x="702" y="14" type="curve" smooth="yes"/>
      <point x="702" y="26"/>
      <point x="700" y="30"/>
      <point x="688" y="30" type="curve" smooth="yes"/>
      <point x="631" y="30" type="line" smooth="yes"/>
      <point x="628" y="30"/>
      <point x="626" y="32"/>
      <point x="626" y="40" type="curve" smooth="yes"/>
      <point x="626" y="51"/>
      <point x="691" y="603"/>
      <point x="708" y="636" type="curve"/>
      <point x="757" y="636" type="line" smooth="yes"/>
      <point x="773" y="636"/>
      <point x="778" y="637"/>
      <point x="778" y="651" type="curve" smooth="yes"/>
      <point x="778" y="668"/>
      <point x="775" y="672"/>
      <point x="761" y="672" type="curve" smooth="yes"/>
      <point x="738" y="672"/>
      <point x="691" y="669"/>
      <point x="661" y="669" type="curve" smooth="yes"/>
      <point x="631" y="669"/>
      <point x="568" y="672"/>
      <point x="552" y="672" type="curve" smooth="yes"/>
      <point x="539" y="672"/>
      <point x="532" y="671"/>
      <point x="532" y="654" type="curve" smooth="yes"/>
      <point x="532" y="639"/>
      <point x="537" y="636"/>
      <point x="545" y="636" type="curve" smooth="yes"/>
      <point x="608" y="636" type="line" smooth="yes"/>
      <point x="613" y="636"/>
      <point x="614" y="636"/>
      <point x="614" y="623" type="curve" smooth="yes"/>
      <point x="614" y="602"/>
      <point x="601" y="486"/>
      <point x="584" y="362" type="curve" smooth="yes"/>
      <point x="583" y="354"/>
      <point x="580" y="353"/>
      <point x="573" y="353" type="curve" smooth="yes"/>
      <point x="235" y="353" type="line" smooth="yes"/>
      <point x="223" y="353"/>
      <point x="225" y="359"/>
      <point x="226" y="369" type="curve"/>
      <point x="245" y="499"/>
      <point x="264" y="621"/>
      <point x="271" y="636" type="curve"/>
      <point x="320" y="636" type="line" smooth="yes"/>
      <point x="336" y="636"/>
      <point x="341" y="637"/>
      <point x="341" y="651" type="curve" smooth="yes"/>
      <point x="341" y="668"/>
      <point x="338" y="672"/>
      <point x="324" y="672" type="curve" smooth="yes"/>
      <point x="301" y="672"/>
      <point x="253" y="669"/>
      <point x="223" y="669" type="curve" smooth="yes"/>
      <point x="193" y="669"/>
      <point x="129" y="672"/>
      <point x="113" y="672" type="curve" smooth="yes"/>
      <point x="100" y="672"/>
      <point x="95" y="671"/>
      <point x="95" y="654" type="curve" smooth="yes"/>
      <point x="95" y="639"/>
      <point x="98" y="636"/>
      <point x="106" y="636" type="curve" smooth="yes"/>
      <point x="171" y="636" type="line" smooth="yes"/>
      <point x="175" y="636"/>
      <point x="177" y="633"/>
      <point x="177" y="623" type="curve" smooth="yes"/>
      <point x="177" y="587"/>
      <point x="103" y="65"/>
      <point x="89" y="30" type="curve"/>
      <point x="36" y="30" type="line" smooth="yes"/>
      <point x="19" y="30"/>
      <point x="17" y="26"/>
      <point x="17" y="13" type="curve" smooth="yes"/>
    </contour>
  </outline>
</glyph>
<glyph name="M" format="1">
  <advance width="883"/>
  <unicode hex="004D"/>
  <outline>
    <contour>
      <point x="17" y="-2"/>
      <point x="20" y="-6"/>
      <point x="34" y="-6" type="curve" smooth="yes"/>
      <point x="48" y="-6"/>
      <point x="76" y="-3"/>
      <point x="106" y="-3" type="curve" smooth="yes"/>
      <point x="136" y="-3"/>
      <point x="184" y="-6"/>
      <point x="194" y="-6" type="curve" smooth="yes"/>
      <point x="206" y="-6"/>
      <point x="208" y="-1"/>
      <point x="208" y="14" type="curve" smooth="yes"/>
      <point x="208" y="26"/>
      <point x="206" y="30"/>
      <point x="194" y="30" type="curve" smooth="yes"/>
      <point x="132" y="30" type="line"/>
      <point x="134" y="61"/>
      <point x="165" y="233"/>
      <point x="195" y="376" type="curve" smooth="yes"/>
      <point x="210" y="451"/>
      <point x="225" y="517"/>
      <point x="248" y="604" type="curve"/>
      <point x="262" y="533"/>
      <point x="333" y="181"/>
      <point x="356" y="36" type="curve" smooth="yes"/>
      <point x="359" y="17"/>
      <point x="368" y="12"/>
      <point x="375" y="12" type="curve" smooth="yes"/>
      <point x="380" y="12"/>
      <point x="384" y="14"/>
      <point x="393" y="25" type="curve" smooth="yes"/>
      <point x="429" y="72"/>
      <point x="448" y="77"/>
      <point x="469" y="123" type="curve" smooth="yes"/>
      <point x="566" y="329"/>
      <point x="628" y="442"/>
      <point x="714" y="606" type="curve"/>
      <point x="705" y="518"/>
      <point x="657" y="55"/>
      <point x="638" y="30" type="curve"/>
      <point x="600" y="30" type="line" smooth="yes"/>
      <point x="584" y="30"/>
      <point x="579" y="29"/>
      <point x="579" y="15" type="curve" smooth="yes"/>
      <point x="579" y="-2"/>
      <point x="582" y="-6"/>
      <point x="596" y="-6" type="curve" smooth="yes"/>
      <point x="605" y="-6"/>
      <point x="662" y="-3"/>
      <point x="692" y="-3" type="curve" smooth="yes"/>
      <point x="722" y="-3"/>
      <point x="791" y="-6"/>
      <point x="814" y="-6" type="curve" smooth="yes"/>
      <point x="826" y="-6"/>
      <point x="828" y="-1"/>
      <point x="828" y="14" type="curve" smooth="yes"/>
      <point x="828" y="27"/>
      <point x="824" y="30"/>
      <point x="812" y="30" type="curve" smooth="yes"/>
      <point x="738" y="30" type="line"/>
      <point x="740" y="93"/>
      <point x="797" y="595"/>
      <point x="802" y="636" type="curve"/>
      <point x="845" y="636" type="line" smooth="yes"/>
      <point x="861" y="636"/>
      <point x="866" y="637"/>
      <point x="866" y="651" type="curve" smooth="yes"/>
      <point x="866" y="668"/>
      <point x="863" y="672"/>
      <point x="849" y="672" type="curve" smooth="yes"/>
      <point x="826" y="672"/>
      <point x="794" y="669"/>
      <point x="764" y="669" type="curve" smooth="yes"/>
      <point x="720" y="669" type="line" smooth="yes"/>
      <point x="707" y="669"/>
      <point x="702" y="664"/>
      <point x="696" y="653" type="curve" smooth="yes"/>
      <point x="602" y="480"/>
      <point x="526" y="319"/>
      <point x="444" y="148" type="curve" smooth="yes"/>
      <point x="439" y="137"/>
      <point x="435" y="130"/>
      <point x="432" y="130" type="curve" smooth="yes"/>
      <point x="429" y="130"/>
      <point x="427" y="135"/>
      <point x="424" y="148" type="curve" smooth="yes"/>
      <point x="323" y="657" type="line" smooth="yes"/>
      <point x="320" y="672"/>
      <point x="310" y="672"/>
      <point x="300" y="672" type="curve" smooth="yes"/>
      <point x="293" y="672"/>
      <point x="275" y="669"/>
      <point x="253" y="669" type="curve" smooth="yes"/>
      <point x="232" y="669"/>
      <point x="162" y="672"/>
      <point x="148" y="672" type="curve" smooth="yes"/>
      <point x="136" y="672"/>
      <point x="134" y="667"/>
      <point x="134" y="652" type="curve" smooth="yes"/>
      <point x="134" y="640"/>
      <point x="136" y="636"/>
      <point x="148" y="636" type="curve" smooth="yes"/>
      <point x="194" y="636" type="line" smooth="yes"/>
      <point x="214" y="636"/>
      <point x="216" y="635"/>
      <point x="216" y="631" type="curve" smooth="yes"/>
      <point x="216" y="619"/>
      <point x="115" y="173"/>
      <point x="84" y="30" type="curve"/>
      <point x="38" y="30" type="line" smooth="yes"/>
      <point x="22" y="30"/>
      <point x="17" y="29"/>
      <point x="17" y="15" type="curve" smooth="yes"/>
    </contour>
  </outline>
</glyph>
<glyph name="O" format="1">
  <advance width="734"/>
  <unicode hex="004F"/>
  <outline>
    <contour>
      <point x="32" y="64"/>
      <point x="173" y="-25"/>
      <point x="334" y="-25" type="curve" smooth="yes"/>
      <point x="539" y="-25"/>
      <point x="702" y="146"/>
      <point x="702" y="348" type="curve" smooth="yes"/>
      <point x="702" y="543"/>
      <point x="590" y="676"/>
      <point x="407" y="676" type="curve" smooth="yes"/>
      <point x="224" y="676"/>
      <point x="32" y="521"/>
      <point x="32" y="280" type="curve" smooth="yes"/>
    </contour>
    <contour>
      <point x="130" y="462"/>
      <point x="267" y="642"/>
      <point x="410" y="642" type="curve" smooth="yes"/>
      <point x="551" y="642"/>
      <point x="605" y="484"/>
      <point x="605" y="373" type="curve" smooth="yes"/>
      <point x="605" y="213"/>
      <point x="506" y="5"/>
      <point x="351" y="5" type="curve" smooth="yes"/>
      <point x="195" y="5"/>
      <point x="130" y="148"/>
      <point x="130" y="286" type="curve" smooth="yes"/>
    </contour>
  </outline>
</glyph>
<glyph name="P" format="1">
  <advance width="570"/>
  <unicode hex="0050"/>
  <outline>
    <contour>
      <point x="17" y="-2"/>
      <point x="20" y="-6"/>
      <point x="34" y="-6" type="curve" smooth="yes"/>
      <point x="57" y="-6"/>
      <point x="107" y="-3"/>
      <point x="137" y="-3" type="curve" smooth="yes"/>
      <point x="167" y="-3"/>
      <point x="216" y="-6"/>
      <point x="239" y="-6" type="curve" smooth="yes"/>
      <point x="251" y="-6"/>
      <point x="251" y="-1"/>
      <point x="251" y="14" type="curve" smooth="yes"/>
      <point x="251" y="26"/>
      <point x="251" y="30"/>
      <point x="239" y="30" type="curve" smooth="yes"/>
      <point x="172" y="30" type="line" smooth="yes"/>
      <point x="167" y="30"/>
      <point x="166" y="32"/>
      <point x="167" y="36" type="curve"/>
      <point x="172" y="80"/>
      <point x="196" y="278"/>
      <point x="200" y="294" type="curve"/>
      <point x="201" y="300"/>
      <point x="203" y="301"/>
      <point x="215" y="301" type="curve" smooth="yes"/>
      <point x="225" y="301"/>
      <point x="264" y="299"/>
      <point x="291" y="299" type="curve" smooth="yes"/>
      <point x="407" y="299"/>
      <point x="538" y="342"/>
      <point x="538" y="496" type="curve" smooth="yes"/>
      <point x="538" y="596"/>
      <point x="462" y="670"/>
      <point x="325" y="670" type="curve" smooth="yes"/>
      <point x="307" y="670"/>
      <point x="238" y="665"/>
      <point x="208" y="665" type="curve" smooth="yes"/>
      <point x="173" y="665"/>
      <point x="104" y="668"/>
      <point x="97" y="668" type="curve" smooth="yes"/>
      <point x="88" y="668"/>
      <point x="84" y="664"/>
      <point x="84" y="651" type="curve" smooth="yes"/>
      <point x="84" y="634"/>
      <point x="92" y="633"/>
      <point x="104" y="633" type="curve" smooth="yes"/>
      <point x="160" y="633" type="line"/>
      <point x="160" y="633"/>
      <point x="161" y="630"/>
      <point x="161" y="626" type="curve" smooth="yes"/>
      <point x="161" y="598"/>
      <point x="84" y="72"/>
      <point x="78" y="30" type="curve"/>
      <point x="38" y="30" type="line" smooth="yes"/>
      <point x="22" y="30"/>
      <point x="17" y="29"/>
      <point x="17" y="15" type="curve" smooth="yes"/>
    </contour>
    <contour>
      <point x="205" y="339"/>
      <point x="206" y="345"/>
      <point x="207" y="354" type="curve" smooth="yes"/>
      <point x="216" y="419"/>
      <point x="244" y="607"/>
      <point x="249" y="637" type="curve"/>
      <point x="254" y="639"/>
      <point x="281" y="640"/>
      <point x="291" y="640" type="curve" smooth="yes"/>
      <point x="399" y="640"/>
      <point x="455" y="587"/>
      <point x="455" y="490" type="curve" smooth="yes"/>
      <point x="455" y="371"/>
      <point x="342" y="326"/>
      <point x="233" y="326" type="curve" smooth="yes"/>
      <point x="211" y="326"/>
      <point x="205" y="327"/>
      <point x="205" y="335" type="curve" smooth="yes"/>
    </contour>
  </outline>
</glyph>
<glyph name="Q" format="1">
  <advance width="717"/>
  <unicode hex="0051"/>
  <outline>
    <contour>
      <point x="13" y="-126"/>
      <point x="29" y="-136"/>
      <point x="49" y="-136" type="curve" smooth="yes"/>
      <point x="64" y="-136"/>
      <point x="83" y="-129"/>
      <point x="99" y="-123" type="curve" smooth="yes"/>
      <point x="114" y="-117"/>
      <point x="132" y="-114"/>
      <point x="135" y="-114" type="curve" smooth="yes"/>
      <point x="162" y="-114"/>
      <point x="368" y="-201"/>
      <point x="560" y="-201" type="curve" smooth="yes"/>
      <point x="622" y="-201"/>
      <point x="731" y="-163"/>
      <point x="731" y="-157" type="curve" smooth="yes"/>
      <point x="731" y="-149"/>
      <point x="728" y="-143"/>
      <point x="725" y="-143" type="curve" smooth="yes"/>
      <point x="718" y="-143"/>
      <point x="693" y="-154"/>
      <point x="625" y="-154" type="curve" smooth="yes"/>
      <point x="529" y="-154"/>
      <point x="331" y="-98"/>
      <point x="272" y="-82" type="curve" smooth="yes"/>
      <point x="245" y="-75"/>
      <point x="242" y="-76"/>
      <point x="267" y="-63" type="curve" smooth="yes"/>
      <point x="295" y="-48"/>
      <point x="329" y="-31"/>
      <point x="358" y="-17" type="curve" smooth="yes"/>
      <point x="396" y="2"/>
      <point x="404" y="0"/>
      <point x="439" y="13" type="curve" smooth="yes"/>
      <point x="569" y="60"/>
      <point x="685" y="186"/>
      <point x="685" y="375" type="curve" smooth="yes"/>
      <point x="685" y="545"/>
      <point x="574" y="678"/>
      <point x="398" y="678" type="curve" smooth="yes"/>
      <point x="189" y="678"/>
      <point x="32" y="486"/>
      <point x="32" y="305" type="curve" smooth="yes"/>
      <point x="32" y="42"/>
      <point x="245" y="2"/>
      <point x="312" y="-7" type="curve" smooth="yes"/>
      <point x="325" y="-9"/>
      <point x="320" y="-10"/>
      <point x="312" y="-14" type="curve" smooth="yes"/>
      <point x="275" y="-33"/>
      <point x="221" y="-59"/>
      <point x="210" y="-64" type="curve"/>
      <point x="205" y="-66"/>
      <point x="198" y="-68"/>
      <point x="188" y="-68" type="curve" smooth="yes"/>
      <point x="169" y="-68"/>
      <point x="143" y="-63"/>
      <point x="117" y="-63" type="curve" smooth="yes"/>
      <point x="68" y="-63"/>
      <point x="13" y="-71"/>
      <point x="13" y="-107" type="curve" smooth="yes"/>
    </contour>
    <contour>
      <point x="124" y="491"/>
      <point x="277" y="643"/>
      <point x="385" y="643" type="curve" smooth="yes"/>
      <point x="509" y="643"/>
      <point x="592" y="552"/>
      <point x="592" y="400" type="curve" smooth="yes"/>
      <point x="592" y="167"/>
      <point x="415" y="20"/>
      <point x="368" y="20" type="curve" smooth="yes"/>
      <point x="248" y="20"/>
      <point x="124" y="100"/>
      <point x="124" y="290" type="curve" smooth="yes"/>
    </contour>
  </outline>
</glyph>
<glyph name="R" format="1">
  <advance width="625"/>
  <unicode hex="0052"/>
  <outline>
    <contour>
      <point x="17" y="-4"/>
      <point x="20" y="-6"/>
      <point x="34" y="-6" type="curve" smooth="yes"/>
      <point x="57" y="-6"/>
      <point x="107" y="-3"/>
      <point x="137" y="-3" type="curve" smooth="yes"/>
      <point x="167" y="-3"/>
      <point x="204" y="-6"/>
      <point x="227" y="-6" type="curve" smooth="yes"/>
      <point x="239" y="-6"/>
      <point x="241" y="-1"/>
      <point x="241" y="14" type="curve" smooth="yes"/>
      <point x="241" y="27"/>
      <point x="237" y="30"/>
      <point x="225" y="30" type="curve" smooth="yes"/>
      <point x="172" y="30" type="line" smooth="yes"/>
      <point x="168" y="30"/>
      <point x="167" y="31"/>
      <point x="167" y="36" type="curve"/>
      <point x="169" y="77"/>
      <point x="188" y="231"/>
      <point x="196" y="288" type="curve" smooth="yes"/>
      <point x="199" y="308"/>
      <point x="212" y="309"/>
      <point x="219" y="309" type="curve" smooth="yes"/>
      <point x="248" y="309" type="line" smooth="yes"/>
      <point x="273" y="309"/>
      <point x="299" y="308"/>
      <point x="318" y="304" type="curve" smooth="yes"/>
      <point x="396" y="288"/>
      <point x="451" y="232"/>
      <point x="451" y="170" type="curve" smooth="yes"/>
      <point x="451" y="120"/>
      <point x="443" y="60"/>
      <point x="435" y="13" type="curve" smooth="yes"/>
      <point x="434" y="6"/>
      <point x="431" y="-3"/>
      <point x="441" y="-3" type="curve" smooth="yes"/>
      <point x="485" y="-3"/>
      <point x="582" y="-6"/>
      <point x="590" y="-6" type="curve" smooth="yes"/>
      <point x="597" y="-6"/>
      <point x="598" y="3"/>
      <point x="598" y="12" type="curve" smooth="yes"/>
      <point x="598" y="27"/>
      <point x="594" y="30"/>
      <point x="578" y="30" type="curve" smooth="yes"/>
      <point x="533" y="30" type="line"/>
      <point x="533" y="31"/>
      <point x="532" y="34"/>
      <point x="532" y="38" type="curve" smooth="yes"/>
      <point x="532" y="66"/>
      <point x="535" y="120"/>
      <point x="535" y="136" type="curve" smooth="yes"/>
      <point x="535" y="240"/>
      <point x="470" y="283"/>
      <point x="420" y="303" type="curve" smooth="yes"/>
      <point x="393" y="314"/>
      <point x="372" y="320"/>
      <point x="361" y="324" type="curve"/>
      <point x="396" y="333"/>
      <point x="550" y="366"/>
      <point x="550" y="507" type="curve" smooth="yes"/>
      <point x="550" y="605"/>
      <point x="460" y="672"/>
      <point x="345" y="672" type="curve" smooth="yes"/>
      <point x="310" y="672"/>
      <point x="234" y="665"/>
      <point x="203" y="665" type="curve" smooth="yes"/>
      <point x="138" y="665"/>
      <point x="99" y="668"/>
      <point x="92" y="668" type="curve" smooth="yes"/>
      <point x="84" y="668"/>
      <point x="76" y="665"/>
      <point x="76" y="651" type="curve" smooth="yes"/>
      <point x="76" y="634"/>
      <point x="82" y="633"/>
      <point x="94" y="633" type="curve" smooth="yes"/>
      <point x="159" y="633" type="line"/>
      <point x="159" y="625"/>
      <point x="159" y="618"/>
      <point x="158" y="610" type="curve" smooth="yes"/>
      <point x="147" y="498"/>
      <point x="100" y="170"/>
      <point x="76" y="30" type="curve"/>
      <point x="38" y="30" type="line" smooth="yes"/>
      <point x="21" y="30"/>
      <point x="17" y="26"/>
      <point x="17" y="13" type="curve" smooth="yes"/>
    </contour>
    <contour>
      <point x="207" y="354"/>
      <point x="207" y="356"/>
      <point x="208" y="362" type="curve"/>
      <point x="244" y="637" type="line"/>
      <point x="250" y="639"/>
      <point x="281" y="640"/>
      <point x="291" y="640" type="curve" smooth="yes"/>
      <point x="404" y="640"/>
      <point x="459" y="591"/>
      <point x="459" y="498" type="curve" smooth="yes"/>
      <point x="459" y="408"/>
      <point x="362" y="336"/>
      <point x="299" y="336" type="curve" smooth="yes"/>
      <point x="288" y="336"/>
      <point x="263" y="339"/>
      <point x="229" y="339" type="curve" smooth="yes"/>
      <point x="222" y="339" type="line" smooth="yes"/>
      <point x="212" y="339"/>
      <point x="207" y="340"/>
      <point x="207" y="350" type="curve" smooth="yes"/>
    </contour>
  </outline>
</glyph>
<glyph name="V" format="1">
  <advance width="666"/>
  <unicode hex="0056"/>
  <outline>
    <contour>
      <point x="17" y="632"/>
      <point x="26" y="631"/>
      <point x="38" y="631" type="curve" smooth="yes"/>
      <point x="77" y="631" type="line"/>
      <point x="90" y="603"/>
      <point x="154" y="198"/>
      <point x="175" y="44" type="curve" smooth="yes"/>
      <point x="182" y="-6"/>
      <point x="184" y="-20"/>
      <point x="198" y="-20" type="curve" smooth="yes"/>
      <point x="214" y="-20"/>
      <point x="232" y="6"/>
      <point x="238" y="15" type="curve" smooth="yes"/>
      <point x="264" y="55"/>
      <point x="283" y="71"/>
      <point x="292" y="87" type="curve" smooth="yes"/>
      <point x="606" y="625" type="line"/>
      <point x="609" y="631"/>
      <point x="606" y="631"/>
      <point x="627" y="631" type="curve" smooth="yes"/>
      <point x="643" y="631"/>
      <point x="649" y="632"/>
      <point x="649" y="646" type="curve" smooth="yes"/>
      <point x="649" y="664"/>
      <point x="645" y="667"/>
      <point x="631" y="667" type="curve" smooth="yes"/>
      <point x="621" y="667"/>
      <point x="588" y="664"/>
      <point x="573" y="664" type="curve" smooth="yes"/>
      <point x="519" y="664"/>
      <point x="486" y="667"/>
      <point x="474" y="667" type="curve" smooth="yes"/>
      <point x="461" y="667"/>
      <point x="454" y="666"/>
      <point x="454" y="649" type="curve" smooth="yes"/>
      <point x="454" y="632"/>
      <point x="463" y="631"/>
      <point x="475" y="631" type="curve" smooth="yes"/>
      <point x="542" y="631" type="line" smooth="yes"/>
      <point x="548" y="631"/>
      <point x="549" y="631"/>
      <point x="549" y="629" type="curve" smooth="yes"/>
      <point x="549" y="627"/>
      <point x="547" y="624"/>
      <point x="545" y="619" type="curve"/>
      <point x="427" y="394" type="line" smooth="yes"/>
      <point x="365" y="276"/>
      <point x="293" y="149"/>
      <point x="263" y="102" type="curve"/>
      <point x="259" y="95"/>
      <point x="256" y="90"/>
      <point x="254" y="90" type="curve" smooth="yes"/>
      <point x="252" y="90"/>
      <point x="251" y="95"/>
      <point x="250" y="102" type="curve"/>
      <point x="232" y="197"/>
      <point x="175" y="602"/>
      <point x="175" y="629" type="curve" smooth="yes"/>
      <point x="175" y="630"/>
      <point x="175" y="631"/>
      <point x="176" y="631" type="curve" smooth="yes"/>
      <point x="231" y="631" type="line" smooth="yes"/>
      <point x="247" y="631"/>
      <point x="252" y="632"/>
      <point x="252" y="646" type="curve" smooth="yes"/>
      <point x="252" y="663"/>
      <point x="249" y="667"/>
      <point x="235" y="667" type="curve" smooth="yes"/>
      <point x="212" y="667"/>
      <point x="160" y="664"/>
      <point x="130" y="664" type="curve" smooth="yes"/>
      <point x="100" y="664"/>
      <point x="54" y="667"/>
      <point x="38" y="667" type="curve" smooth="yes"/>
      <point x="25" y="667"/>
      <point x="17" y="666"/>
      <point x="17" y="649" type="curve" smooth="yes"/>
    </contour>
  </outline>
</glyph>
<glyph name="W" format="1">
  <advance width="1010"/>
  <unicode hex="0057"/>
  <outline>
    <contour>
      <point x="17" y="632"/>
      <point x="26" y="631"/>
      <point x="38" y="631" type="curve" smooth="yes"/>
      <point x="76" y="631" type="line"/>
      <point x="87" y="601"/>
      <point x="150" y="198"/>
      <point x="171" y="44" type="curve" smooth="yes"/>
      <point x="178" y="-6"/>
      <point x="180" y="-20"/>
      <point x="194" y="-20" type="curve" smooth="yes"/>
      <point x="210" y="-20"/>
      <point x="226" y="5"/>
      <point x="232" y="14" type="curve" smooth="yes"/>
      <point x="258" y="54"/>
      <point x="277" y="71"/>
      <point x="286" y="87" type="curve" smooth="yes"/>
      <point x="469" y="415" type="line" smooth="yes"/>
      <point x="472" y="420"/>
      <point x="475" y="425"/>
      <point x="476" y="425" type="curve" smooth="yes"/>
      <point x="477" y="425"/>
      <point x="477" y="423"/>
      <point x="478" y="418" type="curve" smooth="yes"/>
      <point x="500" y="290"/>
      <point x="525" y="123"/>
      <point x="537" y="44" type="curve" smooth="yes"/>
      <point x="544" y="-6"/>
      <point x="546" y="-20"/>
      <point x="560" y="-20" type="curve" smooth="yes"/>
      <point x="576" y="-20"/>
      <point x="594" y="5"/>
      <point x="600" y="14" type="curve" smooth="yes"/>
      <point x="626" y="54"/>
      <point x="646" y="71"/>
      <point x="654" y="87" type="curve"/>
      <point x="742" y="243" type="line" smooth="yes"/>
      <point x="810" y="363"/>
      <point x="872" y="488"/>
      <point x="936" y="612" type="curve" smooth="yes"/>
      <point x="945" y="630"/>
      <point x="944" y="631"/>
      <point x="960" y="631" type="curve" smooth="yes"/>
      <point x="971" y="631" type="line" smooth="yes"/>
      <point x="987" y="631"/>
      <point x="993" y="632"/>
      <point x="993" y="646" type="curve" smooth="yes"/>
      <point x="993" y="664"/>
      <point x="989" y="667"/>
      <point x="975" y="667" type="curve" smooth="yes"/>
      <point x="965" y="667"/>
      <point x="930" y="664"/>
      <point x="915" y="664" type="curve" smooth="yes"/>
      <point x="861" y="664"/>
      <point x="831" y="667"/>
      <point x="819" y="667" type="curve" smooth="yes"/>
      <point x="806" y="667"/>
      <point x="799" y="666"/>
      <point x="799" y="649" type="curve" smooth="yes"/>
      <point x="799" y="632"/>
      <point x="808" y="631"/>
      <point x="820" y="631" type="curve" smooth="yes"/>
      <point x="884" y="631" type="line" smooth="yes"/>
      <point x="890" y="631"/>
      <point x="891" y="631"/>
      <point x="891" y="629" type="curve" smooth="yes"/>
      <point x="891" y="627"/>
      <point x="889" y="624"/>
      <point x="887" y="619" type="curve"/>
      <point x="861" y="566"/>
      <point x="679" y="202"/>
      <point x="621" y="100" type="curve" smooth="yes"/>
      <point x="616" y="91"/>
      <point x="612" y="83"/>
      <point x="610" y="83" type="curve" smooth="yes"/>
      <point x="608" y="83"/>
      <point x="606" y="90"/>
      <point x="604" y="101" type="curve" smooth="yes"/>
      <point x="588" y="209"/>
      <point x="542" y="606"/>
      <point x="542" y="615" type="curve" smooth="yes"/>
      <point x="542" y="623"/>
      <point x="542" y="628"/>
      <point x="543" y="631" type="curve"/>
      <point x="615" y="631" type="line" smooth="yes"/>
      <point x="631" y="631"/>
      <point x="637" y="632"/>
      <point x="637" y="646" type="curve" smooth="yes"/>
      <point x="637" y="664"/>
      <point x="633" y="667"/>
      <point x="619" y="667" type="curve" smooth="yes"/>
      <point x="578" y="667"/>
      <point x="521" y="664"/>
      <point x="492" y="664" type="curve" smooth="yes"/>
      <point x="462" y="664"/>
      <point x="423" y="667"/>
      <point x="407" y="667" type="curve" smooth="yes"/>
      <point x="394" y="667"/>
      <point x="386" y="666"/>
      <point x="386" y="649" type="curve" smooth="yes"/>
      <point x="386" y="632"/>
      <point x="395" y="631"/>
      <point x="407" y="631" type="curve" smooth="yes"/>
      <point x="449" y="631" type="line"/>
      <point x="451" y="625"/>
      <point x="462" y="536"/>
      <point x="466" y="502" type="curve" smooth="yes"/>
      <point x="467" y="491"/>
      <point x="467" y="487"/>
      <point x="463" y="480" type="curve" smooth="yes"/>
      <point x="411" y="383"/>
      <point x="312" y="200"/>
      <point x="264" y="121" type="curve" smooth="yes"/>
      <point x="255" y="106"/>
      <point x="248" y="94"/>
      <point x="246" y="94" type="curve" smooth="yes"/>
      <point x="244" y="94"/>
      <point x="242" y="103"/>
      <point x="239" y="121" type="curve" smooth="yes"/>
      <point x="220" y="238"/>
      <point x="171" y="603"/>
      <point x="171" y="629" type="curve" smooth="yes"/>
      <point x="171" y="630"/>
      <point x="171" y="631"/>
      <point x="172" y="631" type="curve" smooth="yes"/>
      <point x="225" y="631" type="line" smooth="yes"/>
      <point x="241" y="631"/>
      <point x="246" y="632"/>
      <point x="246" y="646" type="curve" smooth="yes"/>
      <point x="246" y="663"/>
      <point x="243" y="667"/>
      <point x="229" y="667" type="curve" smooth="yes"/>
      <point x="206" y="667"/>
      <point x="160" y="664"/>
      <point x="130" y="664" type="curve" smooth="yes"/>
      <point x="100" y="664"/>
      <point x="54" y="667"/>
      <point x="38" y="667" type="curve" smooth="yes"/>
      <point x="25" y="667"/>
      <point x="17" y="666"/>
      <point x="17" y="649" type="curve" smooth="yes"/>
    </contour>
  </outline>
</glyph>
<glyph name="X" format="1">
  <advance width="661"/>
  <unicode hex="0058"/>
  <outline>
    <contour>
      <point x="17" y="-4"/>
      <point x="23" y="-6"/>
      <point x="36" y="-6" type="curve" smooth="yes"/>
      <point x="47" y="-6"/>
      <point x="69" y="-3"/>
      <point x="99" y="-3" type="curve" smooth="yes"/>
      <point x="129" y="-3"/>
      <point x="172" y="-6"/>
      <point x="184" y="-6" type="curve" smooth="yes"/>
      <point x="198" y="-6"/>
      <point x="201" y="-2"/>
      <point x="201" y="15" type="curve" smooth="yes"/>
      <point x="201" y="29"/>
      <point x="196" y="30"/>
      <point x="180" y="30" type="curve" smooth="yes"/>
      <point x="139" y="30" type="line" smooth="yes"/>
      <point x="133" y="30"/>
      <point x="131" y="30"/>
      <point x="129" y="31" type="curve"/>
      <point x="130" y="49"/>
      <point x="281" y="255"/>
      <point x="314" y="297" type="curve" smooth="yes"/>
      <point x="318" y="302"/>
      <point x="321" y="305"/>
      <point x="322" y="305" type="curve" smooth="yes"/>
      <point x="323" y="305"/>
      <point x="324" y="303"/>
      <point x="326" y="299" type="curve" smooth="yes"/>
      <point x="360" y="228"/>
      <point x="426" y="97"/>
      <point x="449" y="41" type="curve"/>
      <point x="451" y="35"/>
      <point x="453" y="32"/>
      <point x="453" y="31" type="curve"/>
      <point x="452" y="31"/>
      <point x="449" y="30"/>
      <point x="443" y="30" type="curve" smooth="yes"/>
      <point x="396" y="30" type="line" smooth="yes"/>
      <point x="380" y="30"/>
      <point x="375" y="29"/>
      <point x="375" y="15" type="curve" smooth="yes"/>
      <point x="375" y="-2"/>
      <point x="378" y="-6"/>
      <point x="392" y="-6" type="curve" smooth="yes"/>
      <point x="415" y="-6"/>
      <point x="478" y="-3"/>
      <point x="508" y="-3" type="curve" smooth="yes"/>
      <point x="538" y="-3"/>
      <point x="592" y="-6"/>
      <point x="608" y="-6" type="curve" smooth="yes"/>
      <point x="621" y="-6"/>
      <point x="629" y="-5"/>
      <point x="629" y="12" type="curve" smooth="yes"/>
      <point x="629" y="29"/>
      <point x="620" y="30"/>
      <point x="608" y="30" type="curve" smooth="yes"/>
      <point x="561" y="30" type="line"/>
      <point x="546" y="42"/>
      <point x="424" y="280"/>
      <point x="384" y="352" type="curve" smooth="yes"/>
      <point x="380" y="359"/>
      <point x="380" y="360"/>
      <point x="384" y="365" type="curve"/>
      <point x="384" y="365"/>
      <point x="579" y="617"/>
      <point x="597" y="631" type="curve"/>
      <point x="625" y="631" type="line" smooth="yes"/>
      <point x="637" y="631"/>
      <point x="644" y="632"/>
      <point x="644" y="649" type="curve" smooth="yes"/>
      <point x="644" y="665"/>
      <point x="638" y="667"/>
      <point x="625" y="667" type="curve" smooth="yes"/>
      <point x="609" y="667"/>
      <point x="579" y="664"/>
      <point x="549" y="664" type="curve" smooth="yes"/>
      <point x="519" y="664"/>
      <point x="504" y="667"/>
      <point x="481" y="667" type="curve" smooth="yes"/>
      <point x="467" y="667"/>
      <point x="464" y="663"/>
      <point x="464" y="646" type="curve" smooth="yes"/>
      <point x="464" y="632"/>
      <point x="469" y="631"/>
      <point x="485" y="631" type="curve" smooth="yes"/>
      <point x="531" y="631" type="line"/>
      <point x="531" y="630" type="line" smooth="yes"/>
      <point x="531" y="621"/>
      <point x="423" y="472"/>
      <point x="376" y="406" type="curve" smooth="yes"/>
      <point x="370" y="398"/>
      <point x="366" y="393"/>
      <point x="365" y="393" type="curve" smooth="yes"/>
      <point x="363" y="393"/>
      <point x="361" y="398"/>
      <point x="357" y="406" type="curve" smooth="yes"/>
      <point x="318" y="485"/>
      <point x="266" y="606"/>
      <point x="262" y="620" type="curve"/>
      <point x="260" y="626"/>
      <point x="258" y="629"/>
      <point x="258" y="631" type="curve"/>
      <point x="308" y="631" type="line" smooth="yes"/>
      <point x="324" y="631"/>
      <point x="329" y="632"/>
      <point x="329" y="646" type="curve" smooth="yes"/>
      <point x="329" y="663"/>
      <point x="326" y="667"/>
      <point x="312" y="667" type="curve" smooth="yes"/>
      <point x="289" y="667"/>
      <point x="240" y="664"/>
      <point x="210" y="664" type="curve" smooth="yes"/>
      <point x="180" y="664"/>
      <point x="131" y="667"/>
      <point x="115" y="667" type="curve" smooth="yes"/>
      <point x="102" y="667"/>
      <point x="94" y="666"/>
      <point x="94" y="649" type="curve" smooth="yes"/>
      <point x="94" y="632"/>
      <point x="103" y="631"/>
      <point x="115" y="631" type="curve" smooth="yes"/>
      <point x="158" y="631" type="line"/>
      <point x="160" y="630"/>
      <point x="167" y="620"/>
      <point x="177" y="599" type="curve" smooth="yes"/>
      <point x="302" y="345" type="line"/>
      <point x="306" y="336"/>
      <point x="306" y="335"/>
      <point x="299" y="327" type="curve" smooth="yes"/>
      <point x="193" y="198"/>
      <point x="76" y="36"/>
      <point x="62" y="30" type="curve"/>
      <point x="36" y="30" type="line" smooth="yes"/>
      <point x="24" y="30"/>
      <point x="17" y="29"/>
      <point x="17" y="12" type="curve" smooth="yes"/>
    </contour>
  </outline>
</glyph>
<glyph name="Z" format="1">
  <advance width="599"/>
  <unicode hex="005A"/>
  <outline>
    <contour>
      <point x="32" y="1"/>
      <point x="34" y="-3"/>
      <point x="43" y="-3" type="curve" smooth="yes"/>
      <point x="147" y="-3"/>
      <point x="384" y="-6"/>
      <point x="496" y="-6" type="curve" smooth="yes"/>
      <point x="506" y="-6"/>
      <point x="518" y="-4"/>
      <point x="521" y="7" type="curve"/>
      <point x="528" y="37"/>
      <point x="554" y="130"/>
      <point x="554" y="137" type="curve" smooth="yes"/>
      <point x="554" y="146"/>
      <point x="547" y="150"/>
      <point x="531" y="150" type="curve" smooth="yes"/>
      <point x="523" y="150"/>
      <point x="517" y="149"/>
      <point x="515" y="142" type="curve"/>
      <point x="503" y="91"/>
      <point x="497" y="65"/>
      <point x="492" y="51" type="curve" smooth="yes"/>
      <point x="488" y="39"/>
      <point x="483" y="38"/>
      <point x="476" y="38" type="curve" smooth="yes"/>
      <point x="169" y="35" type="line" smooth="yes"/>
      <point x="163" y="35"/>
      <point x="161" y="40"/>
      <point x="161" y="42" type="curve"/>
      <point x="164" y="54"/>
      <point x="279" y="217"/>
      <point x="384" y="369" type="curve" smooth="yes"/>
      <point x="482" y="510"/>
      <point x="572" y="639"/>
      <point x="572" y="646" type="curve" smooth="yes"/>
      <point x="572" y="661"/>
      <point x="565" y="664"/>
      <point x="552" y="664" type="curve" smooth="yes"/>
      <point x="204" y="664" type="line" smooth="yes"/>
      <point x="155" y="664"/>
      <point x="150" y="668"/>
      <point x="150" y="672" type="curve" smooth="yes"/>
      <point x="150" y="681" type="line" smooth="yes"/>
      <point x="150" y="688"/>
      <point x="138" y="689"/>
      <point x="131" y="689" type="curve" smooth="yes"/>
      <point x="121" y="689"/>
      <point x="114" y="689"/>
      <point x="114" y="680" type="curve"/>
      <point x="108" y="621"/>
      <point x="90" y="548"/>
      <point x="90" y="540" type="curve" smooth="yes"/>
      <point x="90" y="531"/>
      <point x="106" y="530"/>
      <point x="114" y="530" type="curve" smooth="yes"/>
      <point x="119" y="530" type="line"/>
      <point x="127" y="531"/>
      <point x="128" y="535"/>
      <point x="130" y="543" type="curve" smooth="yes"/>
      <point x="131" y="547"/>
      <point x="139" y="595"/>
      <point x="144" y="618" type="curve"/>
      <point x="145" y="624"/>
      <point x="162" y="626"/>
      <point x="185" y="626" type="curve" smooth="yes"/>
      <point x="450" y="626" type="line" smooth="yes"/>
      <point x="463" y="626"/>
      <point x="459" y="622"/>
      <point x="455" y="616" type="curve" smooth="yes"/>
      <point x="399" y="533"/>
      <point x="32" y="29"/>
      <point x="32" y="15" type="curve" smooth="yes"/>
    </contour>
  </outline>
</glyph>
<glyph name="bracketright" format="1">
  <advance width="296"/>
  <unicode hex="005D"/>
  <outline>
    <contour>
      <point x="37" y="-132" type="line" smooth="yes"/>
      <point x="37" y="-141"/>
      <point x="39" y="-144"/>
      <point x="51" y="-144" type="curve" smooth="yes"/>
      <point x="206" y="-144" type="line" smooth="yes"/>
      <point x="219" y="-144"/>
      <point x="219" y="-139"/>
      <point x="219" y="-128" type="curve" smooth="yes"/>
      <point x="219" y="679" type="line" smooth="yes"/>
      <point x="219" y="692"/>
      <point x="216" y="693"/>
      <point x="203" y="693" type="curve" smooth="yes"/>
      <point x="51" y="693" type="line" smooth="yes"/>
      <point x="38" y="693"/>
      <point x="37" y="688"/>
      <point x="37" y="679" type="curve" smooth="yes"/>
      <point x="37" y="667" type="line" smooth="yes"/>
      <point x="37" y="653"/>
      <point x="39" y="651"/>
      <point x="51" y="651" type="curve" smooth="yes"/>
      <point x="158" y="651" type="line" smooth="yes"/>
      <point x="168" y="651"/>
      <point x="168" y="651"/>
      <point x="168" y="642" type="curve" smooth="yes"/>
      <point x="168" y="-93" type="line" smooth="yes"/>
      <point x="168" y="-102"/>
      <point x="168" y="-102"/>
      <point x="158" y="-102" type="curve" smooth="yes"/>
      <point x="51" y="-102" type="line" smooth="yes"/>
      <point x="39" y="-102"/>
      <point x="37" y="-104"/>
      <point x="37" y="-118" type="curve" smooth="yes"/>
    </contour>
  </outline>
</glyph>
<glyph name="underscore" format="1">
  <advance width="410"/>
  <unicode hex="005F"/>
  <outline>
    <contour>
      <point x="22" y="-53" type="line" smooth="yes"/>
      <point x="22" y="-67"/>
      <point x="23" y="-73"/>
      <point x="36" y="-73" type="curve" smooth="yes"/>
      <point x="374" y="-73" type="line" smooth="yes"/>
      <point x="388" y="-73"/>
      <point x="388" y="-57"/>
      <point x="388" y="-50" type="curve" smooth="yes"/>
      <point x="388" y="-36" type="line" smooth="yes"/>
      <point x="388" y="-29"/>
      <point x="387" y="-22"/>
      <point x="374" y="-22" type="curve" smooth="yes"/>
      <point x="39" y="-22" type="line" smooth="yes"/>
      <point x="26" y="-22"/>
      <point x="22" y="-27"/>
      <point x="22" y="-41" type="curve" smooth="yes"/>
    </contour>
  </outline>
</glyph>
<glyph name="grave" format="1">
  <advance width="400"/>
  <unicode hex="0060"/>
  <outline>
    <contour>
      <point x="125" y="570"/>
      <point x="126" y="566"/>
      <point x="129" y="561" type="curve"/>
      <point x="186" y="454" type="line" smooth="yes"/>
      <point x="188" y="450"/>
      <point x="191" y="446"/>
      <point x="196" y="446" type="curve" smooth="yes"/>
      <point x="211" y="446" type="line" smooth="yes"/>
      <point x="214" y="446"/>
      <point x="218" y="447"/>
      <point x="218" y="451" type="curve" smooth="yes"/>
      <point x="218" y="453"/>
      <point x="217" y="456"/>
      <point x="217" y="457" type="curve"/>
      <point x="191" y="583" type="line" smooth="yes"/>
      <point x="188" y="599"/>
      <point x="177" y="609"/>
      <point x="162" y="609" type="curve" smooth="yes"/>
      <point x="137" y="609"/>
      <point x="125" y="595"/>
      <point x="125" y="575" type="curve" smooth="yes"/>
    </contour>
  </outline>
</glyph>
<glyph name="b" format="1">
  <advance width="453"/>
  <unicode hex="0062"/>
  <outline>
    <contour>
      <point x="22" y="7"/>
      <point x="26" y="1"/>
      <point x="35" y="1" type="curve" smooth="yes"/>
      <point x="45" y="1"/>
      <point x="58" y="7"/>
      <point x="63" y="9" type="curve"/>
      <point x="71" y="13"/>
      <point x="81" y="17"/>
      <point x="82" y="17" type="curve" smooth="yes"/>
      <point x="88" y="17"/>
      <point x="123" y="-11"/>
      <point x="170" y="-11" type="curve" smooth="yes"/>
      <point x="256" y="-11"/>
      <point x="431" y="116"/>
      <point x="431" y="323" type="curve" smooth="yes"/>
      <point x="431" y="339"/>
      <point x="429" y="354"/>
      <point x="416" y="367" type="curve" smooth="yes"/>
      <point x="403" y="380"/>
      <point x="383" y="391"/>
      <point x="350" y="391" type="curve" smooth="yes"/>
      <point x="284" y="391"/>
      <point x="256" y="357"/>
      <point x="212" y="298" type="curve" smooth="yes"/>
      <point x="185" y="262"/>
      <point x="150" y="206"/>
      <point x="133" y="179" type="curve"/>
      <point x="142" y="225"/>
      <point x="169" y="357"/>
      <point x="179" y="413" type="curve" smooth="yes"/>
      <point x="186" y="451"/>
      <point x="219" y="663"/>
      <point x="219" y="672" type="curve" smooth="yes"/>
      <point x="219" y="682"/>
      <point x="213" y="685"/>
      <point x="204" y="685" type="curve" smooth="yes"/>
      <point x="195" y="685"/>
      <point x="100" y="662"/>
      <point x="39" y="647" type="curve"/>
      <point x="33" y="645"/>
      <point x="32" y="640"/>
      <point x="32" y="636" type="curve" smooth="yes"/>
      <point x="32" y="618"/>
      <point x="34" y="606"/>
      <point x="40" y="606" type="curve" smooth="yes"/>
      <point x="48" y="606"/>
      <point x="120" y="629"/>
      <point x="126" y="629" type="curve" smooth="yes"/>
      <point x="129" y="629"/>
      <point x="130" y="626"/>
      <point x="130" y="623" type="curve" smooth="yes"/>
      <point x="130" y="589"/>
      <point x="85" y="279"/>
      <point x="43" y="55" type="curve" smooth="yes"/>
      <point x="41" y="46"/>
      <point x="42" y="45"/>
      <point x="36" y="37" type="curve"/>
      <point x="34" y="35"/>
      <point x="22" y="22"/>
      <point x="22" y="12" type="curve" smooth="yes"/>
    </contour>
    <contour>
      <point x="115" y="110"/>
      <point x="169" y="187"/>
      <point x="236" y="280" type="curve" smooth="yes"/>
      <point x="256" y="308"/>
      <point x="281" y="338"/>
      <point x="317" y="338" type="curve" smooth="yes"/>
      <point x="347" y="338"/>
      <point x="356" y="307"/>
      <point x="356" y="282" type="curve" smooth="yes"/>
      <point x="356" y="212"/>
      <point x="266" y="23"/>
      <point x="180" y="23" type="curve" smooth="yes"/>
      <point x="134" y="23"/>
      <point x="115" y="51"/>
      <point x="115" y="80" type="curve" smooth="yes"/>
    </contour>
  </outline>
</glyph>
<glyph name="c" format="1">
  <advance width="402"/>
  <unicode hex="0063"/>
  <outline>
    <contour>
      <point x="22" y="62"/>
      <point x="53" y="-12"/>
      <point x="162" y="-12" type="curve" smooth="yes"/>
      <point x="262" y="-12"/>
      <point x="373" y="94"/>
      <point x="373" y="104" type="curve" smooth="yes"/>
      <point x="373" y="110"/>
      <point x="362" y="121"/>
      <point x="358" y="121" type="curve" smooth="yes"/>
      <point x="352" y="121"/>
      <point x="282" y="43"/>
      <point x="196" y="43" type="curve" smooth="yes"/>
      <point x="94" y="43"/>
      <point x="93" y="118"/>
      <point x="93" y="144" type="curve" smooth="yes"/>
      <point x="93" y="191"/>
      <point x="110" y="251"/>
      <point x="140" y="295" type="curve" smooth="yes"/>
      <point x="166" y="334"/>
      <point x="206" y="361"/>
      <point x="243" y="361" type="curve" smooth="yes"/>
      <point x="275" y="361"/>
      <point x="287" y="338"/>
      <point x="287" y="316" type="curve" smooth="yes"/>
      <point x="287" y="308"/>
      <point x="286" y="300"/>
      <point x="286" y="292" type="curve" smooth="yes"/>
      <point x="286" y="273"/>
      <point x="292" y="252"/>
      <point x="311" y="252" type="curve" smooth="yes"/>
      <point x="339" y="252"/>
      <point x="357" y="276"/>
      <point x="357" y="304" type="curve" smooth="yes"/>
      <point x="357" y="329"/>
      <point x="347" y="348"/>
      <point x="334" y="362" type="curve" smooth="yes"/>
      <point x="314" y="384"/>
      <point x="283" y="394"/>
      <point x="246" y="394" type="curve" smooth="yes"/>
      <point x="149" y="394"/>
      <point x="22" y="293"/>
      <point x="22" y="128" type="curve" smooth="yes"/>
    </contour>
  </outline>
</glyph>
<glyph name="h" format="1">
  <advance width="468"/>
  <unicode hex="0068"/>
  <outline>
    <contour>
      <point x="22" y="0"/>
      <point x="25" y="-5"/>
      <point x="33" y="-5" type="curve" smooth="yes"/>
      <point x="34" y="-5"/>
      <point x="90" y="-4"/>
      <point x="93" y="6" type="curve"/>
      <point x="114" y="90" type="line" smooth="yes"/>
      <point x="122" y="123"/>
      <point x="146" y="160"/>
      <point x="168" y="197" type="curve" smooth="yes"/>
      <point x="209" y="265"/>
      <point x="260" y="343"/>
      <point x="306" y="343" type="curve" smooth="yes"/>
      <point x="326" y="343"/>
      <point x="337" y="328"/>
      <point x="337" y="307" type="curve" smooth="yes"/>
      <point x="337" y="256"/>
      <point x="264" y="73"/>
      <point x="264" y="38" type="curve" smooth="yes"/>
      <point x="264" y="13"/>
      <point x="284" y="-3"/>
      <point x="308" y="-3" type="curve" smooth="yes"/>
      <point x="386" y="-3"/>
      <point x="466" y="114"/>
      <point x="466" y="122" type="curve" smooth="yes"/>
      <point x="466" y="127"/>
      <point x="456" y="135"/>
      <point x="451" y="135" type="curve" smooth="yes"/>
      <point x="446" y="135"/>
      <point x="380" y="48"/>
      <point x="356" y="48" type="curve" smooth="yes"/>
      <point x="344" y="48"/>
      <point x="338" y="57"/>
      <point x="338" y="67" type="curve" smooth="yes"/>
      <point x="338" y="94"/>
      <point x="405" y="269"/>
      <point x="405" y="335" type="curve" smooth="yes"/>
      <point x="405" y="371"/>
      <point x="376" y="386"/>
      <point x="343" y="386" type="curve" smooth="yes"/>
      <point x="283" y="386"/>
      <point x="246" y="352"/>
      <point x="217" y="317" type="curve" smooth="yes"/>
      <point x="168" y="258"/>
      <point x="130" y="185"/>
      <point x="112" y="148" type="curve"/>
      <point x="141" y="290"/>
      <point x="195" y="568"/>
      <point x="200" y="660" type="curve"/>
      <point x="200" y="669"/>
      <point x="200" y="678"/>
      <point x="191" y="678" type="curve" smooth="yes"/>
      <point x="166" y="678"/>
      <point x="75" y="658"/>
      <point x="35" y="644" type="curve"/>
      <point x="28" y="641"/>
      <point x="26" y="629"/>
      <point x="26" y="621" type="curve" smooth="yes"/>
      <point x="26" y="616"/>
      <point x="27" y="608"/>
      <point x="32" y="608" type="curve" smooth="yes"/>
      <point x="38" y="608"/>
      <point x="98" y="634"/>
      <point x="116" y="634" type="curve" smooth="yes"/>
      <point x="119" y="634"/>
      <point x="121" y="627"/>
      <point x="120" y="619" type="curve" smooth="yes"/>
      <point x="86" y="270"/>
      <point x="22" y="18"/>
      <point x="22" y="6" type="curve" smooth="yes"/>
    </contour>
  </outline>
</glyph>
<glyph name="j" format="1">
  <advance width="297"/>
  <unicode hex="006A"/>
  <outline>
    <contour>
      <point x="-72" y="-239"/>
      <point x="-49" y="-258"/>
      <point x="-14" y="-258" type="curve" smooth="yes"/>
      <point x="17" y="-258"/>
      <point x="53" y="-235"/>
      <point x="75" y="-219" type="curve" smooth="yes"/>
      <point x="145" y="-166"/>
      <point x="163" y="-63"/>
      <point x="172" y="-3" type="curve" smooth="yes"/>
      <point x="177" y="27"/>
      <point x="227" y="311"/>
      <point x="227" y="359" type="curve" smooth="yes"/>
      <point x="227" y="378"/>
      <point x="214" y="386"/>
      <point x="203" y="386" type="curve" smooth="yes"/>
      <point x="146" y="386"/>
      <point x="32" y="259"/>
      <point x="32" y="250" type="curve" smooth="yes"/>
      <point x="32" y="243"/>
      <point x="43" y="236"/>
      <point x="47" y="236" type="curve" smooth="yes"/>
      <point x="56" y="236"/>
      <point x="123" y="325"/>
      <point x="146" y="325" type="curve" smooth="yes"/>
      <point x="153" y="325"/>
      <point x="155" y="320"/>
      <point x="155" y="310" type="curve" smooth="yes"/>
      <point x="155" y="284"/>
      <point x="114" y="27"/>
      <point x="88" y="-101" type="curve" smooth="yes"/>
      <point x="76" y="-159"/>
      <point x="65" y="-207"/>
      <point x="41" y="-207" type="curve" smooth="yes"/>
      <point x="9" y="-207"/>
      <point x="4" y="-182"/>
      <point x="-34" y="-182" type="curve" smooth="yes"/>
      <point x="-56" y="-182"/>
      <point x="-72" y="-199"/>
      <point x="-72" y="-221" type="curve" smooth="yes"/>
    </contour>
    <contour>
      <point x="154" y="557"/>
      <point x="170" y="528"/>
      <point x="201" y="528" type="curve" smooth="yes"/>
      <point x="227" y="528"/>
      <point x="245" y="550"/>
      <point x="245" y="577" type="curve" smooth="yes"/>
      <point x="245" y="599"/>
      <point x="229" y="628"/>
      <point x="198" y="628" type="curve" smooth="yes"/>
      <point x="170" y="628"/>
      <point x="154" y="606"/>
      <point x="154" y="579" type="curve" smooth="yes"/>
    </contour>
  </outline>
</glyph>
<glyph name="k" format="1">
  <advance width="450"/>
  <unicode hex="006B"/>
  <outline>
    <contour>
      <point x="22" y="-8"/>
      <point x="26" y="-9"/>
      <point x="30" y="-9" type="curve" smooth="yes"/>
      <point x="41" y="-9"/>
      <point x="78" y="-3"/>
      <point x="80" y="-3" type="curve" smooth="yes"/>
      <point x="89" y="-3"/>
      <point x="90" y="4"/>
      <point x="93" y="22" type="curve" smooth="yes"/>
      <point x="97" y="46"/>
      <point x="108" y="94"/>
      <point x="114" y="119" type="curve" smooth="yes"/>
      <point x="119" y="141"/>
      <point x="126" y="157"/>
      <point x="138" y="176" type="curve" smooth="yes"/>
      <point x="175" y="232"/>
      <point x="206" y="284"/>
      <point x="237" y="314" type="curve" smooth="yes"/>
      <point x="258" y="334"/>
      <point x="275" y="346"/>
      <point x="298" y="346" type="curve" smooth="yes"/>
      <point x="318" y="346"/>
      <point x="326" y="339"/>
      <point x="326" y="328" type="curve" smooth="yes"/>
      <point x="326" y="282"/>
      <point x="267" y="227"/>
      <point x="223" y="207" type="curve" smooth="yes"/>
      <point x="214" y="203"/>
      <point x="204" y="202"/>
      <point x="196" y="202" type="curve" smooth="yes"/>
      <point x="191" y="202"/>
      <point x="187" y="202"/>
      <point x="184" y="199" type="curve" smooth="yes"/>
      <point x="182" y="197"/>
      <point x="166" y="183"/>
      <point x="166" y="175" type="curve" smooth="yes"/>
      <point x="166" y="169"/>
      <point x="192" y="143"/>
      <point x="217" y="111" type="curve" smooth="yes"/>
      <point x="244" y="77"/>
      <point x="269" y="39"/>
      <point x="294" y="16" type="curve" smooth="yes"/>
      <point x="311" y="0"/>
      <point x="325" y="-5"/>
      <point x="339" y="-5" type="curve" smooth="yes"/>
      <point x="378" y="-5"/>
      <point x="453" y="17"/>
      <point x="453" y="53" type="curve" smooth="yes"/>
      <point x="453" y="86"/>
      <point x="440" y="99"/>
      <point x="429" y="99" type="curve" smooth="yes"/>
      <point x="421" y="99"/>
      <point x="418" y="91"/>
      <point x="418" y="84" type="curve" smooth="yes"/>
      <point x="418" y="77"/>
      <point x="420" y="70"/>
      <point x="420" y="64" type="curve" smooth="yes"/>
      <point x="420" y="52"/>
      <point x="413" y="40"/>
      <point x="389" y="40" type="curve" smooth="yes"/>
      <point x="355" y="40"/>
      <point x="338" y="61"/>
      <point x="313" y="92" type="curve" smooth="yes"/>
      <point x="304" y="103"/>
      <point x="265" y="145"/>
      <point x="240" y="169" type="curve"/>
      <point x="232" y="176"/>
      <point x="225" y="181"/>
      <point x="219" y="184" type="curve"/>
      <point x="221" y="184"/>
      <point x="229" y="186"/>
      <point x="233" y="186" type="curve"/>
      <point x="282" y="197"/>
      <point x="400" y="249"/>
      <point x="400" y="344" type="curve" smooth="yes"/>
      <point x="400" y="374"/>
      <point x="369" y="384"/>
      <point x="338" y="384" type="curve" smooth="yes"/>
      <point x="267" y="384"/>
      <point x="227" y="351"/>
      <point x="187" y="298" type="curve" smooth="yes"/>
      <point x="162" y="265"/>
      <point x="138" y="223"/>
      <point x="124" y="198" type="curve"/>
      <point x="146" y="306"/>
      <point x="217" y="648"/>
      <point x="217" y="668" type="curve" smooth="yes"/>
      <point x="217" y="680"/>
      <point x="211" y="682"/>
      <point x="203" y="682" type="curve" smooth="yes"/>
      <point x="197" y="682"/>
      <point x="171" y="675"/>
      <point x="121" y="662" type="curve" smooth="yes"/>
      <point x="49" y="644" type="line" smooth="yes"/>
      <point x="41" y="642"/>
      <point x="40" y="631"/>
      <point x="40" y="618" type="curve" smooth="yes"/>
      <point x="40" y="613"/>
      <point x="41" y="609"/>
      <point x="46" y="609" type="curve" smooth="yes"/>
      <point x="49" y="609"/>
      <point x="116" y="629"/>
      <point x="124" y="629" type="curve" smooth="yes"/>
      <point x="129" y="629"/>
      <point x="130" y="626"/>
      <point x="130" y="623" type="curve"/>
      <point x="104" y="352"/>
      <point x="22" y="25"/>
      <point x="22" y="-3" type="curve" smooth="yes"/>
    </contour>
  </outline>
</glyph>
<glyph name="l" format="1">
  <advance width="272"/>
  <unicode hex="006C"/>
  <outline>
    <contour>
      <point x="52" y="-1"/>
      <point x="67" y="-13"/>
      <point x="84" y="-13" type="curve" smooth="yes"/>
      <point x="154" y="-13"/>
      <point x="260" y="110"/>
      <point x="260" y="118" type="curve" smooth="yes"/>
      <point x="260" y="122"/>
      <point x="244" y="134"/>
      <point x="241" y="134" type="curve" smooth="yes"/>
      <point x="238" y="134"/>
      <point x="167" y="50"/>
      <point x="141" y="50" type="curve" smooth="yes"/>
      <point x="138" y="50"/>
      <point x="130" y="51"/>
      <point x="130" y="68" type="curve" smooth="yes"/>
      <point x="130" y="81"/>
      <point x="230" y="650"/>
      <point x="230" y="672" type="curve" smooth="yes"/>
      <point x="230" y="680"/>
      <point x="226" y="682"/>
      <point x="220" y="682" type="curve" smooth="yes"/>
      <point x="212" y="682"/>
      <point x="160" y="666"/>
      <point x="67" y="645" type="curve"/>
      <point x="60" y="643"/>
      <point x="56" y="641"/>
      <point x="55" y="629" type="curve"/>
      <point x="54" y="624"/>
      <point x="54" y="619"/>
      <point x="54" y="616" type="curve" smooth="yes"/>
      <point x="54" y="606"/>
      <point x="56" y="606"/>
      <point x="61" y="606" type="curve" smooth="yes"/>
      <point x="66" y="606"/>
      <point x="108" y="618"/>
      <point x="135" y="625" type="curve" smooth="yes"/>
      <point x="147" y="628"/>
      <point x="149" y="622"/>
      <point x="147" y="612" type="curve"/>
      <point x="122" y="402"/>
      <point x="52" y="47"/>
      <point x="52" y="28" type="curve" smooth="yes"/>
    </contour>
  </outline>
</glyph>
<glyph name="m" format="1">
  <advance width="739"/>
  <unicode hex="006D"/>
  <outline>
    <contour>
      <point x="12" y="238"/>
      <point x="23" y="235"/>
      <point x="27" y="235" type="curve" smooth="yes"/>
      <point x="36" y="235"/>
      <point x="97" y="310"/>
      <point x="121" y="310" type="curve" smooth="yes"/>
      <point x="129" y="310"/>
      <point x="132" y="305"/>
      <point x="132" y="296" type="curve" smooth="yes"/>
      <point x="132" y="230"/>
      <point x="100" y="54"/>
      <point x="87" y="0" type="curve"/>
      <point x="86" y="-6"/>
      <point x="88" y="-14"/>
      <point x="95" y="-14" type="curve" smooth="yes"/>
      <point x="103" y="-14"/>
      <point x="127" y="-7"/>
      <point x="145" y="0" type="curve"/>
      <point x="154" y="4"/>
      <point x="156" y="16"/>
      <point x="158" y="22" type="curve"/>
      <point x="164" y="43"/>
      <point x="181" y="104"/>
      <point x="199" y="140" type="curve" smooth="yes"/>
      <point x="242" y="228"/>
      <point x="275" y="269"/>
      <point x="306" y="306" type="curve"/>
      <point x="313" y="315"/>
      <point x="329" y="330"/>
      <point x="341" y="330" type="curve" smooth="yes"/>
      <point x="352" y="330"/>
      <point x="359" y="318"/>
      <point x="359" y="296" type="curve" smooth="yes"/>
      <point x="359" y="182"/>
      <point x="301" y="32"/>
      <point x="301" y="7" type="curve" smooth="yes"/>
      <point x="301" y="0"/>
      <point x="306" y="-3"/>
      <point x="312" y="-3" type="curve" smooth="yes"/>
      <point x="323" y="-3"/>
      <point x="338" y="-2"/>
      <point x="354" y="0" type="curve" smooth="yes"/>
      <point x="362" y="1"/>
      <point x="368" y="5"/>
      <point x="371" y="14" type="curve"/>
      <point x="392" y="90"/>
      <point x="420" y="138"/>
      <point x="461" y="201" type="curve" smooth="yes"/>
      <point x="505" y="269"/>
      <point x="557" y="333"/>
      <point x="583" y="333" type="curve" smooth="yes"/>
      <point x="595" y="333"/>
      <point x="601" y="323"/>
      <point x="601" y="314" type="curve" smooth="yes"/>
      <point x="601" y="254"/>
      <point x="523" y="67"/>
      <point x="523" y="25" type="curve" smooth="yes"/>
      <point x="523" y="7"/>
      <point x="540" y="-7"/>
      <point x="561" y="-7" type="curve" smooth="yes"/>
      <point x="618" y="-7"/>
      <point x="728" y="111"/>
      <point x="728" y="120" type="curve" smooth="yes"/>
      <point x="728" y="124"/>
      <point x="717" y="135"/>
      <point x="713" y="135" type="curve" smooth="yes"/>
      <point x="707" y="135"/>
      <point x="636" y="52"/>
      <point x="619" y="52" type="curve" smooth="yes"/>
      <point x="607" y="52"/>
      <point x="604" y="65"/>
      <point x="604" y="73" type="curve" smooth="yes"/>
      <point x="604" y="111"/>
      <point x="677" y="292"/>
      <point x="677" y="345" type="curve" smooth="yes"/>
      <point x="677" y="364"/>
      <point x="669" y="382"/>
      <point x="623" y="382" type="curve" smooth="yes"/>
      <point x="526" y="382"/>
      <point x="430" y="202"/>
      <point x="383" y="112" type="curve"/>
      <point x="399" y="163"/>
      <point x="430" y="271"/>
      <point x="430" y="332" type="curve" smooth="yes"/>
      <point x="430" y="355"/>
      <point x="419" y="382"/>
      <point x="393" y="382" type="curve" smooth="yes"/>
      <point x="313" y="382"/>
      <point x="239" y="281"/>
      <point x="175" y="140" type="curve"/>
      <point x="188" y="216"/>
      <point x="206" y="298"/>
      <point x="206" y="354" type="curve" smooth="yes"/>
      <point x="206" y="373"/>
      <point x="196" y="376"/>
      <point x="185" y="376" type="curve" smooth="yes"/>
      <point x="134" y="376"/>
      <point x="12" y="268"/>
      <point x="12" y="255" type="curve" smooth="yes"/>
    </contour>
  </outline>
</glyph>
<glyph name="o" format="1">
  <advance width="419"/>
  <unicode hex="006F"/>
  <outline>
    <contour>
      <point x="22" y="61"/>
      <point x="69" y="-11"/>
      <point x="165" y="-11" type="curve" smooth="yes"/>
      <point x="293" y="-11"/>
      <point x="397" y="114"/>
      <point x="397" y="238" type="curve" smooth="yes"/>
      <point x="397" y="301"/>
      <point x="364" y="400"/>
      <point x="256" y="400" type="curve" smooth="yes"/>
      <point x="121" y="400"/>
      <point x="22" y="285"/>
      <point x="22" y="138" type="curve" smooth="yes"/>
    </contour>
    <contour>
      <point x="90" y="233"/>
      <point x="168" y="371"/>
      <point x="245" y="371" type="curve" smooth="yes"/>
      <point x="315" y="371"/>
      <point x="328" y="312"/>
      <point x="328" y="278" type="curve" smooth="yes"/>
      <point x="328" y="188"/>
      <point x="262" y="19"/>
      <point x="167" y="19" type="curve" smooth="yes"/>
      <point x="92" y="19"/>
      <point x="90" y="103"/>
      <point x="90" y="146" type="curve" smooth="yes"/>
    </contour>
  </outline>
</glyph>
<glyph name="q" format="1">
  <advance width="455"/>
  <unicode hex="0071"/>
  <outline>
    <contour>
      <point x="22" y="-3"/>
      <point x="93" y="-10"/>
      <point x="109" y="-10" type="curve" smooth="yes"/>
      <point x="163" y="-10"/>
      <point x="209" y="44"/>
      <point x="249" y="96" type="curve" smooth="yes"/>
      <point x="278" y="134"/>
      <point x="322" y="214"/>
      <point x="322" y="214" type="curve"/>
      <point x="258" y="-136"/>
      <point x="255" y="-126"/>
      <point x="233" y="-228" type="curve" smooth="yes"/>
      <point x="227" y="-253"/>
      <point x="230" y="-248"/>
      <point x="203" y="-252" type="curve"/>
      <point x="187" y="-255"/>
      <point x="181" y="-257"/>
      <point x="180" y="-276" type="curve" smooth="yes"/>
      <point x="179" y="-290"/>
      <point x="189" y="-291"/>
      <point x="196" y="-291" type="curve" smooth="yes"/>
      <point x="202" y="-291"/>
      <point x="252" y="-284"/>
      <point x="283" y="-284" type="curve" smooth="yes"/>
      <point x="326" y="-284"/>
      <point x="363" y="-287"/>
      <point x="368" y="-287" type="curve" smooth="yes"/>
      <point x="387" y="-287"/>
      <point x="387" y="-276"/>
      <point x="387" y="-262" type="curve" smooth="yes"/>
      <point x="387" y="-255"/>
      <point x="386" y="-247"/>
      <point x="375" y="-246" type="curve" smooth="yes"/>
      <point x="340" y="-244"/>
      <point x="339" y="-244"/>
      <point x="320" y="-244" type="curve" smooth="yes"/>
      <point x="312" y="-244"/>
      <point x="309" y="-243"/>
      <point x="309" y="-236" type="curve" smooth="yes"/>
      <point x="309" y="-224"/>
      <point x="364" y="72"/>
      <point x="399" y="278" type="curve"/>
      <point x="401" y="287"/>
      <point x="403" y="296"/>
      <point x="406" y="303" type="curve" smooth="yes"/>
      <point x="420" y="333"/>
      <point x="433" y="357"/>
      <point x="433" y="365" type="curve" smooth="yes"/>
      <point x="433" y="372"/>
      <point x="428" y="378"/>
      <point x="422" y="378" type="curve" smooth="yes"/>
      <point x="412" y="378"/>
      <point x="397" y="369"/>
      <point x="390" y="365" type="curve"/>
      <point x="382" y="360"/>
      <point x="377" y="358"/>
      <point x="374" y="358" type="curve" smooth="yes"/>
      <point x="373" y="358"/>
      <point x="370" y="360"/>
      <point x="361" y="364" type="curve" smooth="yes"/>
      <point x="343" y="372"/>
      <point x="311" y="384"/>
      <point x="274" y="384" type="curve" smooth="yes"/>
      <point x="115" y="384"/>
      <point x="22" y="167"/>
      <point x="22" y="74" type="curve" smooth="yes"/>
    </contour>
    <contour>
      <point x="92" y="172"/>
      <point x="188" y="358"/>
      <point x="274" y="358" type="curve" smooth="yes"/>
      <point x="318" y="358"/>
      <point x="339" y="328"/>
      <point x="339" y="318" type="curve" smooth="yes"/>
      <point x="339" y="290"/>
      <point x="298" y="220"/>
      <point x="276" y="188" type="curve" smooth="yes"/>
      <point x="230" y="120"/>
      <point x="169" y="43"/>
      <point x="136" y="43" type="curve" smooth="yes"/>
      <point x="114" y="43"/>
      <point x="92" y="63"/>
      <point x="92" y="99" type="curve" smooth="yes"/>
    </contour>
  </outline>
</glyph>
<glyph name="r" format="1">
  <advance width="341"/>
  <unicode hex="0072"/>
  <outline>
    <contour>
      <point x="21" y="284"/>
      <point x="30" y="276"/>
      <point x="32" y="276" type="curve" smooth="yes"/>
      <point x="38" y="276"/>
      <point x="77" y="328"/>
      <point x="101" y="328" type="curve" smooth="yes"/>
      <point x="110" y="328"/>
      <point x="111" y="308"/>
      <point x="111" y="293" type="curve" smooth="yes"/>
      <point x="111" y="237"/>
      <point x="63" y="9"/>
      <point x="63" y="0" type="curve" smooth="yes"/>
      <point x="63" y="-6"/>
      <point x="69" y="-7"/>
      <point x="76" y="-7" type="curve" smooth="yes"/>
      <point x="84" y="-7"/>
      <point x="129" y="-4"/>
      <point x="131" y="6" type="curve" smooth="yes"/>
      <point x="143" y="60"/>
      <point x="149" y="95"/>
      <point x="164" y="157" type="curve" smooth="yes"/>
      <point x="167" y="168"/>
      <point x="169" y="179"/>
      <point x="175" y="195" type="curve" smooth="yes"/>
      <point x="193" y="242"/>
      <point x="214" y="291"/>
      <point x="232" y="319" type="curve" smooth="yes"/>
      <point x="239" y="330"/>
      <point x="245" y="335"/>
      <point x="254" y="335" type="curve" smooth="yes"/>
      <point x="273" y="335"/>
      <point x="285" y="317"/>
      <point x="309" y="317" type="curve" smooth="yes"/>
      <point x="328" y="317"/>
      <point x="334" y="340"/>
      <point x="334" y="357" type="curve" smooth="yes"/>
      <point x="334" y="383"/>
      <point x="307" y="396"/>
      <point x="284" y="396" type="curve" smooth="yes"/>
      <point x="250" y="396"/>
      <point x="224" y="367"/>
      <point x="209" y="339" type="curve" smooth="yes"/>
      <point x="185" y="295"/>
      <point x="166" y="239"/>
      <point x="151" y="199" type="curve"/>
      <point x="160" y="252"/>
      <point x="176" y="347"/>
      <point x="176" y="366" type="curve" smooth="yes"/>
      <point x="176" y="376"/>
      <point x="173" y="389"/>
      <point x="155" y="389" type="curve" smooth="yes"/>
      <point x="107" y="389"/>
      <point x="21" y="301"/>
      <point x="21" y="291" type="curve" smooth="yes"/>
    </contour>
  </outline>
</glyph>
<glyph name="v" format="1">
  <advance width="443"/>
  <unicode hex="0076"/>
  <outline>
    <contour>
      <point x="7" y="292"/>
      <point x="19" y="283"/>
      <point x="27" y="283" type="curve" smooth="yes"/>
      <point x="34" y="283"/>
      <point x="74" y="347"/>
      <point x="106" y="347" type="curve" smooth="yes"/>
      <point x="109" y="347"/>
      <point x="122" y="343"/>
      <point x="128" y="339" type="curve" smooth="yes"/>
      <point x="136" y="334"/>
      <point x="137" y="329"/>
      <point x="137" y="319" type="curve" smooth="yes"/>
      <point x="137" y="256"/>
      <point x="117" y="138"/>
      <point x="117" y="97" type="curve" smooth="yes"/>
      <point x="117" y="49"/>
      <point x="129" y="36"/>
      <point x="157" y="14" type="curve" smooth="yes"/>
      <point x="167" y="6"/>
      <point x="186" y="-8"/>
      <point x="200" y="-8" type="curve" smooth="yes"/>
      <point x="213" y="-8"/>
      <point x="219" y="0"/>
      <point x="227" y="13" type="curve" smooth="yes"/>
      <point x="233" y="23"/>
      <point x="242" y="37"/>
      <point x="249" y="46" type="curve" smooth="yes"/>
      <point x="328" y="147"/>
      <point x="421" y="258"/>
      <point x="421" y="361" type="curve" smooth="yes"/>
      <point x="421" y="398"/>
      <point x="401" y="404"/>
      <point x="378" y="404" type="curve" smooth="yes"/>
      <point x="351" y="404"/>
      <point x="277" y="389"/>
      <point x="277" y="378" type="curve" smooth="yes"/>
      <point x="277" y="367"/>
      <point x="281" y="359"/>
      <point x="286" y="359" type="curve" smooth="yes"/>
      <point x="290" y="359"/>
      <point x="321" y="368"/>
      <point x="345" y="368" type="curve" smooth="yes"/>
      <point x="358" y="368"/>
      <point x="367" y="362"/>
      <point x="367" y="331" type="curve" smooth="yes"/>
      <point x="367" y="254"/>
      <point x="309" y="176"/>
      <point x="266" y="118" type="curve" smooth="yes"/>
      <point x="254" y="102"/>
      <point x="242" y="85"/>
      <point x="235" y="77" type="curve"/>
      <point x="228" y="68"/>
      <point x="220" y="67"/>
      <point x="214" y="67" type="curve" smooth="yes"/>
      <point x="210" y="67"/>
      <point x="183" y="85"/>
      <point x="183" y="100" type="curve" smooth="yes"/>
      <point x="183" y="137"/>
      <point x="208" y="268"/>
      <point x="208" y="337" type="curve" smooth="yes"/>
      <point x="208" y="361"/>
      <point x="197" y="368"/>
      <point x="167" y="385" type="curve" smooth="yes"/>
      <point x="156" y="391"/>
      <point x="136" y="395"/>
      <point x="124" y="395" type="curve" smooth="yes"/>
      <point x="86" y="395"/>
      <point x="7" y="313"/>
      <point x="7" y="299" type="curve" smooth="yes"/>
    </contour>
  </outline>
</glyph>
<glyph name="x" format="1">
  <advance width="458"/>
  <unicode hex="0078"/>
  <outline>
    <contour>
      <point x="12" y="3"/>
      <point x="30" y="-6"/>
      <point x="49" y="-6" type="curve" smooth="yes"/>
      <point x="116" y="-6"/>
      <point x="183" y="108"/>
      <point x="222" y="153" type="curve"/>
      <point x="225" y="156"/>
      <point x="228" y="156"/>
      <point x="229" y="153" type="curve" smooth="yes"/>
      <point x="258" y="69"/>
      <point x="276" y="-6"/>
      <point x="331" y="-6" type="curve" smooth="yes"/>
      <point x="383" y="-6"/>
      <point x="446" y="90"/>
      <point x="446" y="111" type="curve" smooth="yes"/>
      <point x="446" y="116"/>
      <point x="429" y="121"/>
      <point x="425" y="121" type="curve" smooth="yes"/>
      <point x="419" y="121"/>
      <point x="392" y="55"/>
      <point x="365" y="55" type="curve" smooth="yes"/>
      <point x="335" y="55"/>
      <point x="295" y="160"/>
      <point x="280" y="205" type="curve"/>
      <point x="278" y="212"/>
      <point x="277" y="217"/>
      <point x="281" y="222" type="curve"/>
      <point x="314" y="271"/>
      <point x="374" y="354"/>
      <point x="400" y="354" type="curve" smooth="yes"/>
      <point x="408" y="354"/>
      <point x="414" y="349"/>
      <point x="414" y="332" type="curve" smooth="yes"/>
      <point x="414" y="316"/>
      <point x="413" y="301"/>
      <point x="413" y="299" type="curve" smooth="yes"/>
      <point x="413" y="296"/>
      <point x="420" y="294"/>
      <point x="426" y="294" type="curve" smooth="yes"/>
      <point x="431" y="294"/>
      <point x="436" y="295"/>
      <point x="436" y="298" type="curve"/>
      <point x="438" y="313"/>
      <point x="444" y="334"/>
      <point x="444" y="356" type="curve" smooth="yes"/>
      <point x="444" y="377"/>
      <point x="435" y="399"/>
      <point x="416" y="399" type="curve" smooth="yes"/>
      <point x="354" y="399"/>
      <point x="305" y="304"/>
      <point x="271" y="252" type="curve"/>
      <point x="268" y="247"/>
      <point x="266" y="244"/>
      <point x="264" y="249" type="curve" smooth="yes"/>
      <point x="230" y="338"/>
      <point x="216" y="391"/>
      <point x="148" y="391" type="curve" smooth="yes"/>
      <point x="81" y="391"/>
      <point x="26" y="312"/>
      <point x="26" y="304" type="curve" smooth="yes"/>
      <point x="26" y="298"/>
      <point x="34" y="287"/>
      <point x="41" y="287" type="curve" smooth="yes"/>
      <point x="46" y="287"/>
      <point x="85" y="345"/>
      <point x="115" y="345" type="curve" smooth="yes"/>
      <point x="154" y="345"/>
      <point x="187" y="270"/>
      <point x="212" y="199" type="curve"/>
      <point x="215" y="189"/>
      <point x="216" y="188"/>
      <point x="211" y="181" type="curve" smooth="yes"/>
      <point x="186" y="147"/>
      <point x="104" y="46"/>
      <point x="74" y="46" type="curve" smooth="yes"/>
      <point x="64" y="46"/>
      <point x="56" y="52"/>
      <point x="56" y="65" type="curve" smooth="yes"/>
      <point x="56" y="86"/>
      <point x="66" y="105"/>
      <point x="66" y="111" type="curve" smooth="yes"/>
      <point x="66" y="120"/>
      <point x="51" y="122"/>
      <point x="49" y="122" type="curve" smooth="yes"/>
      <point x="43" y="122"/>
      <point x="41" y="121"/>
      <point x="38" y="115" type="curve"/>
      <point x="24" y="84"/>
      <point x="12" y="47"/>
      <point x="12" y="23" type="curve" smooth="yes"/>
    </contour>
  </outline>
</glyph>
<glyph name="y" format="1">
  <advance width="422"/>
  <unicode hex="0079"/>
  <outline>
    <contour>
      <point x="-16" y="-273"/>
      <point x="-10" y="-292"/>
      <point x="4" y="-292" type="curve" smooth="yes"/>
      <point x="25" y="-292"/>
      <point x="54" y="-272"/>
      <point x="79" y="-257" type="curve" smooth="yes"/>
      <point x="97" y="-246"/>
      <point x="111" y="-235"/>
      <point x="120" y="-218" type="curve" smooth="yes"/>
      <point x="153" y="-160"/>
      <point x="199" y="-70"/>
      <point x="221" y="-28" type="curve" smooth="yes"/>
      <point x="231" y="-9" type="line"/>
      <point x="234" y="-4"/>
      <point x="254" y="29"/>
      <point x="260" y="40" type="curve" smooth="yes"/>
      <point x="307" y="121"/>
      <point x="397" y="280"/>
      <point x="408" y="352" type="curve" smooth="yes"/>
      <point x="409" y="358"/>
      <point x="410" y="365"/>
      <point x="410" y="369" type="curve" smooth="yes"/>
      <point x="410" y="388"/>
      <point x="384" y="397"/>
      <point x="371" y="397" type="curve" smooth="yes"/>
      <point x="363" y="397"/>
      <point x="358" y="389"/>
      <point x="357" y="377" type="curve" smooth="yes"/>
      <point x="354" y="342"/>
      <point x="352" y="315"/>
      <point x="340" y="277" type="curve" smooth="yes"/>
      <point x="316" y="200"/>
      <point x="267" y="119"/>
      <point x="233" y="54" type="curve"/>
      <point x="225" y="243"/>
      <point x="225" y="385"/>
      <point x="135" y="385" type="curve" smooth="yes"/>
      <point x="66" y="385"/>
      <point x="6" y="290"/>
      <point x="6" y="284" type="curve" smooth="yes"/>
      <point x="6" y="278"/>
      <point x="23" y="272"/>
      <point x="25" y="272" type="curve" smooth="yes"/>
      <point x="29" y="272"/>
      <point x="67" y="334"/>
      <point x="105" y="334" type="curve" smooth="yes"/>
      <point x="161" y="334"/>
      <point x="171" y="132"/>
      <point x="171" y="17" type="curve" smooth="yes"/>
      <point x="171" y="-23"/>
      <point x="166" y="-59"/>
      <point x="112" y="-159" type="curve" smooth="yes"/>
      <point x="101" y="-178"/>
      <point x="80" y="-199"/>
      <point x="61" y="-206" type="curve" smooth="yes"/>
      <point x="30" y="-217"/>
      <point x="-16" y="-220"/>
      <point x="-16" y="-262" type="curve" smooth="yes"/>
    </contour>
  </outline>
</glyph>
<glyph name="z" format="1">
  <advance width="414"/>
  <unicode hex="007A"/>
  <outline>
    <contour>
      <point x="22" y="-9"/>
      <point x="30" y="-13"/>
      <point x="36" y="-13" type="curve" smooth="yes"/>
      <point x="52" y="-13"/>
      <point x="60" y="11"/>
      <point x="65" y="11" type="curve" smooth="yes"/>
      <point x="144" y="11"/>
      <point x="283" y="-5"/>
      <point x="336" y="-5" type="curve" smooth="yes"/>
      <point x="348" y="-5" type="line" smooth="yes"/>
      <point x="364" y="-5"/>
      <point x="382" y="-4"/>
      <point x="382" y="12" type="curve" smooth="yes"/>
      <point x="382" y="18"/>
      <point x="377" y="66"/>
      <point x="374" y="100" type="curve"/>
      <point x="374" y="105"/>
      <point x="372" y="106"/>
      <point x="367" y="106" type="curve" smooth="yes"/>
      <point x="362" y="106" type="line" smooth="yes"/>
      <point x="352" y="106"/>
      <point x="348" y="106"/>
      <point x="348" y="99" type="curve" smooth="yes"/>
      <point x="348" y="97"/>
      <point x="349" y="70"/>
      <point x="349" y="69" type="curve" smooth="yes"/>
      <point x="349" y="56"/>
      <point x="348" y="54"/>
      <point x="337" y="54" type="curve" smooth="yes"/>
      <point x="299" y="54"/>
      <point x="206" y="64"/>
      <point x="120" y="68" type="curve"/>
      <point x="110" y="68"/>
      <point x="107" y="70"/>
      <point x="112" y="75" type="curve"/>
      <point x="332" y="319" type="line" smooth="yes"/>
      <point x="345" y="333"/>
      <point x="392" y="344"/>
      <point x="392" y="373" type="curve" smooth="yes"/>
      <point x="392" y="383"/>
      <point x="384" y="392"/>
      <point x="374" y="392" type="curve" smooth="yes"/>
      <point x="348" y="392"/>
      <point x="338" y="355"/>
      <point x="324" y="355" type="curve" smooth="yes"/>
      <point x="283" y="355"/>
      <point x="204" y="399"/>
      <point x="158" y="399" type="curve" smooth="yes"/>
      <point x="103" y="399"/>
      <point x="54" y="315"/>
      <point x="54" y="310" type="curve" smooth="yes"/>
      <point x="54" y="306"/>
      <point x="66" y="298"/>
      <point x="71" y="298" type="curve" smooth="yes"/>
      <point x="77" y="298"/>
      <point x="102" y="347"/>
      <point x="137" y="347" type="curve" smooth="yes"/>
      <point x="169" y="347"/>
      <point x="236" y="315"/>
      <point x="280" y="315" type="curve" smooth="yes"/>
      <point x="282" y="315"/>
      <point x="283" y="315"/>
      <point x="289" y="316" type="curve" smooth="yes"/>
      <point x="294" y="317"/>
      <point x="290" y="314"/>
      <point x="289" y="312" type="curve"/>
      <point x="54" y="50" type="line" smooth="yes"/>
      <point x="44" y="39"/>
      <point x="22" y="22"/>
      <point x="22" y="2" type="curve" smooth="yes"/>
    </contour>
  </outline>
</glyph>
<glyph name="exclamdown" format="1">
  <advance width="220"/>
  <unicode hex="00A1"/>
  <outline>
    <contour>
      <point x="2" y="-4"/>
      <point x="10" y="-11"/>
      <point x="30" y="-11" type="curve" smooth="yes"/>
      <point x="35" y="-11" type="line" smooth="yes"/>
      <point x="48" y="-11"/>
      <point x="66" y="-6"/>
      <point x="67" y="14" type="curve" smooth="yes"/>
      <point x="72" y="75"/>
      <point x="79" y="141"/>
      <point x="101" y="316" type="curve" smooth="yes"/>
      <point x="113" y="412"/>
      <point x="121" y="494"/>
      <point x="121" y="499" type="curve" smooth="yes"/>
      <point x="121" y="505"/>
      <point x="115" y="506"/>
      <point x="109" y="506" type="curve" smooth="yes"/>
      <point x="101" y="506" type="line" smooth="yes"/>
      <point x="97" y="506"/>
      <point x="91" y="506"/>
      <point x="90" y="499" type="curve" smooth="yes"/>
      <point x="44" y="212"/>
      <point x="13" y="62"/>
      <point x="4" y="22" type="curve" smooth="yes"/>
      <point x="3" y="17"/>
      <point x="2" y="14"/>
      <point x="2" y="9" type="curve" smooth="yes"/>
    </contour>
    <contour>
      <point x="62" y="584"/>
      <point x="89" y="556"/>
      <point x="109" y="556" type="curve" smooth="yes"/>
      <point x="130" y="556"/>
      <point x="158" y="583"/>
      <point x="158" y="611" type="curve" smooth="yes"/>
      <point x="158" y="628"/>
      <point x="135" y="660"/>
      <point x="105" y="660" type="curve" smooth="yes"/>
      <point x="93" y="660"/>
      <point x="62" y="643"/>
      <point x="62" y="606" type="curve" smooth="yes"/>
    </contour>
  </outline>
</glyph>
<glyph name="cent" format="1">
  <advance width="407"/>
  <unicode hex="00A2"/>
  <outline>
    <contour>
      <point x="39" y="67"/>
      <point x="83" y="6"/>
      <point x="161" y="-9" type="curve" smooth="yes"/>
      <point x="170" y="-11"/>
      <point x="170" y="-10"/>
      <point x="169" y="-18" type="curve" smooth="yes"/>
      <point x="160" y="-81"/>
      <point x="151" y="-125"/>
      <point x="151" y="-129" type="curve" smooth="yes"/>
      <point x="151" y="-132"/>
      <point x="158" y="-133"/>
      <point x="164" y="-133" type="curve" smooth="yes"/>
      <point x="170" y="-133" type="line" smooth="yes"/>
      <point x="176" y="-133"/>
      <point x="182" y="-83"/>
      <point x="193" y="-19" type="curve"/>
      <point x="195" y="-12"/>
      <point x="196" y="-13"/>
      <point x="202" y="-13" type="curve" smooth="yes"/>
      <point x="295" y="-13"/>
      <point x="357" y="47"/>
      <point x="358" y="56" type="curve" smooth="yes"/>
      <point x="359" y="64"/>
      <point x="354" y="67"/>
      <point x="349" y="67" type="curve" smooth="yes"/>
      <point x="339" y="67"/>
      <point x="298" y="37"/>
      <point x="234" y="37" type="curve" smooth="yes"/>
      <point x="226" y="37"/>
      <point x="216" y="38"/>
      <point x="211" y="39" type="curve"/>
      <point x="208" y="40"/>
      <point x="205" y="39"/>
      <point x="206" y="48" type="curve"/>
      <point x="257" y="359" type="line"/>
      <point x="258" y="367"/>
      <point x="260" y="368"/>
      <point x="265" y="367" type="curve"/>
      <point x="301" y="358"/>
      <point x="302" y="320"/>
      <point x="311" y="280" type="curve"/>
      <point x="314" y="269"/>
      <point x="321" y="267"/>
      <point x="329" y="267" type="curve" smooth="yes"/>
      <point x="338" y="267"/>
      <point x="351" y="274"/>
      <point x="360" y="281" type="curve" smooth="yes"/>
      <point x="370" y="289"/>
      <point x="372" y="296"/>
      <point x="372" y="308" type="curve" smooth="yes"/>
      <point x="372" y="354"/>
      <point x="325" y="389"/>
      <point x="273" y="399" type="curve"/>
      <point x="265" y="401"/>
      <point x="263" y="400"/>
      <point x="265" y="408" type="curve"/>
      <point x="269" y="433"/>
      <point x="279" y="490"/>
      <point x="279" y="491" type="curve" smooth="yes"/>
      <point x="279" y="495"/>
      <point x="270" y="496"/>
      <point x="263" y="496" type="curve" smooth="yes"/>
      <point x="257" y="496" type="line" smooth="yes"/>
      <point x="252" y="496"/>
      <point x="252" y="488"/>
      <point x="252" y="488" type="curve"/>
      <point x="250" y="477"/>
      <point x="246" y="449"/>
      <point x="240" y="412" type="curve"/>
      <point x="239" y="404"/>
      <point x="239" y="401"/>
      <point x="231" y="400" type="curve" smooth="yes"/>
      <point x="140" y="388"/>
      <point x="39" y="303"/>
      <point x="39" y="153" type="curve" smooth="yes"/>
    </contour>
    <contour>
      <point x="107" y="264"/>
      <point x="154" y="351"/>
      <point x="224" y="367" type="curve"/>
      <point x="226" y="367"/>
      <point x="227" y="368"/>
      <point x="228" y="368" type="curve" smooth="yes"/>
      <point x="231" y="368"/>
      <point x="232" y="365"/>
      <point x="231" y="360" type="curve" smooth="yes"/>
      <point x="180" y="52" type="line"/>
      <point x="180" y="50"/>
      <point x="179" y="49"/>
      <point x="178" y="49" type="curve" smooth="yes"/>
      <point x="177" y="49"/>
      <point x="176" y="50"/>
      <point x="174" y="51" type="curve" smooth="yes"/>
      <point x="129" y="75"/>
      <point x="107" y="127"/>
      <point x="107" y="182" type="curve" smooth="yes"/>
    </contour>
  </outline>
</glyph>
<glyph name="sterling" format="1">
  <advance width="489"/>
  <unicode hex="00A3"/>
  <outline>
    <contour>
      <point x="17" y="-32"/>
      <point x="28" y="-37"/>
      <point x="36" y="-37" type="curve" smooth="yes"/>
      <point x="66" y="-37"/>
      <point x="95" y="11"/>
      <point x="110" y="11" type="curve" smooth="yes"/>
      <point x="128" y="11"/>
      <point x="287" y="-17"/>
      <point x="342" y="-17" type="curve" smooth="yes"/>
      <point x="399" y="-17"/>
      <point x="467" y="10"/>
      <point x="467" y="78" type="curve" smooth="yes"/>
      <point x="467" y="100"/>
      <point x="457" y="129"/>
      <point x="434" y="129" type="curve" smooth="yes"/>
      <point x="422" y="129"/>
      <point x="404" y="125"/>
      <point x="404" y="116" type="curve" smooth="yes"/>
      <point x="404" y="115"/>
      <point x="404" y="113"/>
      <point x="405" y="112" type="curve"/>
      <point x="412" y="96"/>
      <point x="435" y="81"/>
      <point x="435" y="63" type="curve" smooth="yes"/>
      <point x="435" y="34"/>
      <point x="408" y="29"/>
      <point x="381" y="29" type="curve" smooth="yes"/>
      <point x="351" y="29"/>
      <point x="249" y="52"/>
      <point x="196" y="52" type="curve" smooth="yes"/>
      <point x="185" y="52"/>
      <point x="158" y="50"/>
      <point x="141" y="43" type="curve" smooth="yes"/>
      <point x="134" y="40"/>
      <point x="129" y="38"/>
      <point x="126" y="38" type="curve" smooth="yes"/>
      <point x="125" y="38"/>
      <point x="124" y="39"/>
      <point x="124" y="40" type="curve"/>
      <point x="124" y="40"/>
      <point x="126" y="47"/>
      <point x="130" y="54" type="curve"/>
      <point x="144" y="82"/>
      <point x="173" y="143"/>
      <point x="191" y="231" type="curve"/>
      <point x="195" y="247"/>
      <point x="194" y="245"/>
      <point x="204" y="245" type="curve" smooth="yes"/>
      <point x="314" y="245" type="line" smooth="yes"/>
      <point x="323" y="245"/>
      <point x="325" y="249"/>
      <point x="325" y="260" type="curve" smooth="yes"/>
      <point x="325" y="271"/>
      <point x="324" y="275"/>
      <point x="315" y="275" type="curve" smooth="yes"/>
      <point x="203" y="275" type="line" smooth="yes"/>
      <point x="198" y="275"/>
      <point x="198" y="276"/>
      <point x="198" y="282" type="curve"/>
      <point x="205" y="353"/>
      <point x="213" y="443"/>
      <point x="233" y="518" type="curve" smooth="yes"/>
      <point x="248" y="574"/>
      <point x="278" y="626"/>
      <point x="346" y="626" type="curve" smooth="yes"/>
      <point x="387" y="626"/>
      <point x="417" y="597"/>
      <point x="417" y="579" type="curve" smooth="yes"/>
      <point x="417" y="560"/>
      <point x="411" y="538"/>
      <point x="411" y="522" type="curve" smooth="yes"/>
      <point x="411" y="505"/>
      <point x="417" y="481"/>
      <point x="438" y="481" type="curve" smooth="yes"/>
      <point x="466" y="481"/>
      <point x="466" y="523"/>
      <point x="466" y="546" type="curve" smooth="yes"/>
      <point x="466" y="623"/>
      <point x="412" y="656"/>
      <point x="355" y="656" type="curve" smooth="yes"/>
      <point x="326" y="656"/>
      <point x="297" y="649"/>
      <point x="274" y="638" type="curve" smooth="yes"/>
      <point x="201" y="601"/>
      <point x="160" y="514"/>
      <point x="147" y="422" type="curve" smooth="yes"/>
      <point x="135" y="339"/>
      <point x="134" y="289"/>
      <point x="133" y="281" type="curve"/>
      <point x="133" y="275"/>
      <point x="133" y="275"/>
      <point x="124" y="275" type="curve" smooth="yes"/>
      <point x="49" y="275" type="line" smooth="yes"/>
      <point x="42" y="275"/>
      <point x="42" y="268"/>
      <point x="42" y="257" type="curve" smooth="yes"/>
      <point x="42" y="248"/>
      <point x="44" y="245"/>
      <point x="49" y="245" type="curve" smooth="yes"/>
      <point x="122" y="245" type="line" smooth="yes"/>
      <point x="129" y="245"/>
      <point x="129" y="244"/>
      <point x="129" y="232" type="curve" smooth="yes"/>
      <point x="128" y="196"/>
      <point x="122" y="153"/>
      <point x="116" y="112" type="curve" smooth="yes"/>
      <point x="111" y="79"/>
      <point x="99" y="25"/>
      <point x="80" y="22" type="curve" smooth="yes"/>
      <point x="62" y="19"/>
      <point x="17" y="16"/>
      <point x="17" y="-16" type="curve" smooth="yes"/>
    </contour>
  </outline>
</glyph>
<glyph name="currency" format="1">
  <advance width="494"/>
  <unicode hex="00A4"/>
  <outline>
    <contour>
      <point x="22" y="-6"/>
      <point x="33" y="-19"/>
      <point x="49" y="-19" type="curve" smooth="yes"/>
      <point x="65" y="-19"/>
      <point x="77" y="-4"/>
      <point x="79" y="-2" type="curve" smooth="yes"/>
      <point x="139" y="57" type="line"/>
      <point x="167" y="36"/>
      <point x="205" y="23"/>
      <point x="244" y="23" type="curve" smooth="yes"/>
      <point x="284" y="23"/>
      <point x="320" y="36"/>
      <point x="350" y="58" type="curve"/>
      <point x="410" y="-2" type="line" smooth="yes"/>
      <point x="418" y="-10"/>
      <point x="426" y="-20"/>
      <point x="439" y="-20" type="curve" smooth="yes"/>
      <point x="453" y="-20"/>
      <point x="467" y="-8"/>
      <point x="467" y="8" type="curve" smooth="yes"/>
      <point x="467" y="24"/>
      <point x="450" y="36"/>
      <point x="449" y="37" type="curve" smooth="yes"/>
      <point x="389" y="98" type="line"/>
      <point x="410" y="126"/>
      <point x="425" y="163"/>
      <point x="425" y="202" type="curve" smooth="yes"/>
      <point x="425" y="242"/>
      <point x="411" y="277"/>
      <point x="389" y="308" type="curve"/>
      <point x="449" y="369" type="line" smooth="yes"/>
      <point x="457" y="377"/>
      <point x="467" y="385"/>
      <point x="467" y="398" type="curve" smooth="yes"/>
      <point x="467" y="412"/>
      <point x="455" y="425"/>
      <point x="439" y="425" type="curve" smooth="yes"/>
      <point x="423" y="425"/>
      <point x="412" y="410"/>
      <point x="410" y="408" type="curve" smooth="yes"/>
      <point x="350" y="348" type="line"/>
      <point x="323" y="368"/>
      <point x="286" y="382"/>
      <point x="244" y="382" type="curve" smooth="yes"/>
      <point x="205" y="382"/>
      <point x="169" y="370"/>
      <point x="139" y="348" type="curve"/>
      <point x="79" y="408" type="line" smooth="yes"/>
      <point x="71" y="416"/>
      <point x="62" y="425"/>
      <point x="49" y="425" type="curve" smooth="yes"/>
      <point x="35" y="425"/>
      <point x="22" y="414"/>
      <point x="22" y="398" type="curve" smooth="yes"/>
      <point x="22" y="382"/>
      <point x="39" y="370"/>
      <point x="40" y="369" type="curve" smooth="yes"/>
      <point x="98" y="309" type="line"/>
      <point x="77" y="280"/>
      <point x="65" y="243"/>
      <point x="65" y="204" type="curve" smooth="yes"/>
      <point x="65" y="164"/>
      <point x="77" y="128"/>
      <point x="99" y="97" type="curve"/>
      <point x="40" y="37" type="line" smooth="yes"/>
      <point x="32" y="29"/>
      <point x="22" y="21"/>
      <point x="22" y="8" type="curve" smooth="yes"/>
    </contour>
    <contour>
      <point x="122" y="270"/>
      <point x="176" y="329"/>
      <point x="244" y="329" type="curve" smooth="yes"/>
      <point x="311" y="329"/>
      <point x="367" y="270"/>
      <point x="367" y="203" type="curve" smooth="yes"/>
      <point x="367" y="135"/>
      <point x="310" y="79"/>
      <point x="244" y="79" type="curve" smooth="yes"/>
      <point x="178" y="79"/>
      <point x="122" y="133"/>
      <point x="122" y="202" type="curve" smooth="yes"/>
    </contour>
  </outline>
</glyph>
<glyph name="yen" format="1">
  <advance width="613"/>
  <unicode hex="00A5"/>
  <outline>
    <contour>
      <point x="17" y="637"/>
      <point x="26" y="636"/>
      <point x="38" y="636" type="curve" smooth="yes"/>
      <point x="83" y="636" type="line"/>
      <point x="198" y="372" type="line"/>
      <point x="92" y="372" type="line" smooth="yes"/>
      <point x="88" y="372"/>
      <point x="87" y="362"/>
      <point x="87" y="358" type="curve" smooth="yes"/>
      <point x="87" y="354"/>
      <point x="88" y="342"/>
      <point x="92" y="342" type="curve" smooth="yes"/>
      <point x="211" y="342" type="line"/>
      <point x="221" y="318"/>
      <point x="228" y="302"/>
      <point x="228" y="301" type="curve" smooth="yes"/>
      <point x="228" y="297"/>
      <point x="228" y="288"/>
      <point x="223" y="261" type="curve" smooth="yes"/>
      <point x="221" y="250" type="line"/>
      <point x="73" y="250" type="line" smooth="yes"/>
      <point x="67" y="250"/>
      <point x="67" y="240"/>
      <point x="67" y="236" type="curve" smooth="yes"/>
      <point x="67" y="232"/>
      <point x="67" y="220"/>
      <point x="73" y="220" type="curve" smooth="yes"/>
      <point x="216" y="220" type="line"/>
      <point x="193" y="80"/>
      <point x="186" y="35"/>
      <point x="181" y="30" type="curve"/>
      <point x="137" y="30" type="line" smooth="yes"/>
      <point x="120" y="30"/>
      <point x="118" y="26"/>
      <point x="118" y="13" type="curve" smooth="yes"/>
      <point x="118" y="0"/>
      <point x="119" y="-6"/>
      <point x="133" y="-6" type="curve" smooth="yes"/>
      <point x="156" y="-6"/>
      <point x="199" y="-3"/>
      <point x="229" y="-3" type="curve" smooth="yes"/>
      <point x="259" y="-3"/>
      <point x="311" y="-6"/>
      <point x="334" y="-6" type="curve" smooth="yes"/>
      <point x="346" y="-6"/>
      <point x="348" y="-1"/>
      <point x="348" y="14" type="curve" smooth="yes"/>
      <point x="348" y="26"/>
      <point x="346" y="30"/>
      <point x="334" y="30" type="curve" smooth="yes"/>
      <point x="270" y="30" type="line" smooth="yes"/>
      <point x="269" y="30"/>
      <point x="269" y="31"/>
      <point x="269" y="33" type="curve" smooth="yes"/>
      <point x="269" y="42"/>
      <point x="273" y="67"/>
      <point x="279" y="104" type="curve" smooth="yes"/>
      <point x="298" y="220" type="line"/>
      <point x="457" y="220" type="line" smooth="yes"/>
      <point x="462" y="220"/>
      <point x="462" y="231"/>
      <point x="462" y="235" type="curve" smooth="yes"/>
      <point x="462" y="239"/>
      <point x="462" y="250"/>
      <point x="457" y="250" type="curve" smooth="yes"/>
      <point x="303" y="250" type="line"/>
      <point x="313" y="309" type="line"/>
      <point x="315" y="318"/>
      <point x="317" y="324"/>
      <point x="321" y="331" type="curve"/>
      <point x="328" y="342" type="line"/>
      <point x="477" y="342" type="line" smooth="yes"/>
      <point x="482" y="342"/>
      <point x="482" y="353"/>
      <point x="482" y="357" type="curve" smooth="yes"/>
      <point x="482" y="361"/>
      <point x="482" y="372"/>
      <point x="477" y="372" type="curve" smooth="yes"/>
      <point x="349" y="372" type="line"/>
      <point x="415" y="468"/>
      <point x="529" y="623"/>
      <point x="542" y="636" type="curve"/>
      <point x="580" y="636" type="line" smooth="yes"/>
      <point x="592" y="636"/>
      <point x="596" y="637"/>
      <point x="596" y="654" type="curve" smooth="yes"/>
      <point x="596" y="670"/>
      <point x="593" y="672"/>
      <point x="580" y="672" type="curve" smooth="yes"/>
      <point x="564" y="672"/>
      <point x="533" y="669"/>
      <point x="503" y="669" type="curve" smooth="yes"/>
      <point x="473" y="669"/>
      <point x="448" y="672"/>
      <point x="425" y="672" type="curve" smooth="yes"/>
      <point x="411" y="672"/>
      <point x="408" y="668"/>
      <point x="408" y="651" type="curve" smooth="yes"/>
      <point x="408" y="637"/>
      <point x="413" y="636"/>
      <point x="429" y="636" type="curve" smooth="yes"/>
      <point x="479" y="636" type="line"/>
      <point x="479" y="615"/>
      <point x="355" y="437"/>
      <point x="308" y="366" type="curve" smooth="yes"/>
      <point x="299" y="352"/>
      <point x="296" y="346"/>
      <point x="290" y="360" type="curve" smooth="yes"/>
      <point x="262" y="429"/>
      <point x="203" y="572"/>
      <point x="187" y="625" type="curve"/>
      <point x="186" y="630"/>
      <point x="184" y="634"/>
      <point x="184" y="636" type="curve"/>
      <point x="224" y="636" type="line" smooth="yes"/>
      <point x="240" y="636"/>
      <point x="244" y="637"/>
      <point x="244" y="651" type="curve" smooth="yes"/>
      <point x="244" y="668"/>
      <point x="242" y="672"/>
      <point x="228" y="672" type="curve" smooth="yes"/>
      <point x="205" y="672"/>
      <point x="169" y="669"/>
      <point x="139" y="669" type="curve" smooth="yes"/>
      <point x="109" y="669"/>
      <point x="54" y="672"/>
      <point x="38" y="672" type="curve" smooth="yes"/>
      <point x="25" y="672"/>
      <point x="17" y="671"/>
      <point x="17" y="654" type="curve" smooth="yes"/>
    </contour>
  </outline>
</glyph>
<glyph name="dieresis" format="1">
  <advance width="400"/>
  <unicode hex="00A8"/>
  <outline>
    <contour>
      <point x="86" y="513"/>
      <point x="102" y="484"/>
      <point x="133" y="484" type="curve" smooth="yes"/>
      <point x="159" y="484"/>
      <point x="177" y="506"/>
      <point x="177" y="533" type="curve" smooth="yes"/>
      <point x="177" y="555"/>
      <point x="161" y="584"/>
      <point x="130" y="584" type="curve" smooth="yes"/>
      <point x="102" y="584"/>
      <point x="86" y="562"/>
      <point x="86" y="535" type="curve" smooth="yes"/>
    </contour>
    <contour>
      <point x="226" y="513"/>
      <point x="242" y="484"/>
      <point x="273" y="484" type="curve" smooth="yes"/>
      <point x="299" y="484"/>
      <point x="317" y="506"/>
      <point x="317" y="533" type="curve" smooth="yes"/>
      <point x="317" y="555"/>
      <point x="301" y="584"/>
      <point x="270" y="584" type="curve" smooth="yes"/>
      <point x="242" y="584"/>
      <point x="226" y="562"/>
      <point x="226" y="535" type="curve" smooth="yes"/>
    </contour>
  </outline>
</glyph>
<glyph name="ordfeminine" format="1">
  <advance width="379"/>
  <unicode hex="00AA"/>
  <outline>
    <contour>
      <point x="27" y="366"/>
      <point x="45" y="338"/>
      <point x="83" y="338" type="curve" smooth="yes"/>
      <point x="116" y="338"/>
      <point x="137" y="362"/>
      <point x="166" y="391" type="curve" smooth="yes"/>
      <point x="203" y="428"/>
      <point x="234" y="473"/>
      <point x="253" y="504" type="curve"/>
      <point x="239" y="460"/>
      <point x="217" y="386"/>
      <point x="217" y="361" type="curve" smooth="yes"/>
      <point x="217" y="346"/>
      <point x="229" y="337"/>
      <point x="243" y="337" type="curve" smooth="yes"/>
      <point x="281" y="337"/>
      <point x="352" y="413"/>
      <point x="352" y="420" type="curve" smooth="yes"/>
      <point x="352" y="428"/>
      <point x="345" y="436"/>
      <point x="339" y="436" type="curve" smooth="yes"/>
      <point x="332" y="436"/>
      <point x="295" y="389"/>
      <point x="286" y="389" type="curve" smooth="yes"/>
      <point x="282" y="389"/>
      <point x="278" y="394"/>
      <point x="278" y="402" type="curve" smooth="yes"/>
      <point x="278" y="437"/>
      <point x="345" y="649"/>
      <point x="345" y="663" type="curve" smooth="yes"/>
      <point x="345" y="670"/>
      <point x="335" y="672"/>
      <point x="328" y="672" type="curve" smooth="yes"/>
      <point x="318" y="672"/>
      <point x="294" y="671"/>
      <point x="291" y="659" type="curve"/>
      <point x="291" y="658"/>
      <point x="285" y="637"/>
      <point x="281" y="628" type="curve"/>
      <point x="278" y="632"/>
      <point x="273" y="640"/>
      <point x="267" y="648" type="curve"/>
      <point x="256" y="665"/>
      <point x="233" y="674"/>
      <point x="221" y="674" type="curve" smooth="yes"/>
      <point x="91" y="674"/>
      <point x="27" y="495"/>
      <point x="27" y="399" type="curve" smooth="yes"/>
    </contour>
    <contour>
      <point x="88" y="497"/>
      <point x="138" y="633"/>
      <point x="201" y="633" type="curve" smooth="yes"/>
      <point x="226" y="633"/>
      <point x="266" y="617"/>
      <point x="266" y="589" type="curve" smooth="yes"/>
      <point x="266" y="585"/>
      <point x="263" y="561"/>
      <point x="254" y="547" type="curve" smooth="yes"/>
      <point x="212" y="479"/>
      <point x="144" y="389"/>
      <point x="108" y="389" type="curve" smooth="yes"/>
      <point x="90" y="389"/>
      <point x="88" y="411"/>
      <point x="88" y="430" type="curve" smooth="yes"/>
    </contour>
  </outline>
</glyph>
<glyph name="registered" format="1">
  <advance width="536"/>
  <unicode hex="00AE"/>
  <outline>
    <contour>
      <point x="22" y="330"/>
      <point x="128" y="220"/>
      <point x="268" y="220" type="curve" smooth="yes"/>
      <point x="408" y="220"/>
      <point x="514" y="330"/>
      <point x="514" y="470" type="curve" smooth="yes"/>
      <point x="514" y="611"/>
      <point x="408" y="720"/>
      <point x="268" y="720" type="curve" smooth="yes"/>
      <point x="128" y="720"/>
      <point x="22" y="610"/>
      <point x="22" y="470" type="curve" smooth="yes"/>
    </contour>
    <contour>
      <point x="53" y="592"/>
      <point x="146" y="691"/>
      <point x="268" y="691" type="curve" smooth="yes"/>
      <point x="390" y="691"/>
      <point x="483" y="592"/>
      <point x="483" y="470" type="curve" smooth="yes"/>
      <point x="483" y="348"/>
      <point x="390" y="249"/>
      <point x="268" y="249" type="curve" smooth="yes"/>
      <point x="146" y="249"/>
      <point x="53" y="348"/>
      <point x="53" y="470" type="curve" smooth="yes"/>
    </contour>
    <contour>
      <point x="139" y="616"/>
      <point x="144" y="615"/>
      <point x="151" y="615" type="curve"/>
      <point x="175" y="616" type="line"/>
      <point x="178" y="600"/>
      <point x="179" y="523"/>
      <point x="179" y="464" type="curve" smooth="yes"/>
      <point x="179" y="404" type="line" smooth="yes"/>
      <point x="179" y="380"/>
      <point x="178" y="359"/>
      <point x="177" y="349" type="curve"/>
      <point x="159" y="349" type="line" smooth="yes"/>
      <point x="151" y="349"/>
      <point x="147" y="348"/>
      <point x="147" y="339" type="curve" smooth="yes"/>
      <point x="147" y="329"/>
      <point x="149" y="325"/>
      <point x="157" y="325" type="curve" smooth="yes"/>
      <point x="162" y="325"/>
      <point x="190" y="326"/>
      <point x="203" y="326" type="curve" smooth="yes"/>
      <point x="216" y="326"/>
      <point x="245" y="325"/>
      <point x="255" y="325" type="curve" smooth="yes"/>
      <point x="263" y="325"/>
      <point x="263" y="332"/>
      <point x="263" y="339" type="curve" smooth="yes"/>
      <point x="263" y="346"/>
      <point x="262" y="349"/>
      <point x="255" y="349" type="curve" smooth="yes"/>
      <point x="229" y="349" type="line"/>
      <point x="227" y="366"/>
      <point x="225" y="442"/>
      <point x="225" y="469" type="curve"/>
      <point x="227" y="469" type="line" smooth="yes"/>
      <point x="245" y="469"/>
      <point x="264" y="469"/>
      <point x="279" y="467" type="curve" smooth="yes"/>
      <point x="336" y="460"/>
      <point x="340" y="414"/>
      <point x="340" y="363" type="curve" smooth="yes"/>
      <point x="340" y="336" type="line" smooth="yes"/>
      <point x="340" y="329"/>
      <point x="345" y="326"/>
      <point x="350" y="326" type="curve"/>
      <point x="350" y="326"/>
      <point x="397" y="325"/>
      <point x="412" y="325" type="curve" smooth="yes"/>
      <point x="418" y="325"/>
      <point x="423" y="326"/>
      <point x="423" y="334" type="curve" smooth="yes"/>
      <point x="423" y="344"/>
      <point x="423" y="349"/>
      <point x="415" y="349" type="curve" smooth="yes"/>
      <point x="393" y="349" type="line"/>
      <point x="393" y="350"/>
      <point x="392" y="357"/>
      <point x="391" y="374" type="curve" smooth="yes"/>
      <point x="388" y="446"/>
      <point x="347" y="471"/>
      <point x="316" y="482" type="curve"/>
      <point x="337" y="493"/>
      <point x="375" y="516"/>
      <point x="375" y="559" type="curve" smooth="yes"/>
      <point x="375" y="628"/>
      <point x="317" y="642"/>
      <point x="271" y="642" type="curve" smooth="yes"/>
      <point x="261" y="642"/>
      <point x="217" y="639"/>
      <point x="204" y="639" type="curve" smooth="yes"/>
      <point x="191" y="639"/>
      <point x="159" y="640"/>
      <point x="151" y="640" type="curve" smooth="yes"/>
      <point x="145" y="640"/>
      <point x="139" y="640"/>
      <point x="139" y="628" type="curve" smooth="yes"/>
    </contour>
    <contour>
      <point x="225" y="490" type="line"/>
      <point x="225" y="599" type="line" smooth="yes"/>
      <point x="225" y="607"/>
      <point x="225" y="614"/>
      <point x="226" y="619" type="curve"/>
      <point x="233" y="619"/>
      <point x="240" y="620"/>
      <point x="247" y="620" type="curve" smooth="yes"/>
      <point x="288" y="620"/>
      <point x="326" y="595"/>
      <point x="326" y="553" type="curve" smooth="yes"/>
      <point x="326" y="518"/>
      <point x="309" y="499"/>
      <point x="289" y="489" type="curve"/>
      <point x="274" y="489"/>
      <point x="249" y="490"/>
      <point x="227" y="490" type="curve" smooth="yes"/>
    </contour>
  </outline>
</glyph>
<glyph name="macron" format="1">
  <advance width="400"/>
  <unicode hex="00AF"/>
  <outline>
    <contour>
      <point x="97" y="507"/>
      <point x="101" y="506"/>
      <point x="109" y="506" type="curve" smooth="yes"/>
      <point x="290" y="506" type="line" smooth="yes"/>
      <point x="299" y="506"/>
      <point x="300" y="509"/>
      <point x="301" y="517" type="curve" smooth="yes"/>
      <point x="302" y="525"/>
      <point x="303" y="539"/>
      <point x="303" y="541" type="curve" smooth="yes"/>
      <point x="303" y="548"/>
      <point x="299" y="550"/>
      <point x="292" y="550" type="curve" smooth="yes"/>
      <point x="111" y="550" type="line" smooth="yes"/>
      <point x="102" y="550"/>
      <point x="100" y="548"/>
      <point x="99" y="539" type="curve" smooth="yes"/>
      <point x="98" y="531"/>
      <point x="97" y="517"/>
      <point x="97" y="515" type="curve" smooth="yes"/>
    </contour>
  </outline>
</glyph>
<glyph name="degree" format="1">
  <advance width="256"/>
  <unicode hex="00B0"/>
  <outline>
    <contour>
      <point x="37" y="485"/>
      <point x="78" y="444"/>
      <point x="128" y="444" type="curve" smooth="yes"/>
      <point x="178" y="444"/>
      <point x="219" y="485"/>
      <point x="219" y="535" type="curve" smooth="yes"/>
      <point x="219" y="585"/>
      <point x="178" y="626"/>
      <point x="128" y="626" type="curve" smooth="yes"/>
      <point x="78" y="626"/>
      <point x="37" y="585"/>
      <point x="37" y="535" type="curve" smooth="yes"/>
    </contour>
    <contour>
      <point x="74" y="565"/>
      <point x="98" y="589"/>
      <point x="128" y="589" type="curve" smooth="yes"/>
      <point x="158" y="589"/>
      <point x="182" y="565"/>
      <point x="182" y="535" type="curve" smooth="yes"/>
      <point x="182" y="505"/>
      <point x="158" y="481"/>
      <point x="128" y="481" type="curve" smooth="yes"/>
      <point x="98" y="481"/>
      <point x="74" y="505"/>
      <point x="74" y="535" type="curve" smooth="yes"/>
    </contour>
  </outline>
</glyph>
<glyph name="acute" format="1">
  <advance width="400"/>
  <unicode hex="00B4"/>
  <outline>
    <contour>
      <point x="169" y="447"/>
      <point x="173" y="446"/>
      <point x="176" y="446" type="curve" smooth="yes"/>
      <point x="191" y="446" type="line" smooth="yes"/>
      <point x="196" y="446"/>
      <point x="198" y="449"/>
      <point x="201" y="453" type="curve"/>
      <point x="292" y="556" type="line" smooth="yes"/>
      <point x="300" y="565"/>
      <point x="302" y="573"/>
      <point x="302" y="583" type="curve" smooth="yes"/>
      <point x="302" y="597"/>
      <point x="288" y="607"/>
      <point x="268" y="607" type="curve" smooth="yes"/>
      <point x="253" y="607"/>
      <point x="241" y="597"/>
      <point x="233" y="581" type="curve" smooth="yes"/>
      <point x="172" y="458" type="line" smooth="yes"/>
      <point x="171" y="456"/>
      <point x="169" y="454"/>
      <point x="169" y="451" type="curve" smooth="yes"/>
    </contour>
  </outline>
</glyph>
<glyph name="paragraph" format="1">
  <advance width="492"/>
  <unicode hex="00B6"/>
  <outline>
    <contour>
      <point x="37" y="219"/>
      <point x="209" y="151"/>
      <point x="280" y="151" type="curve" smooth="yes"/>
      <point x="286" y="151"/>
      <point x="288" y="156"/>
      <point x="288" y="162" type="curve" smooth="yes"/>
      <point x="288" y="633" type="line" smooth="yes"/>
      <point x="288" y="643"/>
      <point x="286" y="647"/>
      <point x="273" y="647" type="curve" smooth="yes"/>
      <point x="185" y="647"/>
      <point x="37" y="585"/>
      <point x="37" y="417" type="curve" smooth="yes"/>
    </contour>
    <contour>
      <point x="277" y="-223" type="line" smooth="yes"/>
      <point x="277" y="-229"/>
      <point x="278" y="-234"/>
      <point x="288" y="-234" type="curve" smooth="yes"/>
      <point x="376" y="-234" type="line" smooth="yes"/>
      <point x="389" y="-234"/>
      <point x="389" y="-234"/>
      <point x="389" y="-224" type="curve" smooth="yes"/>
      <point x="389" y="610" type="line" smooth="yes"/>
      <point x="389" y="617"/>
      <point x="389" y="617"/>
      <point x="394" y="617" type="curve" smooth="yes"/>
      <point x="444" y="617" type="line" smooth="yes"/>
      <point x="455" y="617"/>
      <point x="455" y="621"/>
      <point x="455" y="629" type="curve" smooth="yes"/>
      <point x="455" y="643" type="line" smooth="yes"/>
      <point x="455" y="653"/>
      <point x="454" y="657"/>
      <point x="444" y="657" type="curve" smooth="yes"/>
      <point x="368" y="657" type="line" smooth="yes"/>
      <point x="359" y="657"/>
      <point x="356" y="656"/>
      <point x="356" y="644" type="curve" smooth="yes"/>
      <point x="356" y="-189" type="line" smooth="yes"/>
      <point x="356" y="-194"/>
      <point x="356" y="-194"/>
      <point x="348" y="-194" type="curve" smooth="yes"/>
      <point x="288" y="-194" type="line" smooth="yes"/>
      <point x="278" y="-194"/>
      <point x="277" y="-199"/>
      <point x="277" y="-205" type="curve" smooth="yes"/>
    </contour>
  </outline>
</glyph>
<glyph name="periodcentered" format="1">
  <advance width="125"/>
  <unicode hex="00B7"/>
  <outline>
    <contour>
      <point x="22" y="318"/>
      <point x="38" y="289"/>
      <point x="69" y="289" type="curve" smooth="yes"/>
      <point x="95" y="289"/>
      <point x="113" y="311"/>
      <point x="113" y="338" type="curve" smooth="yes"/>
      <point x="113" y="360"/>
      <point x="97" y="389"/>
      <point x="66" y="389" type="curve" smooth="yes"/>
      <point x="38" y="389"/>
      <point x="22" y="367"/>
      <point x="22" y="340" type="curve" smooth="yes"/>
    </contour>
  </outline>
</glyph>
<glyph name="cedilla" format="1">
  <advance width="400"/>
  <unicode hex="00B8"/>
  <outline>
    <contour>
      <point x="106" y="-198"/>
      <point x="136" y="-220"/>
      <point x="184" y="-220" type="curve" smooth="yes"/>
      <point x="248" y="-220"/>
      <point x="299" y="-183"/>
      <point x="299" y="-131" type="curve" smooth="yes"/>
      <point x="299" y="-96"/>
      <point x="268" y="-64"/>
      <point x="219" y="-64" type="curve" smooth="yes"/>
      <point x="213" y="-64"/>
      <point x="199" y="-65"/>
      <point x="194" y="-66" type="curve"/>
      <point x="197" y="-60"/>
      <point x="230" y="0"/>
      <point x="230" y="0" type="curve" smooth="yes"/>
      <point x="204" y="0" type="line"/>
      <point x="191" y="-25"/>
      <point x="149" y="-100"/>
      <point x="149" y="-103" type="curve" smooth="yes"/>
      <point x="149" y="-105"/>
      <point x="157" y="-109"/>
      <point x="159" y="-109" type="curve" smooth="yes"/>
      <point x="164" y="-109"/>
      <point x="177" y="-103"/>
      <point x="195" y="-103" type="curve" smooth="yes"/>
      <point x="229" y="-103"/>
      <point x="239" y="-126"/>
      <point x="239" y="-145" type="curve" smooth="yes"/>
      <point x="239" y="-177"/>
      <point x="217" y="-191"/>
      <point x="173" y="-191" type="curve" smooth="yes"/>
      <point x="142" y="-191"/>
      <point x="123" y="-177"/>
      <point x="117" y="-177" type="curve" smooth="yes"/>
      <point x="106" y="-177"/>
      <point x="106" y="-187"/>
      <point x="106" y="-190" type="curve" smooth="yes"/>
    </contour>
  </outline>
</glyph>
<glyph name="onequarter" format="1">
  <advance width="794"/>
  <unicode hex="00BC"/>
  <outline>
    <contour>
      <point x="455" y="132"/>
      <point x="467" y="132"/>
      <point x="471" y="132" type="curve" smooth="yes"/>
      <point x="610" y="132" type="line" smooth="yes"/>
      <point x="614" y="132"/>
      <point x="618" y="131"/>
      <point x="617" y="126" type="curve" smooth="yes"/>
      <point x="594" y="0" type="line" smooth="yes"/>
      <point x="593" y="-5"/>
      <point x="593" y="-14"/>
      <point x="601" y="-14" type="curve" smooth="yes"/>
      <point x="612" y="-14"/>
      <point x="638" y="-11"/>
      <point x="643" y="-10" type="curve"/>
      <point x="644" y="-10" type="line"/>
      <point x="644" y="-9" type="line"/>
      <point x="645" y="-9"/>
      <point x="652" y="-8"/>
      <point x="653" y="-1" type="curve"/>
      <point x="653" y="6"/>
      <point x="665" y="85"/>
      <point x="671" y="126" type="curve"/>
      <point x="672" y="131"/>
      <point x="674" y="132"/>
      <point x="678" y="132" type="curve" smooth="yes"/>
      <point x="722" y="132" type="line" smooth="yes"/>
      <point x="730" y="132"/>
      <point x="734" y="134"/>
      <point x="734" y="142" type="curve" smooth="yes"/>
      <point x="734" y="165" type="line" smooth="yes"/>
      <point x="734" y="173"/>
      <point x="730" y="176"/>
      <point x="725" y="176" type="curve" smooth="yes"/>
      <point x="688" y="176" type="line" smooth="yes"/>
      <point x="682" y="176"/>
      <point x="682" y="178"/>
      <point x="682" y="180" type="curve"/>
      <point x="687" y="209"/>
      <point x="712" y="384"/>
      <point x="712" y="400" type="curve" smooth="yes"/>
      <point x="712" y="405"/>
      <point x="712" y="417"/>
      <point x="702" y="417" type="curve" smooth="yes"/>
      <point x="693" y="417"/>
      <point x="674" y="395"/>
      <point x="660" y="381" type="curve" smooth="yes"/>
      <point x="654" y="375"/>
      <point x="644" y="373"/>
      <point x="634" y="360" type="curve"/>
      <point x="585" y="301"/>
      <point x="507" y="227"/>
      <point x="473" y="181" type="curve" smooth="yes"/>
      <point x="461" y="165"/>
      <point x="455" y="149"/>
      <point x="455" y="141" type="curve" smooth="yes"/>
    </contour>
    <contour>
      <point x="502" y="176" type="line"/>
      <point x="504" y="179"/>
      <point x="508" y="184"/>
      <point x="511" y="187" type="curve"/>
      <point x="550" y="232"/>
      <point x="626" y="314"/>
      <point x="649" y="337" type="curve"/>
      <point x="647" y="302"/>
      <point x="631" y="203"/>
      <point x="628" y="187" type="curve" smooth="yes"/>
      <point x="626" y="177"/>
      <point x="622" y="176"/>
      <point x="619" y="176" type="curve" smooth="yes"/>
    </contour>
    <contour>
      <point x="205" y="-16"/>
      <point x="215" y="-16"/>
      <point x="228" y="-16" type="curve" smooth="yes"/>
      <point x="245" y="-16"/>
      <point x="246" y="-16"/>
      <point x="254" y="-3" type="curve" smooth="yes"/>
      <point x="664" y="657" type="line"/>
      <point x="665" y="659"/>
      <point x="668" y="664"/>
      <point x="668" y="665" type="curve" smooth="yes"/>
      <point x="668" y="670"/>
      <point x="656" y="671"/>
      <point x="645" y="671" type="curve" smooth="yes"/>
      <point x="623" y="671"/>
      <point x="625" y="667"/>
      <point x="620" y="660" type="curve"/>
      <point x="211" y="2" type="line"/>
      <point x="209" y="-2"/>
      <point x="205" y="-8"/>
      <point x="205" y="-10" type="curve" smooth="yes"/>
    </contour>
    <contour>
      <point x="75" y="249"/>
      <point x="77" y="245"/>
      <point x="88" y="245" type="curve" smooth="yes"/>
      <point x="103" y="245"/>
      <point x="159" y="247"/>
      <point x="179" y="247" type="curve" smooth="yes"/>
      <point x="199" y="247"/>
      <point x="250" y="245"/>
      <point x="261" y="245" type="curve" smooth="yes"/>
      <point x="270" y="245"/>
      <point x="272" y="249"/>
      <point x="272" y="259" type="curve" smooth="yes"/>
      <point x="272" y="266"/>
      <point x="272" y="278"/>
      <point x="261" y="278" type="curve" smooth="yes"/>
      <point x="206" y="278" type="line"/>
      <point x="241" y="512" type="line" smooth="yes"/>
      <point x="250" y="570"/>
      <point x="263" y="644"/>
      <point x="263" y="652" type="curve" smooth="yes"/>
      <point x="263" y="656"/>
      <point x="261" y="663"/>
      <point x="253" y="663" type="curve" smooth="yes"/>
      <point x="248" y="663"/>
      <point x="160" y="647"/>
      <point x="133" y="644" type="curve" smooth="yes"/>
      <point x="126" y="643"/>
      <point x="122" y="638"/>
      <point x="122" y="632" type="curve" smooth="yes"/>
      <point x="122" y="624" type="line" smooth="yes"/>
      <point x="122" y="622"/>
      <point x="123" y="612"/>
      <point x="132" y="612" type="curve" smooth="yes"/>
      <point x="136" y="612"/>
      <point x="174" y="621"/>
      <point x="189" y="623" type="curve"/>
      <point x="186" y="584"/>
      <point x="151" y="325"/>
      <point x="144" y="278" type="curve"/>
      <point x="89" y="278" type="line" smooth="yes"/>
      <point x="75" y="278"/>
      <point x="75" y="268"/>
      <point x="75" y="260" type="curve" smooth="yes"/>
    </contour>
  </outline>
</glyph>
<glyph name="onehalf" format="1">
  <advance width="844"/>
  <unicode hex="00BD"/>
  <outline>
    <contour>
      <point x="522" y="1"/>
      <point x="527" y="-3"/>
      <point x="536" y="-3" type="curve" smooth="yes"/>
      <point x="764" y="-3" type="line" smooth="yes"/>
      <point x="769" y="-3"/>
      <point x="775" y="-3"/>
      <point x="776" y="4" type="curve"/>
      <point x="784" y="35"/>
      <point x="806" y="100"/>
      <point x="806" y="105" type="curve" smooth="yes"/>
      <point x="806" y="107"/>
      <point x="788" y="110"/>
      <point x="783" y="110" type="curve" smooth="yes"/>
      <point x="778" y="110"/>
      <point x="764" y="63"/>
      <point x="759" y="50" type="curve"/>
      <point x="585" y="50" type="line"/>
      <point x="593" y="59"/>
      <point x="612" y="82"/>
      <point x="619" y="88" type="curve" smooth="yes"/>
      <point x="641" y="106"/>
      <point x="696" y="141"/>
      <point x="743" y="192" type="curve" smooth="yes"/>
      <point x="771" y="223"/>
      <point x="795" y="261"/>
      <point x="795" y="302" type="curve" smooth="yes"/>
      <point x="795" y="365"/>
      <point x="751" y="413"/>
      <point x="683" y="413" type="curve" smooth="yes"/>
      <point x="604" y="413"/>
      <point x="536" y="329"/>
      <point x="536" y="315" type="curve" smooth="yes"/>
      <point x="536" y="306"/>
      <point x="549" y="299"/>
      <point x="554" y="299" type="curve" smooth="yes"/>
      <point x="565" y="299"/>
      <point x="595" y="364"/>
      <point x="663" y="364" type="curve" smooth="yes"/>
      <point x="711" y="364"/>
      <point x="734" y="333"/>
      <point x="734" y="296" type="curve" smooth="yes"/>
      <point x="734" y="224"/>
      <point x="592" y="102"/>
      <point x="581" y="92" type="curve"/>
      <point x="576" y="88"/>
      <point x="522" y="19"/>
      <point x="522" y="7" type="curve" smooth="yes"/>
    </contour>
    <contour>
      <point x="205" y="-16"/>
      <point x="215" y="-16"/>
      <point x="228" y="-16" type="curve" smooth="yes"/>
      <point x="245" y="-16"/>
      <point x="246" y="-16"/>
      <point x="254" y="-3" type="curve" smooth="yes"/>
      <point x="664" y="657" type="line"/>
      <point x="665" y="659"/>
      <point x="668" y="664"/>
      <point x="668" y="665" type="curve" smooth="yes"/>
      <point x="668" y="670"/>
      <point x="656" y="671"/>
      <point x="645" y="671" type="curve" smooth="yes"/>
      <point x="623" y="671"/>
      <point x="625" y="667"/>
      <point x="620" y="660" type="curve"/>
      <point x="211" y="2" type="line"/>
      <point x="209" y="-2"/>
      <point x="205" y="-8"/>
      <point x="205" y="-10" type="curve" smooth="yes"/>
    </contour>
    <contour>
      <point x="75" y="249"/>
      <point x="77" y="245"/>
      <point x="88" y="245" type="curve" smooth="yes"/>
      <point x="103" y="245"/>
      <point x="159" y="247"/>
      <point x="179" y="247" type="curve" smooth="yes"/>
      <point x="199" y="247"/>
      <point x="250" y="245"/>
      <point x="261" y="245" type="curve" smooth="yes"/>
      <point x="270" y="245"/>
      <point x="272" y="249"/>
      <point x="272" y="259" type="curve" smooth="yes"/>
      <point x="272" y="266"/>
      <point x="272" y="278"/>
      <point x="261" y="278" type="curve" smooth="yes"/>
      <point x="206" y="278" type="line"/>
      <point x="241" y="512" type="line" smooth="yes"/>
      <point x="250" y="570"/>
      <point x="263" y="644"/>
      <point x="263" y="652" type="curve" smooth="yes"/>
      <point x="263" y="656"/>
      <point x="261" y="663"/>
      <point x="253" y="663" type="curve" smooth="yes"/>
      <point x="248" y="663"/>
      <point x="160" y="647"/>
      <point x="133" y="644" type="curve" smooth="yes"/>
      <point x="126" y="643"/>
      <point x="122" y="638"/>
      <point x="122" y="632" type="curve" smooth="yes"/>
      <point x="122" y="624" type="line" smooth="yes"/>
      <point x="122" y="622"/>
      <point x="123" y="612"/>
      <point x="132" y="612" type="curve" smooth="yes"/>
      <point x="136" y="612"/>
      <point x="174" y="621"/>
      <point x="189" y="623" type="curve"/>
      <point x="186" y="584"/>
      <point x="151" y="325"/>
      <point x="144" y="278" type="curve"/>
      <point x="89" y="278" type="line" smooth="yes"/>
      <point x="75" y="278"/>
      <point x="75" y="268"/>
      <point x="75" y="260" type="curve" smooth="yes"/>
    </contour>
  </outline>
</glyph>
<glyph name="threequarters" format="1">
  <advance width="794"/>
  <unicode hex="00BE"/>
  <outline>
    <contour>
      <point x="455" y="132"/>
      <point x="467" y="132"/>
      <point x="471" y="132" type="curve" smooth="yes"/>
      <point x="610" y="132" type="line" smooth="yes"/>
      <point x="614" y="132"/>
      <point x="618" y="131"/>
      <point x="617" y="126" type="curve" smooth="yes"/>
      <point x="594" y="0" type="line" smooth="yes"/>
      <point x="593" y="-5"/>
      <point x="593" y="-14"/>
      <point x="601" y="-14" type="curve" smooth="yes"/>
      <point x="612" y="-14"/>
      <point x="638" y="-11"/>
      <point x="643" y="-10" type="curve"/>
      <point x="644" y="-10" type="line"/>
      <point x="644" y="-9" type="line"/>
      <point x="645" y="-9"/>
      <point x="652" y="-8"/>
      <point x="653" y="-1" type="curve"/>
      <point x="653" y="6"/>
      <point x="665" y="85"/>
      <point x="671" y="126" type="curve"/>
      <point x="672" y="131"/>
      <point x="674" y="132"/>
      <point x="678" y="132" type="curve" smooth="yes"/>
      <point x="722" y="132" type="line" smooth="yes"/>
      <point x="730" y="132"/>
      <point x="734" y="134"/>
      <point x="734" y="142" type="curve" smooth="yes"/>
      <point x="734" y="165" type="line" smooth="yes"/>
      <point x="734" y="173"/>
      <point x="730" y="176"/>
      <point x="725" y="176" type="curve" smooth="yes"/>
      <point x="688" y="176" type="line" smooth="yes"/>
      <point x="682" y="176"/>
      <point x="682" y="178"/>
      <point x="682" y="180" type="curve"/>
      <point x="687" y="209"/>
      <point x="712" y="384"/>
      <point x="712" y="400" type="curve" smooth="yes"/>
      <point x="712" y="405"/>
      <point x="712" y="417"/>
      <point x="702" y="417" type="curve" smooth="yes"/>
      <point x="693" y="417"/>
      <point x="674" y="395"/>
      <point x="660" y="381" type="curve" smooth="yes"/>
      <point x="654" y="375"/>
      <point x="644" y="373"/>
      <point x="634" y="360" type="curve"/>
      <point x="585" y="301"/>
      <point x="507" y="227"/>
      <point x="473" y="181" type="curve" smooth="yes"/>
      <point x="461" y="165"/>
      <point x="455" y="149"/>
      <point x="455" y="141" type="curve" smooth="yes"/>
    </contour>
    <contour>
      <point x="502" y="176" type="line"/>
      <point x="504" y="179"/>
      <point x="508" y="184"/>
      <point x="511" y="187" type="curve"/>
      <point x="550" y="232"/>
      <point x="626" y="314"/>
      <point x="649" y="337" type="curve"/>
      <point x="647" y="302"/>
      <point x="631" y="203"/>
      <point x="628" y="187" type="curve" smooth="yes"/>
      <point x="626" y="177"/>
      <point x="622" y="176"/>
      <point x="619" y="176" type="curve" smooth="yes"/>
    </contour>
    <contour>
      <point x="205" y="-16"/>
      <point x="215" y="-16"/>
      <point x="228" y="-16" type="curve" smooth="yes"/>
      <point x="245" y="-16"/>
      <point x="246" y="-16"/>
      <point x="254" y="-3" type="curve" smooth="yes"/>
      <point x="664" y="657" type="line"/>
      <point x="665" y="659"/>
      <point x="668" y="664"/>
      <point x="668" y="665" type="curve" smooth="yes"/>
      <point x="668" y="670"/>
      <point x="656" y="671"/>
      <point x="645" y="671" type="curve" smooth="yes"/>
      <point x="623" y="671"/>
      <point x="625" y="667"/>
      <point x="620" y="660" type="curve"/>
      <point x="211" y="2" type="line"/>
      <point x="209" y="-2"/>
      <point x="205" y="-8"/>
      <point x="205" y="-10" type="curve" smooth="yes"/>
    </contour>
    <contour>
      <point x="46" y="260"/>
      <point x="109" y="238"/>
      <point x="141" y="238" type="curve" smooth="yes"/>
      <point x="214" y="238"/>
      <point x="295" y="279"/>
      <point x="295" y="362" type="curve" smooth="yes"/>
      <point x="295" y="436"/>
      <point x="216" y="454"/>
      <point x="187" y="460" type="curve"/>
      <point x="214" y="470"/>
      <point x="294" y="501"/>
      <point x="294" y="572" type="curve" smooth="yes"/>
      <point x="294" y="616"/>
      <point x="259" y="663"/>
      <point x="188" y="663" type="curve" smooth="yes"/>
      <point x="133" y="663"/>
      <point x="85" y="619"/>
      <point x="84" y="608" type="curve" smooth="yes"/>
      <point x="83" y="599"/>
      <point x="94" y="593"/>
      <point x="99" y="593" type="curve" smooth="yes"/>
      <point x="109" y="593"/>
      <point x="134" y="627"/>
      <point x="178" y="627" type="curve" smooth="yes"/>
      <point x="208" y="627"/>
      <point x="233" y="605"/>
      <point x="233" y="565" type="curve" smooth="yes"/>
      <point x="233" y="513"/>
      <point x="205" y="490"/>
      <point x="165" y="474" type="curve" smooth="yes"/>
      <point x="150" y="468"/>
      <point x="130" y="464"/>
      <point x="113" y="463" type="curve"/>
      <point x="103" y="462"/>
      <point x="106" y="447"/>
      <point x="106" y="445" type="curve" smooth="yes"/>
      <point x="106" y="438"/>
      <point x="108" y="429"/>
      <point x="116" y="429" type="curve" smooth="yes"/>
      <point x="126" y="429"/>
      <point x="141" y="431"/>
      <point x="151" y="431" type="curve" smooth="yes"/>
      <point x="204" y="431"/>
      <point x="234" y="408"/>
      <point x="234" y="358" type="curve" smooth="yes"/>
      <point x="234" y="305"/>
      <point x="199" y="267"/>
      <point x="149" y="267" type="curve" smooth="yes"/>
      <point x="121" y="267"/>
      <point x="111" y="298"/>
      <point x="79" y="298" type="curve" smooth="yes"/>
      <point x="68" y="298"/>
      <point x="46" y="289"/>
      <point x="46" y="277" type="curve" smooth="yes"/>
    </contour>
  </outline>
</glyph>
<glyph name="questiondown" format="1">
  <advance width="374"/>
  <unicode hex="00BF"/>
  <outline>
    <contour>
      <point x="32" y="95"/>
      <point x="60" y="38"/>
      <point x="105" y="8" type="curve" smooth="yes"/>
      <point x="119" y="-1"/>
      <point x="142" y="-11"/>
      <point x="197" y="-11" type="curve" smooth="yes"/>
      <point x="214" y="-11"/>
      <point x="243" y="-9"/>
      <point x="261" y="-6" type="curve" smooth="yes"/>
      <point x="275" y="-4"/>
      <point x="282" y="-3"/>
      <point x="282" y="13" type="curve" smooth="yes"/>
      <point x="282" y="23" type="line" smooth="yes"/>
      <point x="282" y="38"/>
      <point x="281" y="55"/>
      <point x="267" y="55" type="curve" smooth="yes"/>
      <point x="258" y="55"/>
      <point x="209" y="52"/>
      <point x="187" y="52" type="curve" smooth="yes"/>
      <point x="151" y="52"/>
      <point x="121" y="53"/>
      <point x="100" y="66" type="curve" smooth="yes"/>
      <point x="82" y="77"/>
      <point x="64" y="106"/>
      <point x="64" y="134" type="curve" smooth="yes"/>
      <point x="64" y="187"/>
      <point x="159" y="264"/>
      <point x="227" y="332" type="curve" smooth="yes"/>
      <point x="264" y="369"/>
      <point x="293" y="403"/>
      <point x="293" y="443" type="curve" smooth="yes"/>
      <point x="293" y="484"/>
      <point x="250" y="526"/>
      <point x="242" y="526" type="curve" smooth="yes"/>
      <point x="237" y="526"/>
      <point x="225" y="514"/>
      <point x="225" y="510" type="curve" smooth="yes"/>
      <point x="225" y="505"/>
      <point x="253" y="482"/>
      <point x="253" y="457" type="curve" smooth="yes"/>
      <point x="253" y="431"/>
      <point x="207" y="393"/>
      <point x="187" y="373" type="curve" smooth="yes"/>
      <point x="151" y="337"/>
      <point x="123" y="312"/>
      <point x="82" y="266" type="curve" smooth="yes"/>
      <point x="52" y="232"/>
      <point x="32" y="215"/>
      <point x="32" y="148" type="curve" smooth="yes"/>
    </contour>
    <contour>
      <point x="201" y="584"/>
      <point x="228" y="556"/>
      <point x="248" y="556" type="curve" smooth="yes"/>
      <point x="269" y="556"/>
      <point x="297" y="583"/>
      <point x="297" y="611" type="curve" smooth="yes"/>
      <point x="297" y="628"/>
      <point x="274" y="660"/>
      <point x="244" y="660" type="curve" smooth="yes"/>
      <point x="232" y="660"/>
      <point x="201" y="643"/>
      <point x="201" y="606" type="curve" smooth="yes"/>
    </contour>
  </outline>
</glyph>
